<svg width="183" height="60" viewBox="0 0 183 60" fill="none" xmlns="http://www.w3.org/2000/svg">
<path d="M27.9322 25.8277H33.9735V29.8892H27.9322V25.8277ZM24.2259 12.8677H29.1924V47.0584H24.2259V12.8677ZM3.35938 16.1538H8.25173V37.4215H3.35938V16.1538ZM3.35938 34.6523H6.28737C8.73355 34.6523 11.2786 34.5538 13.9224 34.3569C16.5663 34.1601 19.2719 33.7908 22.0393 33.2492L22.5582 37.2369C19.6919 37.8277 16.8998 38.2338 14.1819 38.4554C11.4639 38.6522 8.8324 38.7508 6.28737 38.7508H3.35938V34.6523ZM39.6785 22.1354H63.4731V26.0492H39.6785V22.1354ZM35.861 29.5938H66.92V33.5077H35.861V29.5938ZM39.6785 14.1231H44.6079V24.0923H39.6785V14.1231ZM39.382 42.4431H63.6585V46.3938H39.382V42.4431ZM39.382 36.2031H44.3114V43.5138H39.382V36.2031ZM149.622 39.3784H180.718V43.3661H149.622V39.3784ZM162.668 32.88H167.561V40.9661H162.668V32.88ZM153.143 15.12H177.197V26.5292H158.073V32.2523H153.18V22.6892H172.305V19.0338H153.143V15.12ZM153.18 30.3323H177.976V34.2461H153.18V30.3323Z" fill="#263FBD"/>
<path d="M90.0397 28.0955C89.6924 27.0905 89.0626 26.3949 88.1499 26.0084C87.2375 25.6221 86.1151 25.5861 84.7834 25.9006C83.8784 26.1143 83.1445 26.4222 82.5818 26.8246C82.0173 27.2186 81.6212 27.6757 81.3935 28.1968C81.1741 28.7156 81.1315 29.2558 81.2649 29.8173C81.3592 30.2889 81.5545 30.6741 81.851 30.9725C82.1558 31.2688 82.5309 31.4991 82.9756 31.6636C83.4185 31.8194 83.9143 31.9316 84.4626 31.9996C85.0088 32.0594 85.583 32.0855 86.1853 32.0781L88.6755 32.0829C89.8803 32.0679 91.0114 32.1603 92.0687 32.3596C93.1261 32.5593 94.0789 32.8867 94.9267 33.3423C95.7745 33.798 96.4908 34.4015 97.0752 35.1526C97.6682 35.9019 98.0986 36.8202 98.3662 37.9069C98.7382 39.5079 98.658 40.9911 98.1264 42.3563C97.601 43.7112 96.6555 44.8911 95.2894 45.8963C93.9299 46.8912 92.1831 47.6405 90.0485 48.1445C87.9312 48.6446 86.01 48.7567 84.2854 48.4812C82.5691 48.2038 81.1204 47.5353 79.9395 46.4756C78.765 45.4053 77.9329 43.9353 77.443 42.0658L82.8091 40.7986C83.0773 41.6606 83.5033 42.3326 84.0868 42.8146C84.6768 43.2861 85.3831 43.5822 86.2052 43.7024C87.0338 43.8123 87.9264 43.7541 88.8826 43.5284C89.8217 43.3066 90.6049 42.978 91.2315 42.5426C91.8669 42.105 92.3191 41.5985 92.588 41.0229C92.8567 40.4474 92.9162 39.8449 92.7666 39.2156C92.6269 38.6287 92.3346 38.1766 91.8894 37.8596C91.4527 37.5404 90.868 37.3191 90.1353 37.1956C89.4112 37.0703 88.5435 37.0055 87.5328 37.0018L84.5068 36.9616C82.1679 36.9478 80.2225 36.5223 78.6707 35.685C77.1189 34.8476 76.1175 33.4625 75.6668 31.5298C75.2818 29.9497 75.3756 28.4677 75.948 27.084C76.5292 25.698 77.4921 24.4959 78.8368 23.4778C80.1818 22.4595 81.8105 21.7245 83.7229 21.273C85.6694 20.8133 87.4476 20.7438 89.0568 21.0645C90.6746 21.3832 92.0297 22.038 93.1222 23.0287C94.2144 24.0194 94.9587 25.29 95.3545 26.8406L90.0397 28.0955ZM124.325 25.8616C125.003 28.7109 125.038 31.263 124.429 33.5179C123.829 35.7709 122.723 37.6443 121.113 39.1385C119.509 40.6221 117.551 41.6373 115.237 42.1835C112.906 42.7339 110.689 42.7004 108.585 42.0833C106.481 41.466 104.654 40.285 103.102 38.5401C101.551 36.7955 100.438 34.5026 99.7616 31.6618C99.0836 28.8123 99.0449 26.2611 99.6451 24.0083C100.245 21.7555 101.347 19.8873 102.951 18.4036C104.553 16.9114 106.519 15.8902 108.85 15.3398C111.164 14.7935 113.373 14.8289 115.476 15.4461C117.586 16.0528 119.417 17.2286 120.969 18.9734C122.528 20.7162 123.647 23.0122 124.325 25.8616ZM118.703 27.1893C118.264 25.3436 117.616 23.8523 116.76 22.7161C115.911 21.5778 114.91 20.7992 113.756 20.3801C112.601 19.961 111.353 19.9098 110.013 20.2263C108.672 20.5428 107.58 21.1464 106.737 22.0373C105.894 22.9281 105.346 24.0727 105.092 25.4709C104.848 26.8673 104.945 28.4885 105.384 30.3342C105.823 32.1799 106.467 33.6718 107.314 34.8102C108.171 35.9465 109.177 36.7242 110.331 37.1433C111.486 37.5623 112.734 37.6136 114.074 37.2969C115.415 36.9806 116.506 36.3769 117.35 35.4861C118.192 34.5953 118.737 33.4516 118.981 32.0553C119.235 30.657 119.142 29.0349 118.703 27.1893ZM131 38.0841L124.784 11.9548L130.329 10.6454L135.462 32.2198L146.706 29.5648L147.79 34.1195L131 38.0841Z" fill="#67D3EC"/>
</svg>
