<svg width="120" height="40" viewBox="0 0 120 40" fill="none" xmlns="http://www.w3.org/2000/svg">
<path d="M18.3165 16.5481H22.278V19.227H18.3165V16.5481ZM15.8861 8H19.1428V30.5514H15.8861V8ZM2.20312 10.1675H5.41123V24.1951H2.20312V10.1675ZM2.20312 22.3686H4.12312C5.72718 22.3686 7.39604 22.3036 9.12971 22.1737C10.8634 22.0439 12.6376 21.8004 14.4522 21.4431L14.7925 24.0733C12.913 24.463 11.0821 24.7309 9.29983 24.877C7.51756 25.0068 5.79199 25.0718 4.12312 25.0718H2.20312V22.3686ZM26.0189 14.1127H41.622V16.6942H26.0189V14.1127ZM23.5157 19.0321H43.8822V21.6136H23.5157V19.0321ZM26.0189 8.82802H29.2514V15.4035H26.0189V8.82802ZM25.8245 27.5072H41.7435V30.113H25.8245V27.5072ZM25.8245 23.3914H29.0569V28.2134H25.8245V23.3914ZM98.1131 25.4858H118.504V28.116H98.1131V25.4858ZM106.668 21.1996H109.876V26.533H106.668V21.1996ZM100.422 9.48556H116.195V17.0108H103.654V20.7856H100.446V14.478H112.987V12.067H100.422V9.48556ZM100.446 19.5192H116.706V22.1007H100.446V19.5192Z" fill="#263FBD"/>
<path d="M59.042 18.6334C58.8143 17.9634 58.4012 17.4997 57.8028 17.242C57.2044 16.9845 56.4685 16.9605 55.5952 17.1702C55.0018 17.3126 54.5205 17.5179 54.1516 17.7862C53.7814 18.0488 53.5217 18.3536 53.3723 18.7009C53.2285 19.0468 53.2005 19.4069 53.288 19.7812C53.3499 20.0957 53.4779 20.3525 53.6723 20.5514C53.8722 20.7489 54.1182 20.9025 54.4098 21.0122C54.7002 21.116 55.0253 21.1908 55.3848 21.2362C55.743 21.276 56.1196 21.2934 56.5145 21.2885L58.1474 21.2917C58.9375 21.2817 59.6792 21.3432 60.3724 21.4762C61.0659 21.6092 61.6906 21.8276 62.2466 22.1312C62.8025 22.4351 63.2722 22.8374 63.6554 23.3382C64.0443 23.8377 64.3265 24.4499 64.502 25.1743C64.7459 26.2417 64.6933 27.2305 64.3447 28.1406C64.0002 29.0439 63.3802 29.8305 62.4844 30.5006C61.5929 31.1639 60.4475 31.6634 59.0477 31.9994C57.6594 32.3328 56.3995 32.4076 55.2686 32.2239C54.1432 32.0389 53.1932 31.5933 52.4189 30.8868C51.6487 30.1733 51.1031 29.1933 50.7819 27.9469L54.3006 27.1022C54.4765 27.6768 54.7558 28.1248 55.1385 28.4462C55.5254 28.7605 55.9885 28.9579 56.5276 29.038C57.0709 29.1112 57.6562 29.0725 58.2832 28.922C58.899 28.7742 59.4126 28.5551 59.8235 28.2648C60.2401 27.9731 60.5366 27.6354 60.713 27.2517C60.8892 26.868 60.9282 26.4663 60.8301 26.0468C60.7385 25.6556 60.5468 25.3542 60.2549 25.1428C59.9685 24.93 59.5851 24.7825 59.1047 24.7002C58.6299 24.6166 58.0608 24.5734 57.3981 24.5709L55.4139 24.5442C53.8801 24.5349 52.6045 24.2512 51.5869 23.6931C50.5694 23.1348 49.9127 22.2114 49.6171 20.9229C49.3646 19.8696 49.4262 18.8816 49.8015 17.9591C50.1826 17.0351 50.8141 16.2337 51.6958 15.5549C52.5778 14.876 53.6458 14.3861 54.8998 14.085C56.1762 13.7786 57.3422 13.7323 58.3975 13.9461C59.4583 14.1586 60.3469 14.5951 61.0633 15.2556C61.7795 15.916 62.2675 16.7631 62.5271 17.7968L59.042 18.6334ZM81.5242 17.1442C81.9688 19.0437 81.9914 20.7451 81.5922 22.2483C81.1987 23.7503 80.474 24.9992 79.418 25.9954C78.3664 26.9845 77.0819 27.6612 75.5646 28.0254C74.0362 28.3923 72.5822 28.37 71.2028 27.9586C69.8234 27.5471 68.6249 26.7597 67.6077 25.5965C66.5904 24.4334 65.8602 22.9048 65.417 21.0109C64.9724 19.1112 64.947 17.4105 65.3406 15.9086C65.7342 14.4068 66.4567 13.1613 67.5085 12.1722C68.5589 11.1774 69.8482 10.4965 71.3766 10.1296C72.8939 9.76539 74.3423 9.78902 75.7217 10.2005C77.1053 10.605 78.3059 11.3888 79.3232 12.552C80.3461 13.7138 81.0797 15.2446 81.5242 17.1442ZM77.8376 18.0292C77.5496 16.7988 77.1247 15.8046 76.5632 15.0472C76.0071 14.2883 75.3506 13.7692 74.5933 13.4898C73.8361 13.2104 73.018 13.1762 72.139 13.3873C71.2599 13.5983 70.544 14.0007 69.9913 14.5946C69.4384 15.1884 69.0788 15.9516 68.9126 16.8837C68.7521 17.8146 68.8157 18.8954 69.1037 20.1259C69.3916 21.3563 69.8137 22.3509 70.3697 23.1099C70.9314 23.8674 71.5908 24.3859 72.348 24.6652C73.1052 24.9446 73.9233 24.9788 74.8022 24.7677C75.6812 24.5568 76.3971 24.1543 76.9501 23.5605C77.5028 22.9666 77.8596 22.2042 78.0202 21.2732C78.1864 20.3411 78.1255 19.2597 77.8376 18.0292ZM85.9014 25.2925L81.8249 7.87294L85.4612 7L88.8272 21.3829L96.2005 19.6129L96.9111 22.6494L85.9014 25.2925Z" fill="#67D3EC"/>
</svg>
