<svg width="60" height="60" viewBox="0 0 60 60" fill="none" xmlns="http://www.w3.org/2000/svg">
<path d="M46.6475 5.39752C48.8442 3.20083 52.4058 3.20083 54.6025 5.39752C56.7992 7.59422 56.7992 11.1558 54.6025 13.3525L38.0433 29.9116C37.9945 29.9604 37.9945 30.0396 38.0433 30.0884L54.6025 46.6475C56.7992 48.8442 56.7992 52.4058 54.6025 54.6025C52.4058 56.7992 48.8442 56.7992 46.6475 54.6025L30.0884 38.0433C30.0396 37.9945 29.9604 37.9945 29.9116 38.0433L13.3525 54.6025C11.1558 56.7992 7.59422 56.7992 5.39753 54.6025C3.20082 52.4058 3.20082 48.8442 5.39753 46.6475L21.9567 30.0884C22.0055 30.0396 22.0055 29.9604 21.9567 29.9116L5.39753 13.3525C3.20083 11.1558 3.20083 7.59422 5.39753 5.39752C7.59423 3.20083 11.1558 3.20083 13.3525 5.39752L29.9116 21.9567C29.9604 22.0055 30.0396 22.0055 30.0884 21.9567L46.6475 5.39752Z" fill="#212121"/>
</svg>
