<svg width="335" height="92" viewBox="0 0 335 92" fill="none" xmlns="http://www.w3.org/2000/svg">
<rect x="0.5" y="0.5" width="334" height="90.7808" rx="45.3904" stroke="#67D3EC"/>
<path d="M138.168 34.864H141.384V57.16H138.168V34.864ZM140.688 43.096H144.6V45.736H140.688V43.096ZM124.824 49.192H126.696C127.96 49.192 129.144 49.176 130.248 49.144C131.352 49.096 132.424 49.024 133.464 48.928C134.504 48.816 135.568 48.664 136.656 48.472L136.968 51.112C135.848 51.304 134.744 51.456 133.656 51.568C132.584 51.68 131.48 51.752 130.344 51.784C129.208 51.816 127.992 51.832 126.696 51.832H124.824V49.192ZM124.824 36.928H135.192V39.496H128.016V50.44H124.824V36.928ZM151.462 36.616H154.078V39.832C154.078 41.272 153.95 42.656 153.694 43.984C153.438 45.296 153.046 46.528 152.518 47.68C152.006 48.816 151.342 49.824 150.526 50.704C149.726 51.568 148.774 52.256 147.67 52.768L145.774 50.128C146.75 49.696 147.59 49.128 148.294 48.424C149.014 47.704 149.606 46.888 150.07 45.976C150.534 45.048 150.878 44.064 151.102 43.024C151.342 41.984 151.462 40.92 151.462 39.832V36.616ZM152.086 36.616H154.678V39.832C154.678 40.872 154.79 41.888 155.014 42.88C155.238 43.872 155.574 44.808 156.022 45.688C156.486 46.568 157.062 47.352 157.75 48.04C158.454 48.712 159.278 49.248 160.222 49.648L158.374 52.24C157.302 51.744 156.366 51.08 155.566 50.248C154.782 49.416 154.134 48.456 153.622 47.368C153.11 46.264 152.726 45.08 152.47 43.816C152.214 42.536 152.086 41.208 152.086 39.832V36.616ZM161.302 34.864H164.494V57.16H161.302V34.864ZM182.372 34.912H185.564V57.136H182.372V34.912ZM184.844 43.576H188.756V46.216H184.844V43.576ZM168.02 38.176H180.98V40.72H168.02V38.176ZM174.548 41.992C175.62 41.992 176.58 42.224 177.428 42.688C178.276 43.136 178.94 43.752 179.42 44.536C179.916 45.32 180.164 46.232 180.164 47.272C180.164 48.312 179.916 49.232 179.42 50.032C178.94 50.816 178.276 51.44 177.428 51.904C176.596 52.352 175.636 52.576 174.548 52.576C173.476 52.576 172.508 52.352 171.644 51.904C170.796 51.44 170.124 50.816 169.628 50.032C169.148 49.232 168.908 48.312 168.908 47.272C168.908 46.232 169.148 45.32 169.628 44.536C170.124 43.752 170.796 43.136 171.644 42.688C172.508 42.224 173.476 41.992 174.548 41.992ZM174.548 44.584C174.036 44.584 173.588 44.688 173.204 44.896C172.82 45.104 172.516 45.408 172.292 45.808C172.068 46.208 171.956 46.696 171.956 47.272C171.956 47.832 172.068 48.32 172.292 48.736C172.516 49.136 172.82 49.448 173.204 49.672C173.588 49.88 174.036 49.984 174.548 49.984C175.044 49.984 175.484 49.88 175.868 49.672C176.252 49.448 176.556 49.136 176.78 48.736C177.004 48.32 177.116 47.832 177.116 47.272C177.116 46.696 177.004 46.208 176.78 45.808C176.556 45.408 176.252 45.104 175.868 44.896C175.484 44.688 175.044 44.584 174.548 44.584ZM172.916 35.272H176.132V39.16H172.916V35.272ZM205.53 34.888H208.722V57.112H205.53V34.888ZM198.978 37.192H202.122C202.122 38.888 201.954 40.512 201.618 42.064C201.298 43.6 200.754 45.048 199.986 46.408C199.234 47.768 198.194 49.032 196.866 50.2C195.554 51.352 193.914 52.408 191.946 53.368L190.266 50.848C192.41 49.808 194.114 48.664 195.378 47.416C196.658 46.152 197.578 44.728 198.138 43.144C198.698 41.544 198.978 39.752 198.978 37.768V37.192ZM191.466 37.192H200.466V39.736H191.466V37.192Z" fill="#67D3EC"/>
</svg>
