<svg width="420" height="120" viewBox="0 0 420 120" fill="none" xmlns="http://www.w3.org/2000/svg">
<rect width="420" height="120" rx="10" fill="#C0D5FE"/>
<path d="M125.796 51.94H137.516V54.06H125.796V51.94ZM124.076 64.2H140.836V66.36H124.076V64.2ZM136.116 51.94H138.776V54.14C138.776 55.0067 138.763 55.8867 138.736 56.78C138.723 57.6733 138.669 58.6267 138.576 59.64C138.496 60.6533 138.336 61.8 138.096 63.08L135.436 62.84C135.676 61.6533 135.836 60.56 135.916 59.56C136.009 58.56 136.063 57.62 136.076 56.74C136.103 55.8467 136.116 54.98 136.116 54.14V51.94ZM142.974 62.5H144.274C145.381 62.5 146.441 62.48 147.454 62.44C148.468 62.3867 149.548 62.2667 150.694 62.08L150.894 64.24C149.708 64.44 148.588 64.5667 147.534 64.62C146.494 64.66 145.408 64.68 144.274 64.68H142.974V62.5ZM142.934 52.06H149.954V59.22H145.554V63.28H142.974V57.12H147.394V54.16H142.934V52.06ZM155.834 50.24H158.374V68.76H155.834V50.24ZM153.374 57.24H156.454V59.38H153.374V57.24ZM151.694 50.56H154.154V67.9H151.694V50.56ZM162.833 58.5H175.853V60.64H162.833V58.5ZM160.873 64.52H177.653V66.7H160.873V64.52ZM167.913 59.48H170.553V65.22H167.913V59.48ZM162.833 51.52H175.713V53.64H165.473V59.42H162.833V51.52ZM196.366 50.26H199.026V63.72H196.366V50.26ZM198.286 55.54H201.486V57.74H198.286V55.54ZM187.086 66.32H199.686V68.46H187.086V66.32ZM187.086 62.32H189.766V67.28H187.086V62.32ZM189.606 51.44C190.553 51.44 191.406 51.64 192.166 52.04C192.926 52.44 193.526 52.9933 193.966 53.7C194.42 54.4067 194.646 55.22 194.646 56.14C194.646 57.0467 194.42 57.86 193.966 58.58C193.526 59.2867 192.926 59.8467 192.166 60.26C191.406 60.66 190.553 60.86 189.606 60.86C188.66 60.86 187.806 60.66 187.046 60.26C186.286 59.8467 185.686 59.2867 185.246 58.58C184.806 57.86 184.586 57.0467 184.586 56.14C184.586 55.22 184.806 54.4067 185.246 53.7C185.686 52.9933 186.286 52.44 187.046 52.04C187.806 51.64 188.66 51.44 189.606 51.44ZM189.606 53.74C189.153 53.74 188.74 53.84 188.366 54.04C188.006 54.2267 187.72 54.5 187.506 54.86C187.293 55.2067 187.186 55.6333 187.186 56.14C187.186 56.6467 187.293 57.08 187.506 57.44C187.72 57.7867 188.006 58.06 188.366 58.26C188.74 58.4467 189.153 58.54 189.606 58.54C190.073 58.54 190.486 58.4467 190.846 58.26C191.22 58.06 191.513 57.7867 191.726 57.44C191.94 57.08 192.046 56.6467 192.046 56.14C192.046 55.6333 191.94 55.2067 191.726 54.86C191.513 54.5 191.22 54.2267 190.846 54.04C190.486 53.84 190.073 53.74 189.606 53.74ZM212.785 55.04H217.085V57.18H212.785V55.04ZM215.685 50.26H218.365V63.76H215.685V50.26ZM206.125 66.32H218.785V68.46H206.125V66.32ZM206.125 62.62H208.785V67.58H206.125V62.62ZM207.145 52.68H209.305V53.84C209.305 55.0133 209.118 56.1267 208.745 57.18C208.372 58.2333 207.798 59.16 207.025 59.96C206.265 60.7467 205.285 61.34 204.085 61.74L202.765 59.62C203.525 59.3667 204.178 59.04 204.725 58.64C205.285 58.2267 205.738 57.76 206.085 57.24C206.445 56.72 206.712 56.1733 206.885 55.6C207.058 55.0267 207.145 54.44 207.145 53.84V52.68ZM207.705 52.68H209.825V53.84C209.825 54.56 209.972 55.28 210.265 56C210.558 56.7067 211.012 57.3533 211.625 57.94C212.252 58.5133 213.052 58.9667 214.025 59.3L212.725 61.36C211.578 60.9733 210.632 60.4067 209.885 59.66C209.152 58.9 208.605 58.02 208.245 57.02C207.885 56.0067 207.705 54.9467 207.705 53.84V52.68ZM203.485 51.5H213.445V53.62H203.485V51.5ZM233.123 50.26H235.783V68.78H233.123V50.26ZM235.183 57.48H238.443V59.68H235.183V57.48ZM221.163 52.98H231.963V55.1H221.163V52.98ZM226.603 56.16C227.497 56.16 228.297 56.3533 229.003 56.74C229.71 57.1133 230.263 57.6267 230.663 58.28C231.077 58.9333 231.283 59.6933 231.283 60.56C231.283 61.4267 231.077 62.1933 230.663 62.86C230.263 63.5133 229.71 64.0333 229.003 64.42C228.31 64.7933 227.51 64.98 226.603 64.98C225.71 64.98 224.903 64.7933 224.183 64.42C223.477 64.0333 222.917 63.5133 222.503 62.86C222.103 62.1933 221.903 61.4267 221.903 60.56C221.903 59.6933 222.103 58.9333 222.503 58.28C222.917 57.6267 223.477 57.1133 224.183 56.74C224.903 56.3533 225.71 56.16 226.603 56.16ZM226.603 58.32C226.177 58.32 225.803 58.4067 225.483 58.58C225.163 58.7533 224.91 59.0067 224.723 59.34C224.537 59.6733 224.443 60.08 224.443 60.56C224.443 61.0267 224.537 61.4333 224.723 61.78C224.91 62.1133 225.163 62.3733 225.483 62.56C225.803 62.7333 226.177 62.82 226.603 62.82C227.017 62.82 227.383 62.7333 227.703 62.56C228.023 62.3733 228.277 62.1133 228.463 61.78C228.65 61.4333 228.743 61.0267 228.743 60.56C228.743 60.08 228.65 59.6733 228.463 59.34C228.277 59.0067 228.023 58.7533 227.703 58.58C227.383 58.4067 227.017 58.32 226.603 58.32ZM225.243 50.56H227.923V53.8H225.243V50.56ZM253.062 50.24H255.602V68.76H253.062V50.24ZM245.742 57.34H249.682V59.46H245.742V57.34ZM249.162 50.64H251.642V67.94H249.162V50.64ZM245.142 52.42H247.702C247.702 54.18 247.495 55.82 247.082 57.34C246.668 58.86 245.968 60.2533 244.982 61.52C244.008 62.7867 242.655 63.92 240.922 64.92L239.422 63.06C240.822 62.22 241.935 61.3067 242.762 60.32C243.602 59.32 244.208 58.22 244.582 57.02C244.955 55.8067 245.142 54.4533 245.142 52.96V52.42ZM240.442 52.42H245.962V54.56H240.442V52.42ZM263.996 51.48H266.656V59.22H263.996V51.48ZM263.996 58.38H265.556C266.809 58.38 268.122 58.3267 269.496 58.22C270.869 58.1133 272.289 57.9133 273.756 57.62L274.056 59.78C272.549 60.0733 271.082 60.28 269.656 60.4C268.242 60.5067 266.876 60.56 265.556 60.56H263.996V58.38ZM275.156 50.26H277.816V63.56H275.156V50.26ZM277.076 55.44H280.276V57.68H277.076V55.44ZM265.896 66.32H278.416V68.46H265.896V66.32ZM265.896 62.32H268.576V67.5H265.896V62.32ZM294.189 54.32H297.289V56.48H294.189V54.32ZM294.189 60.06H297.289V62.2H294.189V60.06ZM300.209 50.24H302.749V68.76H300.209V50.24ZM296.529 50.54H299.009V67.94H296.529V50.54ZM291.009 51.54C291.823 51.54 292.529 51.8133 293.129 52.36C293.743 52.8933 294.209 53.6667 294.529 54.68C294.863 55.68 295.029 56.88 295.029 58.28C295.029 59.6667 294.863 60.8667 294.529 61.88C294.209 62.8933 293.743 63.6733 293.129 64.22C292.529 64.7533 291.816 65.02 290.989 65.02C290.189 65.02 289.483 64.7533 288.869 64.22C288.269 63.6733 287.803 62.8933 287.469 61.88C287.149 60.8667 286.989 59.6667 286.989 58.28C286.989 56.88 287.149 55.68 287.469 54.68C287.803 53.6667 288.269 52.8933 288.869 52.36C289.483 51.8133 290.196 51.54 291.009 51.54ZM291.009 54.06C290.663 54.06 290.369 54.2133 290.129 54.52C289.889 54.8267 289.703 55.2933 289.569 55.92C289.449 56.5333 289.389 57.32 289.389 58.28C289.389 59.2133 289.449 59.9933 289.569 60.62C289.703 61.2467 289.889 61.72 290.129 62.04C290.369 62.3467 290.663 62.5 291.009 62.5C291.356 62.5 291.649 62.3467 291.889 62.04C292.129 61.72 292.316 61.2467 292.449 60.62C292.583 59.9933 292.649 59.2133 292.649 58.28C292.649 57.32 292.583 56.5333 292.449 55.92C292.316 55.2933 292.129 54.8267 291.889 54.52C291.649 54.2133 291.356 54.06 291.009 54.06ZM309.528 52.1H311.688V53.26C311.688 54.42 311.501 55.5333 311.128 56.6C310.754 57.6533 310.181 58.5733 309.408 59.36C308.648 60.1467 307.668 60.7333 306.468 61.12L305.148 59.02C305.908 58.7667 306.561 58.44 307.108 58.04C307.668 57.6267 308.121 57.16 308.468 56.64C308.828 56.12 309.094 55.5733 309.268 55C309.441 54.4267 309.528 53.8467 309.528 53.26V52.1ZM310.088 52.1H312.208V53.26C312.208 53.98 312.354 54.7 312.648 55.42C312.941 56.1267 313.394 56.7667 314.008 57.34C314.634 57.9 315.434 58.3467 316.408 58.68L315.108 60.78C313.961 60.3933 313.014 59.82 312.268 59.06C311.534 58.3 310.988 57.42 310.628 56.42C310.268 55.4067 310.088 54.3533 310.088 53.26V52.1ZM315.328 54.66H318.828V56.82H315.328V54.66ZM305.868 51.26H315.828V53.38H305.868V51.26ZM308.108 62.1H320.748V68.78H318.068V64.22H308.108V62.1ZM318.068 50.26H320.748V61.26H318.068V50.26ZM325.706 51.08H337.426V53.18H325.706V51.08ZM323.646 57.74H340.426V59.84H323.646V57.74ZM335.826 51.08H338.446V52.56C338.446 53.3467 338.426 54.1933 338.386 55.1C338.346 56.0067 338.186 57.06 337.906 58.26L335.246 58.24C335.54 57.0267 335.706 55.9733 335.746 55.08C335.8 54.1867 335.826 53.3467 335.826 52.56V51.08ZM325.606 61.78H338.366V68.58H325.606V61.78ZM335.766 63.86H328.226V66.48H335.766V63.86ZM350.405 51.18C351.711 51.18 352.885 51.4 353.925 51.84C354.978 52.28 355.805 52.9 356.405 53.7C357.018 54.5 357.325 55.44 357.325 56.52C357.325 57.6 357.018 58.5467 356.405 59.36C355.805 60.16 354.978 60.78 353.925 61.22C352.885 61.66 351.711 61.88 350.405 61.88C349.111 61.88 347.938 61.66 346.885 61.22C345.845 60.78 345.018 60.16 344.405 59.36C343.791 58.5467 343.485 57.6 343.485 56.52C343.485 55.44 343.791 54.5 344.405 53.7C345.018 52.9 345.845 52.28 346.885 51.84C347.938 51.4 349.111 51.18 350.405 51.18ZM350.405 53.34C349.578 53.34 348.838 53.4667 348.185 53.72C347.531 53.9733 347.018 54.34 346.645 54.82C346.285 55.2867 346.105 55.8533 346.105 56.52C346.105 57.1867 346.285 57.76 346.645 58.24C347.018 58.7067 347.531 59.0667 348.185 59.32C348.838 59.5733 349.578 59.7 350.405 59.7C351.258 59.7 352.005 59.5733 352.645 59.32C353.298 59.0667 353.805 58.7067 354.165 58.24C354.538 57.76 354.725 57.1867 354.725 56.52C354.725 55.8533 354.538 55.2867 354.165 54.82C353.805 54.34 353.298 53.9733 352.645 53.72C352.005 53.4667 351.258 53.34 350.405 53.34ZM342.045 64.36H358.825V66.54H342.045V64.36ZM360.443 64.58H377.223V66.74H360.443V64.58ZM367.483 61.06H370.123V65.44H367.483V61.06ZM362.343 51.44H375.323V57.62H365.003V60.72H362.363V55.54H372.683V53.56H362.343V51.44ZM362.363 59.68H375.743V61.8H362.363V59.68ZM382.081 62.26H379.701L379.201 52.72H382.581L382.081 62.26ZM379.161 65.6C379.161 64.9867 379.328 64.56 379.661 64.32C379.995 64.0667 380.401 63.94 380.881 63.94C381.348 63.94 381.748 64.0667 382.081 64.32C382.415 64.56 382.581 64.9867 382.581 65.6C382.581 66.1867 382.415 66.6133 382.081 66.88C381.748 67.1333 381.348 67.26 380.881 67.26C380.401 67.26 379.995 67.1333 379.661 66.88C379.328 66.6133 379.161 66.1867 379.161 65.6Z" fill="white"/>
</svg>
