<svg width="420" height="120" viewBox="0 0 420 120" fill="none" xmlns="http://www.w3.org/2000/svg">
<rect width="420" height="120" rx="10" fill="#FFA163"/>
<path d="M127.756 59.66H130.416V64.84H127.756V59.66ZM134.476 59.66H137.136V64.84H134.476V59.66ZM124.076 64.46H140.856V66.62H124.076V64.46ZM132.436 51.16C133.769 51.16 134.956 51.3667 135.996 51.78C137.049 52.1933 137.869 52.7733 138.456 53.52C139.056 54.2533 139.356 55.1267 139.356 56.14C139.356 57.14 139.056 58.0133 138.456 58.76C137.869 59.4933 137.049 60.0667 135.996 60.48C134.956 60.8933 133.769 61.1 132.436 61.1C131.116 61.1 129.929 60.8933 128.876 60.48C127.836 60.0667 127.016 59.4933 126.416 58.76C125.816 58.0133 125.516 57.14 125.516 56.14C125.516 55.1267 125.816 54.2533 126.416 53.52C127.016 52.7733 127.836 52.1933 128.876 51.78C129.929 51.3667 131.116 51.16 132.436 51.16ZM132.436 53.22C131.583 53.22 130.829 53.34 130.176 53.58C129.536 53.8067 129.036 54.1333 128.676 54.56C128.316 54.9867 128.136 55.5133 128.136 56.14C128.136 56.74 128.316 57.26 128.676 57.7C129.036 58.1267 129.536 58.46 130.176 58.7C130.829 58.9267 131.583 59.04 132.436 59.04C133.303 59.04 134.056 58.9267 134.696 58.7C135.349 58.46 135.849 58.1267 136.196 57.7C136.556 57.26 136.736 56.74 136.736 56.14C136.736 55.5133 136.556 54.9867 136.196 54.56C135.849 54.1333 135.349 53.8067 134.696 53.58C134.056 53.34 133.303 53.22 132.436 53.22ZM149.014 52.04H151.374V52.48C151.374 53.04 151.274 53.5733 151.074 54.08C150.874 54.5867 150.574 55.06 150.174 55.5C149.788 55.9267 149.301 56.3133 148.714 56.66C148.128 57.0067 147.448 57.2933 146.674 57.52C145.901 57.7333 145.041 57.8867 144.094 57.98L143.174 55.9C143.988 55.8333 144.708 55.72 145.334 55.56C145.974 55.3867 146.521 55.1867 146.974 54.96C147.441 54.72 147.821 54.4667 148.114 54.2C148.421 53.9333 148.648 53.6533 148.794 53.36C148.941 53.0533 149.014 52.76 149.014 52.48V52.04ZM150.314 52.04H152.654V52.48C152.654 52.7733 152.728 53.0733 152.874 53.38C153.021 53.6733 153.241 53.9533 153.534 54.22C153.841 54.4867 154.221 54.74 154.674 54.98C155.141 55.2067 155.688 55.4 156.314 55.56C156.954 55.72 157.681 55.8333 158.494 55.9L157.574 57.98C156.628 57.8867 155.768 57.7333 154.994 57.52C154.221 57.2933 153.541 57.0067 152.954 56.66C152.381 56.3133 151.894 55.9267 151.494 55.5C151.108 55.06 150.814 54.5867 150.614 54.08C150.414 53.5733 150.314 53.04 150.314 52.48V52.04ZM143.994 50.98H157.714V53.08H143.994V50.98ZM144.414 62.12H157.214V68.58H144.414V62.12ZM154.614 64.2H147.014V66.48H154.614V64.2ZM142.454 58.64H159.214V60.76H142.454V58.64ZM179.428 50.24H181.968V68.76H179.428V50.24ZM176.968 57.38H180.048V59.52H176.968V57.38ZM175.288 50.56H177.748V67.9H175.288V50.56ZM166.588 62.4H167.868C168.641 62.4 169.375 62.3933 170.068 62.38C170.761 62.3533 171.448 62.3067 172.128 62.24C172.821 62.16 173.528 62.06 174.248 61.94L174.468 64.1C173.721 64.2333 172.995 64.34 172.288 64.42C171.581 64.5 170.868 64.5533 170.148 64.58C169.428 64.5933 168.668 64.6 167.868 64.6H166.588V62.4ZM166.588 52.4H173.408V54.54H169.208V63.46H166.588V52.4ZM191.746 56.48H194.826V58.64H191.746V56.48ZM187.806 51.86H189.826V54.96C189.826 56.0133 189.753 57.0467 189.606 58.06C189.46 59.0733 189.22 60.0267 188.886 60.92C188.566 61.8133 188.14 62.62 187.606 63.34C187.086 64.0467 186.453 64.6267 185.706 65.08L184.106 63.08C184.8 62.6667 185.38 62.16 185.846 61.56C186.313 60.96 186.693 60.3 186.986 59.58C187.28 58.86 187.486 58.1133 187.606 57.34C187.74 56.5533 187.806 55.76 187.806 54.96V51.86ZM188.386 51.86H190.366V54.84C190.366 55.6 190.42 56.3533 190.526 57.1C190.646 57.8467 190.833 58.56 191.086 59.24C191.34 59.92 191.673 60.5467 192.086 61.12C192.513 61.6933 193.046 62.1867 193.686 62.6L192.226 64.68C191.506 64.2267 190.893 63.6533 190.386 62.96C189.893 62.2533 189.5 61.46 189.206 60.58C188.913 59.7 188.7 58.7733 188.566 57.8C188.446 56.8267 188.386 55.84 188.386 54.84V51.86ZM197.826 50.24H200.366V68.76H197.826V50.24ZM194.066 50.54H196.546V67.94H194.066V50.54ZM215.585 50.26H218.245V63.56H215.585V50.26ZM205.905 66.32H218.725V68.46H205.905V66.32ZM205.905 62.24H208.565V67.2H205.905V62.24ZM208.165 51.44C209.112 51.44 209.965 51.64 210.725 52.04C211.485 52.44 212.085 52.9933 212.525 53.7C212.978 54.4067 213.205 55.22 213.205 56.14C213.205 57.0333 212.978 57.84 212.525 58.56C212.085 59.2667 211.485 59.8267 210.725 60.24C209.965 60.64 209.112 60.84 208.165 60.84C207.218 60.84 206.365 60.64 205.605 60.24C204.845 59.8267 204.238 59.2667 203.785 58.56C203.345 57.84 203.125 57.0333 203.125 56.14C203.125 55.22 203.345 54.4067 203.785 53.7C204.238 52.9933 204.845 52.44 205.605 52.04C206.365 51.64 207.218 51.44 208.165 51.44ZM208.165 53.72C207.712 53.72 207.298 53.82 206.925 54.02C206.552 54.2067 206.258 54.48 206.045 54.84C205.832 55.1867 205.725 55.62 205.725 56.14C205.725 56.6333 205.832 57.06 206.045 57.42C206.258 57.7667 206.552 58.04 206.925 58.24C207.298 58.4267 207.712 58.52 208.165 58.52C208.618 58.52 209.032 58.4267 209.405 58.24C209.778 58.04 210.072 57.7667 210.285 57.42C210.498 57.06 210.605 56.6333 210.605 56.14C210.605 55.62 210.498 55.1867 210.285 54.84C210.072 54.48 209.778 54.2067 209.405 54.02C209.032 53.82 208.618 53.72 208.165 53.72ZM233.299 52.3H235.619V52.86C235.619 53.5 235.512 54.12 235.299 54.72C235.099 55.32 234.792 55.88 234.379 56.4C233.965 56.9067 233.459 57.3667 232.859 57.78C232.272 58.18 231.592 58.52 230.819 58.8C230.045 59.08 229.185 59.28 228.239 59.4L227.259 57.34C228.085 57.2333 228.819 57.0733 229.459 56.86C230.112 56.6333 230.679 56.3733 231.159 56.08C231.639 55.7733 232.039 55.4467 232.359 55.1C232.679 54.7533 232.912 54.3867 233.059 54C233.219 53.6133 233.299 53.2333 233.299 52.86V52.3ZM234.079 52.3H236.379V52.86C236.379 53.2333 236.452 53.6133 236.599 54C236.759 54.3867 236.999 54.7533 237.319 55.1C237.639 55.4467 238.039 55.7733 238.519 56.08C239.012 56.3733 239.579 56.6333 240.219 56.86C240.859 57.0733 241.592 57.2333 242.419 57.34L241.439 59.4C240.492 59.28 239.632 59.08 238.859 58.8C238.085 58.52 237.399 58.18 236.799 57.78C236.212 57.3667 235.712 56.9067 235.299 56.4C234.899 55.88 234.592 55.32 234.379 54.72C234.179 54.12 234.079 53.5 234.079 52.86V52.3ZM233.439 62H236.099V68.78H233.439V62ZM226.459 60.46H243.219V62.6H226.459V60.46ZM227.939 51.2H241.679V53.3H227.939V51.2ZM249.197 51.1H251.397V52.86C251.397 54.02 251.204 55.1333 250.817 56.2C250.43 57.2533 249.844 58.1733 249.057 58.96C248.27 59.7467 247.277 60.3333 246.077 60.72L244.777 58.6C245.55 58.36 246.217 58.04 246.777 57.64C247.337 57.2267 247.79 56.7667 248.137 56.26C248.497 55.74 248.764 55.1933 248.937 54.62C249.11 54.0333 249.197 53.4467 249.197 52.86V51.1ZM249.737 51.1H251.897V52.86C251.897 53.4333 251.984 54 252.157 54.56C252.33 55.1067 252.584 55.6267 252.917 56.12C253.264 56.6 253.71 57.0267 254.257 57.4C254.804 57.7733 255.457 58.0733 256.217 58.3L254.917 60.4C253.73 60.0267 252.75 59.4667 251.977 58.72C251.217 57.9733 250.65 57.1 250.277 56.1C249.917 55.0867 249.737 54.0067 249.737 52.86V51.1ZM247.617 62.1H260.237V68.78H257.577V64.22H247.617V62.1ZM257.577 50.26H260.237V61.3H257.577V50.26ZM270.656 57.06H273.696V59.2H270.656V57.06ZM276.616 50.24H279.156V68.76H276.616V50.24ZM272.856 50.54H275.336V67.94H272.856V50.54ZM267.416 51.54C268.229 51.54 268.936 51.8133 269.536 52.36C270.149 52.8933 270.616 53.6667 270.936 54.68C271.269 55.68 271.436 56.88 271.436 58.28C271.436 59.6667 271.269 60.8667 270.936 61.88C270.616 62.8933 270.149 63.6733 269.536 64.22C268.936 64.7533 268.222 65.02 267.396 65.02C266.596 65.02 265.889 64.7533 265.276 64.22C264.676 63.6733 264.209 62.8933 263.876 61.88C263.556 60.8667 263.396 59.6667 263.396 58.28C263.396 56.88 263.556 55.68 263.876 54.68C264.209 53.6667 264.676 52.8933 265.276 52.36C265.889 51.8133 266.602 51.54 267.416 51.54ZM267.416 54.06C267.082 54.06 266.796 54.2133 266.556 54.52C266.316 54.8267 266.129 55.2933 265.996 55.92C265.876 56.5333 265.816 57.32 265.816 58.28C265.816 59.2133 265.876 59.9933 265.996 60.62C266.129 61.2467 266.316 61.72 266.556 62.04C266.796 62.3467 267.082 62.5 267.416 62.5C267.749 62.5 268.036 62.3467 268.276 62.04C268.529 61.72 268.716 61.2467 268.836 60.62C268.956 59.9933 269.016 59.2133 269.016 58.28C269.016 57.32 268.956 56.5333 268.836 55.92C268.716 55.2933 268.529 54.8267 268.276 54.52C268.036 54.2133 267.749 54.06 267.416 54.06ZM286.829 61.24H303.609V63.4H286.829V61.24ZM293.869 61.98H296.529V68.8H293.869V61.98ZM288.909 57.8H301.849V59.9H288.909V57.8ZM288.909 50.98H301.669V53.06H291.549V58.28H288.909V50.98ZM290.789 54.4H301.269V56.42H290.789V54.4ZM309.388 53.18H311.488V55.26C311.488 56.2867 311.374 57.3133 311.148 58.34C310.934 59.3667 310.614 60.3333 310.188 61.24C309.761 62.1333 309.221 62.9333 308.568 63.64C307.928 64.3467 307.181 64.9 306.328 65.3L304.828 63.2C305.601 62.84 306.268 62.3667 306.828 61.78C307.401 61.1933 307.874 60.54 308.248 59.82C308.634 59.1 308.921 58.3533 309.108 57.58C309.294 56.7933 309.388 56.02 309.388 55.26V53.18ZM309.948 53.18H312.048V55.26C312.048 55.9533 312.141 56.6667 312.328 57.4C312.514 58.1333 312.788 58.84 313.148 59.52C313.521 60.2 313.988 60.82 314.548 61.38C315.121 61.9267 315.788 62.3733 316.548 62.72L315.068 64.84C314.214 64.44 313.468 63.9067 312.828 63.24C312.201 62.56 311.668 61.7933 311.228 60.94C310.801 60.0733 310.481 59.16 310.268 58.2C310.054 57.2267 309.948 56.2467 309.948 55.26V53.18ZM305.548 52.02H315.728V54.22H305.548V52.02ZM317.068 50.26H319.748V68.78H317.068V50.26ZM319.168 57.32H322.428V59.5H319.168V57.32ZM323.626 53.04H332.486V55.14H323.626V53.04ZM328.086 55.98C328.873 55.98 329.566 56.1667 330.166 56.54C330.78 56.9133 331.26 57.4333 331.606 58.1C331.966 58.7533 332.146 59.5133 332.146 60.38C332.146 61.2467 331.966 62.0133 331.606 62.68C331.26 63.3333 330.78 63.8467 330.166 64.22C329.566 64.5933 328.873 64.78 328.086 64.78C327.3 64.78 326.6 64.5933 325.986 64.22C325.373 63.8467 324.893 63.3333 324.546 62.68C324.2 62.0133 324.026 61.2467 324.026 60.38C324.026 59.5133 324.2 58.7533 324.546 58.1C324.893 57.4333 325.373 56.9133 325.986 56.54C326.613 56.1667 327.313 55.98 328.086 55.98ZM328.086 58.18C327.766 58.18 327.473 58.2667 327.206 58.44C326.94 58.6133 326.733 58.8667 326.586 59.2C326.44 59.52 326.366 59.9133 326.366 60.38C326.366 60.8467 326.44 61.2467 326.586 61.58C326.733 61.9133 326.94 62.1667 327.206 62.34C327.473 62.5 327.766 62.58 328.086 62.58C328.42 62.58 328.713 62.5 328.966 62.34C329.22 62.1667 329.42 61.9133 329.566 61.58C329.713 61.2467 329.786 60.8467 329.786 60.38C329.786 59.9133 329.713 59.52 329.566 59.2C329.42 58.8667 329.22 58.6133 328.966 58.44C328.713 58.2667 328.42 58.18 328.086 58.18ZM337.026 50.24H339.546V68.76H337.026V50.24ZM334.806 57.78H337.846V59.92H334.806V57.78ZM333.126 50.58H335.606V67.98H333.126V50.58ZM326.786 50.74H329.406V54.36H326.786V50.74ZM342.045 64.46H358.825V66.62H342.045V64.46ZM349.085 60.5H351.725V64.98H349.085V60.5ZM343.805 51.42H346.465V54.28H354.345V51.42H356.985V61.06H343.805V51.42ZM346.465 56.36V58.94H354.345V56.36H346.465ZM364.583 53.18H366.683V55.26C366.683 56.2867 366.57 57.3133 366.343 58.34C366.13 59.3667 365.81 60.3333 365.383 61.24C364.956 62.1333 364.416 62.9333 363.763 63.64C363.123 64.3467 362.376 64.9 361.523 65.3L360.023 63.2C360.796 62.84 361.463 62.3667 362.023 61.78C362.596 61.1933 363.07 60.54 363.443 59.82C363.83 59.1 364.116 58.3533 364.303 57.58C364.49 56.7933 364.583 56.02 364.583 55.26V53.18ZM365.143 53.18H367.243V55.26C367.243 55.9533 367.336 56.6667 367.523 57.4C367.71 58.1333 367.983 58.84 368.343 59.52C368.716 60.2 369.183 60.82 369.743 61.38C370.316 61.9267 370.983 62.3733 371.743 62.72L370.263 64.84C369.41 64.44 368.663 63.9067 368.023 63.24C367.396 62.56 366.863 61.7933 366.423 60.94C365.996 60.0733 365.676 59.16 365.463 58.2C365.25 57.2267 365.143 56.2467 365.143 55.26V53.18ZM360.743 52.02H370.923V54.22H360.743V52.02ZM372.263 50.26H374.943V68.78H372.263V50.26ZM374.363 57.32H377.623V59.5H374.363V57.32ZM382.081 62.26H379.701L379.201 52.72H382.581L382.081 62.26ZM379.161 65.6C379.161 64.9867 379.328 64.56 379.661 64.32C379.995 64.0667 380.401 63.94 380.881 63.94C381.348 63.94 381.748 64.0667 382.081 64.32C382.415 64.56 382.581 64.9867 382.581 65.6C382.581 66.1867 382.415 66.6133 382.081 66.88C381.748 67.1333 381.348 67.26 380.881 67.26C380.401 67.26 379.995 67.1333 379.661 66.88C379.328 66.6133 379.161 66.1867 379.161 65.6Z" fill="white"/>
</svg>
