<svg width="420" height="120" viewBox="0 0 420 120" fill="none" xmlns="http://www.w3.org/2000/svg">
<rect width="420" height="120" rx="10" fill="#C0D5FE"/>
<path d="M183.241 38.52C184.188 38.52 185.021 38.7933 185.741 39.34C186.474 39.8733 187.048 40.64 187.461 41.64C187.888 42.6267 188.101 43.7933 188.101 45.14C188.101 46.5 187.888 47.68 187.461 48.68C187.048 49.6667 186.474 50.4333 185.741 50.98C185.021 51.5133 184.188 51.78 183.241 51.78C182.294 51.78 181.454 51.5133 180.721 50.98C179.988 50.4333 179.408 49.6667 178.981 48.68C178.568 47.68 178.361 46.5 178.361 45.14C178.361 43.7933 178.568 42.6267 178.981 41.64C179.408 40.64 179.988 39.8733 180.721 39.34C181.454 38.7933 182.294 38.52 183.241 38.52ZM183.241 40.94C182.788 40.94 182.381 41.1 182.021 41.42C181.674 41.74 181.401 42.2133 181.201 42.84C181.014 43.4533 180.921 44.22 180.921 45.14C180.921 46.0467 181.014 46.82 181.201 47.46C181.401 48.0867 181.674 48.56 182.021 48.88C182.381 49.2 182.788 49.36 183.241 49.36C183.694 49.36 184.094 49.2 184.441 48.88C184.788 48.56 185.054 48.0867 185.241 47.46C185.441 46.82 185.541 46.0467 185.541 45.14C185.541 44.22 185.441 43.4533 185.241 42.84C185.054 42.2133 184.788 41.74 184.441 41.42C184.094 41.1 183.694 40.94 183.241 40.94ZM190.101 37.26H192.781V55.78H190.101V37.26ZM192.201 44.24H195.461V46.42H192.201V44.24ZM209.499 37.24H212.139V55.76H209.499V37.24ZM197.639 39H200.299V50.52H197.639V39ZM197.639 48.94H199.279C200.639 48.94 202.059 48.8867 203.539 48.78C205.019 48.66 206.526 48.4467 208.059 48.14L208.339 50.36C206.766 50.6933 205.213 50.92 203.679 51.04C202.159 51.1467 200.693 51.2 199.279 51.2H197.639V48.94ZM218.738 51.9C218.618 52.3667 218.464 52.8733 218.278 53.42C218.091 53.9533 217.891 54.4867 217.678 55.02C217.464 55.5667 217.244 56.0867 217.018 56.58H214.878C215.011 56.0467 215.138 55.4867 215.258 54.9C215.378 54.3267 215.491 53.76 215.598 53.2C215.704 52.64 215.791 52.1333 215.858 51.68H218.598L218.738 51.9ZM237.876 37.26H240.536V50.64H237.876V37.26ZM239.796 42.3H242.996V44.48H239.796V42.3ZM226.656 45.48H228.196C229.543 45.48 230.69 45.4667 231.636 45.44C232.596 45.4 233.45 45.34 234.196 45.26C234.956 45.18 235.703 45.06 236.436 44.9L236.696 47C235.95 47.1733 235.183 47.3067 234.396 47.4C233.623 47.48 232.743 47.54 231.756 47.58C230.77 47.6067 229.583 47.62 228.196 47.62H226.656V45.48ZM226.656 38.72H234.956V40.84H229.316V46.6H226.656V38.72ZM228.596 53.32H241.196V55.46H228.596V53.32ZM228.596 49.22H231.276V54.4H228.596V49.22ZM257.135 37.24H259.795V55.76H257.135V37.24ZM251.675 39.16H254.295C254.295 40.5733 254.155 41.9267 253.875 43.22C253.608 44.5 253.155 45.7067 252.515 46.84C251.888 47.9733 251.021 49.0267 249.915 50C248.821 50.96 247.455 51.84 245.815 52.64L244.415 50.54C246.201 49.6733 247.621 48.72 248.675 47.68C249.741 46.6267 250.508 45.44 250.975 44.12C251.441 42.7867 251.675 41.2933 251.675 39.64V39.16ZM245.415 39.16H252.915V41.28H245.415V39.16ZM281.328 37.24H283.868V55.76H281.328V37.24ZM279.108 44.32H282.188V46.44H279.108V44.32ZM277.288 37.54H279.768V54.94H277.288V37.54ZM268.488 39.14H275.788V51.14H268.488V39.14ZM273.328 41.22H270.968V49.08H273.328V41.22ZM299.727 37.24H302.267V55.76H299.727V37.24ZM297.507 44.32H300.587V46.44H297.507V44.32ZM295.687 37.54H298.167V54.94H295.687V37.54ZM286.887 39.14H294.187V51.14H286.887V39.14ZM291.727 41.22H289.367V49.08H291.727V41.22ZM304.765 51.58H321.545V53.74H304.765V51.58ZM311.805 48.06H314.445V52.44H311.805V48.06ZM306.665 38.44H319.645V44.62H309.325V47.72H306.685V42.54H317.005V40.56H306.665V38.44ZM306.685 46.68H320.065V48.8H306.685V46.68ZM138.579 66.48H140.439V67.52C140.439 68.1467 140.379 68.7733 140.259 69.4C140.152 70.0133 139.972 70.6 139.719 71.16C139.466 71.7067 139.126 72.2 138.699 72.64C138.272 73.08 137.746 73.44 137.119 73.72L135.879 71.82C136.532 71.5267 137.052 71.1467 137.439 70.68C137.839 70.2133 138.126 69.7067 138.299 69.16C138.486 68.6 138.579 68.0533 138.579 67.52V66.48ZM139.279 66.48H141.059V67.52C141.059 67.8933 141.092 68.2867 141.159 68.7C141.239 69.1133 141.359 69.5267 141.519 69.94C141.692 70.34 141.926 70.72 142.219 71.08C142.512 71.4267 142.872 71.7267 143.299 71.98L142.279 73.92C141.666 73.6133 141.159 73.22 140.759 72.74C140.372 72.26 140.066 71.7267 139.839 71.14C139.626 70.5533 139.479 69.9467 139.399 69.32C139.319 68.6933 139.279 68.0933 139.279 67.52V66.48ZM143.499 66.48H145.259V67.52C145.259 68.1067 145.212 68.7133 145.119 69.34C145.039 69.9667 144.892 70.5733 144.679 71.16C144.466 71.7333 144.166 72.26 143.779 72.74C143.392 73.22 142.892 73.6133 142.279 73.92L141.239 71.98C141.666 71.7267 142.026 71.4267 142.319 71.08C142.612 70.72 142.846 70.3467 143.019 69.96C143.192 69.56 143.312 69.1533 143.379 68.74C143.459 68.3133 143.499 67.9067 143.499 67.52V66.48ZM144.119 66.48H145.979V67.52C145.979 68.0667 146.066 68.62 146.239 69.18C146.426 69.7267 146.719 70.2333 147.119 70.7C147.519 71.1533 148.039 71.5267 148.679 71.82L147.459 73.72C146.619 73.3467 145.959 72.84 145.479 72.2C144.999 71.5467 144.652 70.8133 144.439 70C144.226 69.1867 144.119 68.36 144.119 67.52V66.48ZM136.599 65.12H141.979V67.2H136.599V65.12ZM142.599 65.12H147.839V67.2H142.599V65.12ZM145.179 74.74H147.559V76.7H149.039V74.74H151.419V82.66H145.179V74.74ZM147.559 78.62V80.64H149.039V78.62H147.559ZM148.739 64.26H151.419V73.94H148.739V64.26ZM149.759 67.8H153.279V69.98H149.759V67.8ZM138.239 74.9H144.199V79.6H140.819V81.6H138.259V77.8H141.639V76.8H138.239V74.9ZM138.259 80.72H139.339C140.139 80.72 140.826 80.7133 141.399 80.7C141.986 80.6867 142.519 80.66 142.999 80.62C143.492 80.58 143.999 80.5133 144.519 80.42L144.719 82.34C144.186 82.4333 143.666 82.5 143.159 82.54C142.652 82.5933 142.092 82.6267 141.479 82.64C140.879 82.6533 140.166 82.66 139.339 82.66H138.259V80.72ZM156.397 65.82H168.117V67.94H156.397V65.82ZM154.677 78.38H171.437V80.54H154.677V78.38ZM160.597 72.02H163.277V79.46H160.597V72.02ZM167.157 65.82H169.837V67.58C169.837 68.3533 169.824 69.1733 169.797 70.04C169.784 70.9067 169.724 71.8667 169.617 72.92C169.524 73.9733 169.351 75.1533 169.097 76.46L166.437 76.18C166.811 74.3267 167.024 72.7133 167.077 71.34C167.131 69.9533 167.157 68.7 167.157 67.58V65.82ZM180.331 64.92H192.051V67.04H180.331V64.92ZM178.271 70.64H195.031V72.78H178.271V70.64ZM185.311 71.44H187.951V75.06H185.311V71.44ZM190.451 64.92H193.071V66.18C193.071 66.8467 193.051 67.6067 193.011 68.46C192.971 69.3133 192.831 70.2667 192.591 71.32L189.971 71.08C190.211 70.0267 190.351 69.1133 190.391 68.34C190.431 67.5533 190.451 66.8333 190.451 66.18V64.92ZM180.011 80.7H181.231C182.125 80.7 182.885 80.7 183.511 80.7C184.138 80.6867 184.678 80.6733 185.131 80.66C185.598 80.6333 186.011 80.5933 186.371 80.54C186.731 80.4733 187.085 80.4 187.431 80.32L187.691 82.24C187.318 82.3333 186.945 82.4067 186.571 82.46C186.198 82.5133 185.771 82.5533 185.291 82.58C184.811 82.6067 184.245 82.6267 183.591 82.64C182.938 82.6533 182.151 82.66 181.231 82.66H180.011V80.7ZM179.971 74.84H186.211V79.64H182.571V82.06H180.011V77.8H183.651V76.8H179.971V74.84ZM187.111 74.84H193.131V82.74H190.511V76.94H187.111V74.84ZM210.07 64.24H212.61V82.76H210.07V64.24ZM202.75 71.34H206.69V73.46H202.75V71.34ZM206.17 64.64H208.65V81.94H206.17V64.64ZM202.15 66.42H204.71C204.71 68.18 204.503 69.82 204.09 71.34C203.676 72.86 202.976 74.2533 201.99 75.52C201.016 76.7867 199.663 77.92 197.93 78.92L196.43 77.06C197.83 76.22 198.943 75.3067 199.77 74.32C200.61 73.32 201.216 72.22 201.59 71.02C201.963 69.8067 202.15 68.4533 202.15 66.96V66.42ZM197.45 66.42H202.97V68.56H197.45V66.42ZM227.243 64.78H229.563V65.66C229.563 66.3667 229.45 67.0533 229.223 67.72C229.01 68.3733 228.69 68.9867 228.263 69.56C227.837 70.1333 227.317 70.6467 226.703 71.1C226.09 71.5533 225.377 71.94 224.563 72.26C223.763 72.5667 222.883 72.8 221.923 72.96L220.883 70.82C221.737 70.7133 222.497 70.5333 223.163 70.28C223.843 70.0267 224.437 69.7267 224.943 69.38C225.463 69.0333 225.89 68.6533 226.223 68.24C226.557 67.8267 226.81 67.4 226.983 66.96C227.157 66.52 227.243 66.0867 227.243 65.66V64.78ZM227.743 64.78H230.063V65.66C230.063 66.0867 230.15 66.52 230.323 66.96C230.497 67.4 230.75 67.8267 231.083 68.24C231.417 68.6533 231.837 69.0333 232.343 69.38C232.863 69.7267 233.457 70.0267 234.123 70.28C234.803 70.5333 235.57 70.7133 236.423 70.82L235.383 72.96C234.41 72.8 233.523 72.5667 232.723 72.26C231.923 71.94 231.217 71.5533 230.603 71.1C229.99 70.6333 229.47 70.1133 229.043 69.54C228.617 68.9667 228.29 68.3533 228.063 67.7C227.85 67.0467 227.743 66.3667 227.743 65.66V64.78ZM227.243 75.98H229.903V82.78H227.243V75.98ZM220.263 74.3H237.023V76.46H220.263V74.3ZM241.422 75.98H254.042V82.78H251.382V78.1H241.422V75.98ZM251.382 64.26H254.042V75.12H251.382V64.26ZM243.962 65.26C244.922 65.26 245.782 65.46 246.542 65.86C247.302 66.2467 247.902 66.78 248.342 67.46C248.782 68.1267 249.002 68.9 249.002 69.78C249.002 70.6733 248.782 71.46 248.342 72.14C247.902 72.82 247.302 73.3533 246.542 73.74C245.782 74.1267 244.922 74.32 243.962 74.32C243.015 74.32 242.155 74.1267 241.382 73.74C240.622 73.3533 240.022 72.82 239.582 72.14C239.142 71.46 238.922 70.6733 238.922 69.78C238.922 68.9 239.142 68.1267 239.582 67.46C240.022 66.78 240.622 66.2467 241.382 65.86C242.155 65.46 243.015 65.26 243.962 65.26ZM243.962 67.5C243.508 67.5 243.095 67.5933 242.722 67.78C242.348 67.9533 242.055 68.2133 241.842 68.56C241.628 68.8933 241.522 69.3 241.522 69.78C241.522 70.2733 241.628 70.6933 241.842 71.04C242.055 71.3733 242.348 71.6333 242.722 71.82C243.095 71.9933 243.508 72.08 243.962 72.08C244.428 72.08 244.842 71.9933 245.202 71.82C245.575 71.6333 245.868 71.3733 246.082 71.04C246.295 70.6933 246.402 70.2733 246.402 69.78C246.402 69.3 246.295 68.8933 246.082 68.56C245.868 68.2133 245.575 67.9533 245.202 67.78C244.842 67.5933 244.428 67.5 243.962 67.5ZM275.576 64.24H278.096V82.76H275.576V64.24ZM273.156 71.38H276.236V73.52H273.156V71.38ZM271.436 64.56H273.916V81.9H271.436V64.56ZM262.976 66.3H265.636V77H262.976V66.3ZM262.976 75.98H264.256C265.149 75.98 266.109 75.9533 267.136 75.9C268.176 75.8333 269.269 75.6867 270.416 75.46L270.656 77.74C269.456 77.9533 268.322 78.0933 267.256 78.16C266.189 78.2267 265.189 78.26 264.256 78.26H262.976V75.98ZM282.714 69.24H295.554V71.36H282.714V69.24ZM280.654 73.28H297.414V75.4H280.654V73.28ZM282.714 64.9H285.374V70.3H282.714V64.9ZM282.554 80.24H295.654V82.38H282.554V80.24ZM282.554 76.86H285.214V80.82H282.554V76.86ZM317.648 64.24H320.188V82.76H317.648V64.24ZM310.328 71.34H314.268V73.46H310.328V71.34ZM313.748 64.64H316.228V81.94H313.748V64.64ZM309.728 66.42H312.288C312.288 68.18 312.081 69.82 311.668 71.34C311.254 72.86 310.554 74.2533 309.568 75.52C308.594 76.7867 307.241 77.92 305.508 78.92L304.008 77.06C305.408 76.22 306.521 75.3067 307.348 74.32C308.188 73.32 308.794 72.22 309.168 71.02C309.541 69.8067 309.728 68.4533 309.728 66.96V66.42ZM305.028 66.42H310.548V68.56H305.028V66.42ZM332.581 74.32H335.241V78.14H332.581V74.32ZM332.561 67.72H334.681V68.12C334.681 69.16 334.488 70.1333 334.101 71.04C333.728 71.9467 333.161 72.7333 332.401 73.4C331.641 74.0667 330.668 74.56 329.481 74.88L328.301 72.82C329.288 72.5667 330.095 72.2 330.721 71.72C331.348 71.2267 331.808 70.6733 332.101 70.06C332.408 69.4333 332.561 68.7867 332.561 68.12V67.72ZM333.121 67.72H335.261V68.12C335.261 68.76 335.408 69.38 335.701 69.98C336.008 70.58 336.475 71.1133 337.101 71.58C337.741 72.0467 338.555 72.4067 339.541 72.66L338.361 74.7C337.188 74.3933 336.208 73.92 335.421 73.28C334.648 72.6267 334.068 71.86 333.681 70.98C333.308 70.0867 333.121 69.1333 333.121 68.12V67.72ZM328.841 66.42H339.001V68.52H328.841V66.42ZM332.581 64.4H335.241V67.36H332.581V64.4ZM340.621 64.22H343.281V82.8H340.621V64.22ZM328.221 79.36L327.921 77.2C329.001 77.2 330.195 77.1933 331.501 77.18C332.821 77.1533 334.175 77.1 335.561 77.02C336.961 76.9267 338.315 76.7867 339.621 76.6L339.801 78.54C338.468 78.7933 337.115 78.98 335.741 79.1C334.368 79.22 333.041 79.2933 331.761 79.32C330.481 79.3333 329.301 79.3467 328.221 79.36ZM347.96 65.82H359.68V67.94H347.96V65.82ZM346.24 78.38H363V80.54H346.24V78.38ZM352.16 72.02H354.84V79.46H352.16V72.02ZM358.72 65.82H361.4V67.58C361.4 68.3533 361.387 69.1733 361.36 70.04C361.347 70.9067 361.287 71.8667 361.18 72.92C361.087 73.9733 360.913 75.1533 360.66 76.46L358 76.18C358.373 74.3267 358.587 72.7133 358.64 71.34C358.693 69.9533 358.72 68.7 358.72 67.58V65.82ZM367.878 76.26H365.498L364.998 66.72H368.378L367.878 76.26ZM364.958 79.6C364.958 78.9867 365.125 78.56 365.458 78.32C365.792 78.0667 366.198 77.94 366.678 77.94C367.145 77.94 367.545 78.0667 367.878 78.32C368.212 78.56 368.378 78.9867 368.378 79.6C368.378 80.1867 368.212 80.6133 367.878 80.88C367.545 81.1333 367.145 81.26 366.678 81.26C366.198 81.26 365.792 81.1333 365.458 80.88C365.125 80.6133 364.958 80.1867 364.958 79.6Z" fill="white"/>
</svg>
