<svg width="420" height="120" viewBox="0 0 420 120" fill="none" xmlns="http://www.w3.org/2000/svg">
<rect width="420" height="120" rx="10" fill="#FFA163"/>
<path d="M234.983 38.42H243.823V46.6H234.983V38.42ZM241.203 40.54H237.603V44.48H241.203V40.54ZM246.363 37.26H249.023V47.62H246.363V37.26ZM248.303 41.26H251.483V43.44H248.303V41.26ZM241.643 49.48H243.903V49.92C243.903 50.6267 243.756 51.3 243.463 51.94C243.169 52.58 242.729 53.16 242.143 53.68C241.569 54.1867 240.849 54.6133 239.983 54.96C239.129 55.32 238.143 55.5733 237.023 55.72L236.063 53.7C237.036 53.58 237.869 53.3933 238.563 53.14C239.269 52.8867 239.849 52.5867 240.303 52.24C240.756 51.8933 241.089 51.52 241.303 51.12C241.529 50.7067 241.643 50.3067 241.643 49.92V49.48ZM242.243 49.48H244.483V49.92C244.483 50.3067 244.596 50.7 244.823 51.1C245.049 51.4867 245.389 51.86 245.843 52.22C246.309 52.5667 246.889 52.8733 247.583 53.14C248.276 53.4067 249.096 53.6 250.043 53.72L249.103 55.74C247.983 55.5933 246.996 55.34 246.143 54.98C245.289 54.62 244.569 54.18 243.983 53.66C243.409 53.14 242.976 52.56 242.683 51.92C242.389 51.28 242.243 50.6133 242.243 49.92V49.48ZM236.863 48.48H249.263V50.58H236.863V48.48ZM257.821 38.52C258.768 38.52 259.601 38.7933 260.321 39.34C261.054 39.8733 261.628 40.64 262.041 41.64C262.468 42.6267 262.681 43.7933 262.681 45.14C262.681 46.5 262.468 47.68 262.041 48.68C261.628 49.6667 261.054 50.4333 260.321 50.98C259.601 51.5133 258.768 51.78 257.821 51.78C256.874 51.78 256.034 51.5133 255.301 50.98C254.568 50.4333 253.988 49.6667 253.561 48.68C253.148 47.68 252.941 46.5 252.941 45.14C252.941 43.7933 253.148 42.6267 253.561 41.64C253.988 40.64 254.568 39.8733 255.301 39.34C256.034 38.7933 256.874 38.52 257.821 38.52ZM257.821 40.94C257.368 40.94 256.961 41.1 256.601 41.42C256.254 41.74 255.981 42.2133 255.781 42.84C255.594 43.4533 255.501 44.22 255.501 45.14C255.501 46.0467 255.594 46.82 255.781 47.46C255.981 48.0867 256.254 48.56 256.601 48.88C256.961 49.2 257.368 49.36 257.821 49.36C258.274 49.36 258.674 49.2 259.021 48.88C259.368 48.56 259.634 48.0867 259.821 47.46C260.021 46.82 260.121 46.0467 260.121 45.14C260.121 44.22 260.021 43.4533 259.821 42.84C259.634 42.2133 259.368 41.74 259.021 41.42C258.674 41.1 258.274 40.94 257.821 40.94ZM264.681 37.26H267.361V55.78H264.681V37.26ZM266.781 44.24H270.041V46.42H266.781V44.24ZM274.499 49.26H272.119L271.619 39.72H274.999L274.499 49.26ZM271.579 52.6C271.579 51.9867 271.746 51.56 272.079 51.32C272.413 51.0667 272.819 50.94 273.299 50.94C273.766 50.94 274.166 51.0667 274.499 51.32C274.833 51.56 274.999 51.9867 274.999 52.6C274.999 53.1867 274.833 53.6133 274.499 53.88C274.166 54.1333 273.766 54.26 273.299 54.26C272.819 54.26 272.413 54.1333 272.079 53.88C271.746 53.6133 271.579 53.1867 271.579 52.6ZM122.997 66.32H125.177V67.48C125.177 68.6533 124.983 69.7667 124.597 70.82C124.223 71.8733 123.65 72.8 122.877 73.6C122.103 74.3867 121.123 74.9733 119.937 75.36L118.617 73.26C119.63 72.9267 120.457 72.46 121.097 71.86C121.75 71.2467 122.23 70.56 122.537 69.8C122.843 69.0267 122.997 68.2533 122.997 67.48V66.32ZM123.537 66.32H125.677V67.48C125.677 68.2 125.823 68.9 126.117 69.58C126.41 70.2467 126.863 70.8467 127.477 71.38C128.103 71.9133 128.917 72.3333 129.917 72.64L128.637 74.72C127.463 74.3733 126.497 73.84 125.737 73.12C124.99 72.3867 124.437 71.54 124.077 70.58C123.717 69.6067 123.537 68.5733 123.537 67.48V66.32ZM119.297 65.48H129.317V67.6H119.297V65.48ZM130.777 64.26H133.437V75.24H130.777V64.26ZM132.717 68.5H135.897V70.68H132.717V68.5ZM127.397 75.56C128.69 75.56 129.803 75.7067 130.737 76C131.67 76.28 132.39 76.6867 132.897 77.22C133.403 77.7533 133.657 78.4 133.657 79.16C133.657 79.92 133.403 80.5667 132.897 81.1C132.39 81.6467 131.67 82.06 130.737 82.34C129.803 82.6333 128.69 82.78 127.397 82.78C126.117 82.78 125.003 82.6333 124.057 82.34C123.123 82.06 122.397 81.6467 121.877 81.1C121.37 80.5667 121.117 79.92 121.117 79.16C121.117 78.4 121.37 77.7533 121.877 77.22C122.397 76.6867 123.123 76.28 124.057 76C125.003 75.7067 126.117 75.56 127.397 75.56ZM127.397 77.64C126.61 77.64 125.95 77.6933 125.417 77.8C124.883 77.9067 124.477 78.0733 124.197 78.3C123.917 78.5267 123.777 78.8133 123.777 79.16C123.777 79.52 123.917 79.8133 124.197 80.04C124.477 80.2667 124.883 80.44 125.417 80.56C125.95 80.6667 126.61 80.72 127.397 80.72C128.183 80.72 128.843 80.6667 129.377 80.56C129.923 80.44 130.33 80.2667 130.597 80.04C130.877 79.8133 131.017 79.52 131.017 79.16C131.017 78.8133 130.877 78.5267 130.597 78.3C130.33 78.0733 129.923 77.9067 129.377 77.8C128.843 77.6933 128.183 77.64 127.397 77.64ZM150.035 64.24H152.695V82.76H150.035V64.24ZM144.575 66.16H147.195C147.195 67.5733 147.055 68.9267 146.775 70.22C146.508 71.5 146.055 72.7067 145.415 73.84C144.788 74.9733 143.922 76.0267 142.815 77C141.722 77.96 140.355 78.84 138.715 79.64L137.315 77.54C139.102 76.6733 140.522 75.72 141.575 74.68C142.642 73.6267 143.408 72.44 143.875 71.12C144.342 69.7867 144.575 68.2933 144.575 66.64V66.16ZM138.315 66.16H145.815V68.28H138.315V66.16ZM155.654 75.24H172.434V77.4H155.654V75.24ZM162.694 75.98H165.354V82.8H162.694V75.98ZM157.734 71.8H170.674V73.9H157.734V71.8ZM157.734 64.98H170.494V67.06H160.374V72.28H157.734V64.98ZM159.614 68.4H170.094V70.42H159.614V68.4ZM178.212 67.18H180.312V69.26C180.312 70.2867 180.199 71.3133 179.972 72.34C179.759 73.3667 179.439 74.3333 179.012 75.24C178.585 76.1333 178.045 76.9333 177.392 77.64C176.752 78.3467 176.005 78.9 175.152 79.3L173.652 77.2C174.425 76.84 175.092 76.3667 175.652 75.78C176.225 75.1933 176.699 74.54 177.072 73.82C177.459 73.1 177.745 72.3533 177.932 71.58C178.119 70.7933 178.212 70.02 178.212 69.26V67.18ZM178.772 67.18H180.872V69.26C180.872 69.9533 180.965 70.6667 181.152 71.4C181.339 72.1333 181.612 72.84 181.972 73.52C182.345 74.2 182.812 74.82 183.372 75.38C183.945 75.9267 184.612 76.3733 185.372 76.72L183.892 78.84C183.039 78.44 182.292 77.9067 181.652 77.24C181.025 76.56 180.492 75.7933 180.052 74.94C179.625 74.0733 179.305 73.16 179.092 72.2C178.879 71.2267 178.772 70.2467 178.772 69.26V67.18ZM174.372 66.02H184.552V68.22H174.372V66.02ZM185.892 64.26H188.572V82.78H185.892V64.26ZM187.992 71.32H191.252V73.5H187.992V71.32ZM192.47 78.58H209.25V80.74H192.47V78.58ZM199.51 75.06H202.15V79.44H199.51V75.06ZM194.37 65.44H207.35V71.62H197.03V74.72H194.39V69.54H204.71V67.56H194.37V65.44ZM194.39 73.68H207.77V75.8H194.39V73.68ZM216.044 73.4H232.804V75.52H216.044V73.4ZM223.084 71.04H225.724V73.84H223.084V71.04ZM217.904 76.8H230.784V82.78H228.124V78.88H217.904V76.8ZM218.184 64.72H220.804V66.34H228.044V64.72H230.684V71.86H218.184V64.72ZM220.804 68.34V69.78H228.044V68.34H220.804ZM247.203 64.22H249.883V82.8H247.203V64.22ZM235.463 76.32H237.103C238.196 76.32 239.229 76.3067 240.203 76.28C241.176 76.24 242.129 76.18 243.063 76.1C243.996 76.0067 244.949 75.8733 245.923 75.7L246.203 77.84C244.709 78.1067 243.236 78.2867 241.783 78.38C240.343 78.46 238.783 78.5 237.103 78.5H235.463V76.32ZM235.423 65.8H244.163V72.98H238.163V77.14H235.463V70.88H241.463V67.94H235.423V65.8ZM258.821 65.48C259.781 65.48 260.648 65.6733 261.421 66.06C262.194 66.4467 262.801 66.9867 263.241 67.68C263.681 68.36 263.901 69.1467 263.901 70.04C263.901 70.92 263.681 71.7067 263.241 72.4C262.801 73.0933 262.194 73.6333 261.421 74.02C260.648 74.4067 259.781 74.6 258.821 74.6C257.848 74.6 256.974 74.4067 256.201 74.02C255.428 73.6333 254.814 73.0933 254.361 72.4C253.921 71.7067 253.701 70.92 253.701 70.04C253.701 69.1467 253.921 68.36 254.361 67.68C254.814 66.9867 255.428 66.4467 256.201 66.06C256.974 65.6733 257.848 65.48 258.821 65.48ZM258.821 67.76C258.341 67.76 257.908 67.8533 257.521 68.04C257.148 68.2133 256.848 68.4733 256.621 68.82C256.408 69.1533 256.301 69.56 256.301 70.04C256.301 70.52 256.408 70.9333 256.621 71.28C256.848 71.6267 257.148 71.8933 257.521 72.08C257.908 72.2533 258.341 72.34 258.821 72.34C259.288 72.34 259.708 72.2533 260.081 72.08C260.454 71.8933 260.748 71.6267 260.961 71.28C261.188 70.9333 261.301 70.52 261.301 70.04C261.301 69.56 261.188 69.1533 260.961 68.82C260.748 68.4733 260.454 68.2133 260.081 68.04C259.708 67.8533 259.288 67.76 258.821 67.76ZM265.641 64.22H268.301V82.8H265.641V64.22ZM253.241 79.06L252.941 76.9C254.021 76.9 255.214 76.8933 256.521 76.88C257.841 76.8533 259.194 76.8 260.581 76.72C261.981 76.6267 263.334 76.4867 264.641 76.3L264.821 78.22C263.488 78.4867 262.134 78.68 260.761 78.8C259.388 78.9067 258.061 78.98 256.781 79.02C255.501 79.0467 254.321 79.06 253.241 79.06ZM289.175 64.26H291.835V75.44H289.175V64.26ZM279.515 76.22H291.835V82.58H279.515V76.22ZM289.235 78.3H282.135V80.48H289.235V78.3ZM276.675 65.9H287.815V68H276.675V65.9ZM282.255 68.56C283.175 68.56 283.981 68.7 284.675 68.98C285.368 69.2467 285.908 69.6333 286.295 70.14C286.695 70.6333 286.895 71.2133 286.895 71.88C286.895 72.56 286.695 73.1533 286.295 73.66C285.908 74.1533 285.368 74.54 284.675 74.82C283.981 75.0867 283.175 75.22 282.255 75.22C281.335 75.22 280.521 75.08 279.815 74.8C279.121 74.52 278.581 74.1333 278.195 73.64C277.808 73.1467 277.615 72.56 277.615 71.88C277.615 71.2133 277.808 70.6333 278.195 70.14C278.581 69.6333 279.121 69.2467 279.815 68.98C280.521 68.7 281.335 68.56 282.255 68.56ZM282.255 70.5C281.601 70.5 281.081 70.62 280.695 70.86C280.321 71.0867 280.135 71.4267 280.135 71.88C280.135 72.3467 280.321 72.7 280.695 72.94C281.081 73.1667 281.601 73.28 282.255 73.28C282.908 73.28 283.421 73.1667 283.795 72.94C284.168 72.7 284.355 72.3467 284.355 71.88C284.355 71.4267 284.168 71.0867 283.795 70.86C283.421 70.62 282.908 70.5 282.255 70.5ZM280.895 64.12H283.575V67.28H280.895V64.12ZM303.233 64.5C305.34 64.5 306.98 64.7733 308.153 65.32C309.34 65.8667 309.933 66.6533 309.933 67.68C309.933 68.6933 309.34 69.4733 308.153 70.02C306.98 70.5667 305.34 70.84 303.233 70.84C301.113 70.84 299.46 70.5667 298.273 70.02C297.1 69.4733 296.513 68.6933 296.513 67.68C296.513 66.6533 297.1 65.8667 298.273 65.32C299.46 64.7733 301.113 64.5 303.233 64.5ZM303.213 66.46C302.333 66.46 301.6 66.5067 301.013 66.6C300.427 66.68 299.987 66.8133 299.693 67C299.413 67.1733 299.273 67.4 299.273 67.68C299.273 67.96 299.413 68.1933 299.693 68.38C299.987 68.5533 300.427 68.68 301.013 68.76C301.6 68.84 302.333 68.88 303.213 68.88C304.107 68.88 304.847 68.84 305.433 68.76C306.02 68.68 306.453 68.5533 306.733 68.38C307.013 68.1933 307.153 67.96 307.153 67.68C307.153 67.4 307.013 67.1733 306.733 67C306.453 66.8133 306.02 66.68 305.433 66.6C304.847 66.5067 304.107 66.46 303.213 66.46ZM294.833 71.7H311.593V73.8H294.833V71.7ZM296.753 74.84H309.553V79.58H299.413V81.22H296.773V77.74H306.933V76.8H296.753V74.84ZM296.773 80.64H310.053V82.66H296.773V80.64ZM319.367 65.36H328.347V73.7H319.367V65.36ZM325.747 67.46H321.987V71.58H325.747V67.46ZM331.167 64.26H333.827V74.68H331.167V64.26ZM321.547 75.58H333.927V77.68H324.187V81.64H321.547V75.58ZM321.547 80.46H334.247V82.58H321.547V80.46ZM341.905 65.52C342.825 65.52 343.645 65.7933 344.365 66.34C345.099 66.8733 345.665 67.64 346.065 68.64C346.479 69.6267 346.685 70.7933 346.685 72.14C346.685 73.5 346.479 74.68 346.065 75.68C345.665 76.6667 345.099 77.4333 344.365 77.98C343.645 78.5133 342.825 78.78 341.905 78.78C340.985 78.78 340.165 78.5133 339.445 77.98C338.725 77.4333 338.159 76.6667 337.745 75.68C337.332 74.68 337.125 73.5 337.125 72.14C337.125 70.7933 337.332 69.6267 337.745 68.64C338.159 67.64 338.725 66.8733 339.445 66.34C340.165 65.7933 340.985 65.52 341.905 65.52ZM341.905 67.94C341.465 67.94 341.072 68.1 340.725 68.42C340.392 68.74 340.132 69.2133 339.945 69.84C339.759 70.4533 339.665 71.22 339.665 72.14C339.665 73.0467 339.759 73.82 339.945 74.46C340.132 75.0867 340.392 75.56 340.725 75.88C341.072 76.2 341.465 76.36 341.905 76.36C342.372 76.36 342.772 76.2 343.105 75.88C343.439 75.56 343.699 75.0867 343.885 74.46C344.072 73.82 344.165 73.0467 344.165 72.14C344.165 71.22 344.072 70.4533 343.885 69.84C343.699 69.2133 343.439 68.74 343.105 68.42C342.772 68.1 342.372 67.94 341.905 67.94ZM349.725 64.22H352.385V82.8H349.725V64.22ZM345.905 70.92H350.845V73.04H345.905V70.92ZM360.204 65.52C361.15 65.52 361.984 65.7933 362.704 66.34C363.437 66.8733 364.01 67.64 364.424 68.64C364.85 69.6267 365.064 70.7933 365.064 72.14C365.064 73.5 364.85 74.68 364.424 75.68C364.01 76.6667 363.437 77.4333 362.704 77.98C361.984 78.5133 361.15 78.78 360.204 78.78C359.257 78.78 358.417 78.5133 357.684 77.98C356.95 77.4333 356.37 76.6667 355.944 75.68C355.53 74.68 355.324 73.5 355.324 72.14C355.324 70.7933 355.53 69.6267 355.944 68.64C356.37 67.64 356.95 66.8733 357.684 66.34C358.417 65.7933 359.257 65.52 360.204 65.52ZM360.204 67.94C359.75 67.94 359.344 68.1 358.984 68.42C358.637 68.74 358.364 69.2133 358.164 69.84C357.977 70.4533 357.884 71.22 357.884 72.14C357.884 73.0467 357.977 73.82 358.164 74.46C358.364 75.0867 358.637 75.56 358.984 75.88C359.344 76.2 359.75 76.36 360.204 76.36C360.657 76.36 361.057 76.2 361.404 75.88C361.75 75.56 362.017 75.0867 362.204 74.46C362.404 73.82 362.504 73.0467 362.504 72.14C362.504 71.22 362.404 70.4533 362.204 69.84C362.017 69.2133 361.75 68.74 361.404 68.42C361.057 68.1 360.657 67.94 360.204 67.94ZM369.024 68.56H372.284V70.74H369.024V68.56ZM369.024 73.98H372.284V76.16H369.024V73.98ZM367.064 64.26H369.744V82.78H367.064V64.26ZM378.102 67.18H380.222V69.26C380.222 70.3267 380.109 71.3733 379.882 72.4C379.669 73.4267 379.342 74.3933 378.902 75.3C378.476 76.1933 377.936 76.9867 377.282 77.68C376.629 78.36 375.869 78.9 375.002 79.3L373.482 77.2C374.256 76.84 374.929 76.3733 375.502 75.8C376.089 75.2267 376.569 74.5867 376.942 73.88C377.329 73.16 377.616 72.4067 377.802 71.62C378.002 70.82 378.102 70.0333 378.102 69.26V67.18ZM378.682 67.18H380.782V69.26C380.782 69.9933 380.876 70.74 381.062 71.5C381.262 72.2467 381.549 72.96 381.922 73.64C382.296 74.3067 382.769 74.9067 383.342 75.44C383.916 75.9733 384.596 76.4 385.382 76.72L383.922 78.84C383.042 78.4533 382.276 77.9333 381.622 77.28C380.969 76.6267 380.422 75.8733 379.982 75.02C379.542 74.1667 379.216 73.2533 379.002 72.28C378.789 71.2933 378.682 70.2867 378.682 69.26V67.18ZM374.222 66.02H384.622V68.22H374.222V66.02ZM386.342 64.26H389.002V82.78H386.342V64.26ZM395.281 76.26H392.901L392.401 66.72H395.781L395.281 76.26ZM392.361 79.6C392.361 78.9867 392.527 78.56 392.861 78.32C393.194 78.0667 393.601 77.94 394.081 77.94C394.547 77.94 394.947 78.0667 395.281 78.32C395.614 78.56 395.781 78.9867 395.781 79.6C395.781 80.1867 395.614 80.6133 395.281 80.88C394.947 81.1333 394.547 81.26 394.081 81.26C393.601 81.26 393.194 81.1333 392.861 80.88C392.527 80.6133 392.361 80.1867 392.361 79.6Z" fill="white"/>
</svg>
