<svg width="420" height="120" viewBox="0 0 420 120" fill="none" xmlns="http://www.w3.org/2000/svg">
<rect width="420" height="120" rx="10" fill="#C0D5FE"/>
<path d="M158.024 37.78C158.984 37.78 159.831 37.9667 160.564 38.34C161.311 38.7 161.897 39.2 162.324 39.84C162.764 40.4667 162.984 41.1933 162.984 42.02C162.984 42.8467 162.764 43.58 162.324 44.22C161.897 44.8467 161.311 45.34 160.564 45.7C159.831 46.06 158.984 46.24 158.024 46.24C157.091 46.24 156.251 46.06 155.504 45.7C154.757 45.34 154.164 44.8467 153.724 44.22C153.297 43.58 153.084 42.8467 153.084 42.02C153.084 41.1933 153.297 40.46 153.724 39.82C154.164 39.18 154.757 38.68 155.504 38.32C156.251 37.96 157.091 37.78 158.024 37.78ZM158.044 39.94C157.591 39.94 157.184 40.0267 156.824 40.2C156.464 40.36 156.177 40.5933 155.964 40.9C155.764 41.2067 155.664 41.58 155.664 42.02C155.664 42.46 155.764 42.84 155.964 43.16C156.177 43.4667 156.457 43.7 156.804 43.86C157.164 44.02 157.577 44.1 158.044 44.1C158.497 44.1 158.897 44.02 159.244 43.86C159.604 43.7 159.884 43.4667 160.084 43.16C160.297 42.84 160.404 42.46 160.404 42.02C160.404 41.58 160.297 41.2067 160.084 40.9C159.884 40.5933 159.604 40.36 159.244 40.2C158.884 40.0267 158.484 39.94 158.044 39.94ZM165.544 37.26H168.204V46.52H165.544V37.26ZM155.864 47.28H168.204V52.34H158.504V54.6H155.884V50.42H165.564V49.32H155.864V47.28ZM155.884 53.5H168.664V55.58H155.884V53.5ZM183.122 37.26H185.782V50.64H183.122V37.26ZM185.042 42.3H188.242V44.48H185.042V42.3ZM171.902 45.48H173.442C174.789 45.48 175.936 45.4667 176.882 45.44C177.842 45.4 178.696 45.34 179.442 45.26C180.202 45.18 180.949 45.06 181.682 44.9L181.942 47C181.196 47.1733 180.429 47.3067 179.642 47.4C178.869 47.48 177.989 47.54 177.002 47.58C176.016 47.6067 174.829 47.62 173.442 47.62H171.902V45.48ZM171.902 38.72H180.202V40.84H174.562V46.6H171.902V38.72ZM173.842 53.32H186.442V55.46H173.842V53.32ZM173.842 49.22H176.522V54.4H173.842V49.22ZM189.941 52.6C189.941 51.9867 190.107 51.56 190.441 51.32C190.774 51.0667 191.181 50.94 191.661 50.94C192.127 50.94 192.527 51.0667 192.861 51.32C193.194 51.56 193.361 51.9867 193.361 52.6C193.361 53.1867 193.194 53.6133 192.861 53.88C192.527 54.1333 192.127 54.26 191.661 54.26C191.181 54.26 190.774 54.1333 190.441 53.88C190.107 53.6133 189.941 53.1867 189.941 52.6ZM195.644 52.6C195.644 51.9867 195.811 51.56 196.144 51.32C196.477 51.0667 196.884 50.94 197.364 50.94C197.831 50.94 198.231 51.0667 198.564 51.32C198.897 51.56 199.064 51.9867 199.064 52.6C199.064 53.1867 198.897 53.6133 198.564 53.88C198.231 54.1333 197.831 54.26 197.364 54.26C196.884 54.26 196.477 54.1333 196.144 53.88C195.811 53.6133 195.644 53.1867 195.644 52.6ZM201.347 52.6C201.347 51.9867 201.514 51.56 201.847 51.32C202.18 51.0667 202.587 50.94 203.067 50.94C203.534 50.94 203.934 51.0667 204.267 51.32C204.6 51.56 204.767 51.9867 204.767 52.6C204.767 53.1867 204.6 53.6133 204.267 53.88C203.934 54.1333 203.534 54.26 203.067 54.26C202.587 54.26 202.18 54.1333 201.847 53.88C201.514 53.6133 201.347 53.1867 201.347 52.6ZM215.965 42.06H218.045V43.02C218.045 43.9933 217.939 44.9533 217.725 45.9C217.525 46.8467 217.212 47.74 216.785 48.58C216.372 49.42 215.852 50.1667 215.225 50.82C214.599 51.4733 213.859 51.9867 213.005 52.36L211.585 50.3C212.332 49.9667 212.979 49.5333 213.525 49C214.085 48.4533 214.545 47.8533 214.905 47.2C215.265 46.5333 215.532 45.8467 215.705 45.14C215.879 44.42 215.965 43.7133 215.965 43.02V42.06ZM216.565 42.06H218.605V43.02C218.605 43.6733 218.692 44.34 218.865 45.02C219.039 45.7 219.292 46.3533 219.625 46.98C219.972 47.6067 220.405 48.1867 220.925 48.72C221.459 49.24 222.085 49.6733 222.805 50.02L221.385 52.02C220.572 51.66 219.865 51.16 219.265 50.52C218.665 49.88 218.165 49.16 217.765 48.36C217.365 47.5467 217.065 46.6867 216.865 45.78C216.665 44.86 216.565 43.94 216.565 43.02V42.06ZM212.205 40.26H222.305V42.36H212.205V40.26ZM215.965 37.68H218.625V41.36H215.965V37.68ZM223.745 37.26H226.425V55.78H223.745V37.26ZM225.845 44.44H229.105V46.64H225.845V44.44ZM232.284 46.78H245.304V48.88H232.284V46.78ZM230.324 51.5H247.104V53.66H230.324V51.5ZM232.284 38.6H245.164V40.72H234.984V47.36H232.284V38.6ZM234.164 42.68H244.744V44.74H234.164V42.68ZM248.722 45.56H265.482V47.48H248.722V45.56ZM250.602 48.42H263.502V52.82H253.262V54.4H250.622V51.14H260.882V50.22H250.602V48.42ZM250.622 53.82H264.022V55.62H250.622V53.82ZM250.762 37.56H263.442V41.94H253.422V43.44H250.802V40.26H260.822V39.36H250.762V37.56ZM250.802 42.9H263.782V44.7H250.802V42.9ZM278.856 38.84H281.216V39.3C281.216 39.8467 281.116 40.3733 280.916 40.88C280.716 41.3867 280.416 41.86 280.016 42.3C279.629 42.7267 279.143 43.1133 278.556 43.46C277.969 43.8067 277.289 44.0933 276.516 44.32C275.743 44.5333 274.883 44.6867 273.936 44.78L273.016 42.7C273.829 42.6333 274.549 42.52 275.176 42.36C275.816 42.1867 276.363 41.9867 276.816 41.76C277.283 41.5333 277.663 41.2867 277.956 41.02C278.263 40.74 278.489 40.4533 278.636 40.16C278.783 39.8667 278.856 39.58 278.856 39.3V38.84ZM280.156 38.84H282.496V39.3C282.496 39.58 282.569 39.8733 282.716 40.18C282.863 40.4733 283.083 40.7533 283.376 41.02C283.683 41.2867 284.069 41.5333 284.536 41.76C285.003 41.9867 285.549 42.1867 286.176 42.36C286.816 42.52 287.543 42.6333 288.356 42.7L287.436 44.78C286.476 44.6867 285.609 44.5333 284.836 44.32C284.076 44.0933 283.403 43.8133 282.816 43.48C282.229 43.1333 281.736 42.7467 281.336 42.32C280.949 41.88 280.656 41.4067 280.456 40.9C280.256 40.38 280.156 39.8467 280.156 39.3V38.84ZM273.836 37.86H287.556V39.96H273.836V37.86ZM279.316 43.76H281.976V47.06H279.316V43.76ZM274.256 49.38H287.056V55.58H274.256V49.38ZM284.456 51.48H276.856V53.48H284.456V51.48ZM272.296 45.92H289.056V48.02H272.296V45.92ZM295.91 51.46H312.69V53.62H295.91V51.46ZM302.95 47.5H305.59V51.98H302.95V47.5ZM297.67 38.42H300.33V41.28H308.21V38.42H310.85V48.06H297.67V38.42ZM300.33 43.36V45.94H308.21V43.36H300.33ZM316.028 38.82H327.748V40.94H316.028V38.82ZM314.308 51.38H331.068V53.54H314.308V51.38ZM320.228 45.02H322.908V52.46H320.228V45.02ZM326.788 38.82H329.468V40.58C329.468 41.3533 329.455 42.1733 329.428 43.04C329.415 43.9067 329.355 44.8667 329.248 45.92C329.155 46.9733 328.982 48.1533 328.728 49.46L326.068 49.18C326.442 47.3267 326.655 45.7133 326.708 44.34C326.762 42.9533 326.788 41.7 326.788 40.58V38.82ZM333.027 52.6C333.027 51.9867 333.193 51.56 333.527 51.32C333.86 51.0667 334.267 50.94 334.747 50.94C335.213 50.94 335.613 51.0667 335.947 51.32C336.28 51.56 336.447 51.9867 336.447 52.6C336.447 53.1867 336.28 53.6133 335.947 53.88C335.613 54.1333 335.213 54.26 334.747 54.26C334.267 54.26 333.86 54.1333 333.527 53.88C333.193 53.6133 333.027 53.1867 333.027 52.6ZM338.73 52.6C338.73 51.9867 338.897 51.56 339.23 51.32C339.563 51.0667 339.97 50.94 340.45 50.94C340.917 50.94 341.317 51.0667 341.65 51.32C341.983 51.56 342.15 51.9867 342.15 52.6C342.15 53.1867 341.983 53.6133 341.65 53.88C341.317 54.1333 340.917 54.26 340.45 54.26C339.97 54.26 339.563 54.1333 339.23 53.88C338.897 53.6133 338.73 53.1867 338.73 52.6ZM344.433 52.6C344.433 51.9867 344.6 51.56 344.933 51.32C345.266 51.0667 345.673 50.94 346.153 50.94C346.62 50.94 347.02 51.0667 347.353 51.32C347.686 51.56 347.853 51.9867 347.853 52.6C347.853 53.1867 347.686 53.6133 347.353 53.88C347.02 54.1333 346.62 54.26 346.153 54.26C345.673 54.26 345.266 54.1333 344.933 53.88C344.6 53.6133 344.433 53.1867 344.433 52.6ZM175.109 73.72H191.889V75.82H175.109V73.72ZM182.389 74.86H185.049V78.76H182.389V74.86ZM177.049 80.32H190.029V82.46H177.049V80.32ZM177.049 77.36H179.709V81.22H177.049V77.36ZM177.249 64.84H179.869V66.72H187.109V64.84H189.749V72.44H177.249V64.84ZM179.869 68.72V70.38H187.109V68.72H179.869ZM202.967 67.7H206.747V69.86H202.967V67.7ZM197.747 65.2H199.927V66.94C199.927 68.1667 199.74 69.32 199.367 70.4C199.007 71.4667 198.447 72.4 197.687 73.2C196.94 74 195.98 74.6 194.807 75L193.387 72.92C194.427 72.5733 195.267 72.0933 195.907 71.48C196.547 70.8533 197.014 70.1533 197.307 69.38C197.6 68.5933 197.747 67.78 197.747 66.94V65.2ZM198.287 65.2H200.447V67.1C200.447 67.6733 200.527 68.24 200.687 68.8C200.847 69.3467 201.094 69.8667 201.427 70.36C201.76 70.8533 202.187 71.2933 202.707 71.68C203.227 72.0667 203.854 72.38 204.587 72.62L203.187 74.7C202.08 74.3133 201.16 73.74 200.427 72.98C199.707 72.22 199.167 71.34 198.807 70.34C198.46 69.3267 198.287 68.2467 198.287 67.1V65.2ZM196.387 76.1H209.027V82.78H206.347V78.22H196.387V76.1ZM206.347 64.26H209.027V75.28H206.347V64.26ZM223.825 64.26H226.485V78.1H223.825V64.26ZM225.745 69.9H228.945V72.1H225.745V69.9ZM211.925 66.2H222.805V68.28H211.925V66.2ZM217.365 68.94C218.259 68.94 219.045 69.0933 219.725 69.4C220.419 69.6933 220.959 70.1133 221.345 70.66C221.732 71.1933 221.925 71.8067 221.925 72.5C221.925 73.2067 221.732 73.8333 221.345 74.38C220.959 74.9133 220.419 75.3333 219.725 75.64C219.045 75.9333 218.259 76.08 217.365 76.08C216.485 76.08 215.699 75.9333 215.005 75.64C214.312 75.3333 213.772 74.9133 213.385 74.38C212.999 73.8333 212.805 73.2067 212.805 72.5C212.805 71.8067 212.999 71.1933 213.385 70.66C213.772 70.1133 214.312 69.6933 215.005 69.4C215.699 69.0933 216.485 68.94 217.365 68.94ZM217.365 70.96C216.779 70.96 216.299 71.0933 215.925 71.36C215.552 71.6267 215.365 72.0133 215.365 72.52C215.365 73.0133 215.552 73.3933 215.925 73.66C216.299 73.9267 216.779 74.06 217.365 74.06C217.965 74.06 218.445 73.9267 218.805 73.66C219.179 73.3933 219.365 73.0133 219.365 72.52C219.365 72.0133 219.179 71.6267 218.805 71.36C218.445 71.0933 217.965 70.96 217.365 70.96ZM216.045 64.24H218.685V67.2H216.045V64.24ZM214.545 80.32H227.145V82.46H214.545V80.32ZM214.545 77.06H217.225V81.24H214.545V77.06ZM236.299 66.18H251.399V68.26H236.299V66.18ZM235.519 76.24H252.299V78.36H235.519V76.24ZM242.559 78.12H245.199V82.78H242.559V78.12ZM243.899 68.98C245.886 68.98 247.439 69.2533 248.559 69.8C249.679 70.3467 250.239 71.1333 250.239 72.16C250.239 73.1867 249.679 73.98 248.559 74.54C247.439 75.0867 245.879 75.36 243.879 75.36C241.893 75.36 240.339 75.0867 239.219 74.54C238.099 73.98 237.539 73.1867 237.539 72.16C237.539 71.1333 238.099 70.3467 239.219 69.8C240.339 69.2533 241.899 68.98 243.899 68.98ZM243.879 70.96C242.679 70.96 241.779 71.0533 241.179 71.24C240.593 71.4267 240.299 71.7333 240.299 72.16C240.299 72.5733 240.593 72.88 241.179 73.08C241.779 73.28 242.679 73.38 243.879 73.38C245.093 73.38 245.993 73.28 246.579 73.08C247.179 72.88 247.479 72.5733 247.479 72.16C247.479 71.7333 247.179 71.4267 246.579 71.24C245.993 71.0533 245.093 70.96 243.879 70.96ZM242.559 64.24H245.199V67.56H242.559V64.24ZM261.318 71.06H264.358V73.2H261.318V71.06ZM267.278 64.24H269.818V82.76H267.278V64.24ZM263.518 64.54H265.998V81.94H263.518V64.54ZM258.078 65.54C258.891 65.54 259.598 65.8133 260.198 66.36C260.811 66.8933 261.278 67.6667 261.598 68.68C261.931 69.68 262.098 70.88 262.098 72.28C262.098 73.6667 261.931 74.8667 261.598 75.88C261.278 76.8933 260.811 77.6733 260.198 78.22C259.598 78.7533 258.884 79.02 258.058 79.02C257.258 79.02 256.551 78.7533 255.938 78.22C255.338 77.6733 254.871 76.8933 254.538 75.88C254.218 74.8667 254.058 73.6667 254.058 72.28C254.058 70.88 254.218 69.68 254.538 68.68C254.871 67.6667 255.338 66.8933 255.938 66.36C256.551 65.8133 257.264 65.54 258.078 65.54ZM258.078 68.06C257.744 68.06 257.458 68.2133 257.218 68.52C256.978 68.8267 256.791 69.2933 256.658 69.92C256.538 70.5333 256.478 71.32 256.478 72.28C256.478 73.2133 256.538 73.9933 256.658 74.62C256.791 75.2467 256.978 75.72 257.218 76.04C257.458 76.3467 257.744 76.5 258.078 76.5C258.411 76.5 258.698 76.3467 258.938 76.04C259.191 75.72 259.378 75.2467 259.498 74.62C259.618 73.9933 259.678 73.2133 259.678 72.28C259.678 71.32 259.618 70.5333 259.498 69.92C259.378 69.2933 259.191 68.8267 258.938 68.52C258.698 68.2133 258.411 68.06 258.078 68.06ZM281.671 65.68H283.811V68.36C283.811 69.5067 283.711 70.6267 283.511 71.72C283.311 72.8 282.998 73.8067 282.571 74.74C282.158 75.6733 281.631 76.5067 280.991 77.24C280.351 77.96 279.598 78.5333 278.731 78.96L277.131 76.82C277.918 76.46 278.591 75.98 279.151 75.38C279.725 74.78 280.198 74.1 280.571 73.34C280.945 72.58 281.218 71.78 281.391 70.94C281.578 70.0867 281.671 69.2267 281.671 68.36V65.68ZM282.191 65.68H284.331V68.36C284.331 69.2 284.411 70.0267 284.571 70.84C284.745 71.6533 285.005 72.4267 285.351 73.16C285.711 73.88 286.158 74.5267 286.691 75.1C287.225 75.6733 287.865 76.1467 288.611 76.52L286.991 78.64C286.165 78.2133 285.445 77.6533 284.831 76.96C284.231 76.2533 283.738 75.4467 283.351 74.54C282.965 73.62 282.671 72.64 282.471 71.6C282.285 70.5467 282.191 69.4667 282.191 68.36V65.68ZM289.331 64.26H292.011V82.78H289.331V64.26ZM291.431 71.38H294.691V73.58H291.431V71.38ZM300.87 65.52C301.817 65.52 302.65 65.7933 303.37 66.34C304.103 66.8733 304.677 67.64 305.09 68.64C305.517 69.6267 305.73 70.7933 305.73 72.14C305.73 73.5 305.517 74.68 305.09 75.68C304.677 76.6667 304.103 77.4333 303.37 77.98C302.65 78.5133 301.817 78.78 300.87 78.78C299.923 78.78 299.083 78.5133 298.35 77.98C297.617 77.4333 297.037 76.6667 296.61 75.68C296.197 74.68 295.99 73.5 295.99 72.14C295.99 70.7933 296.197 69.6267 296.61 68.64C297.037 67.64 297.617 66.8733 298.35 66.34C299.083 65.7933 299.923 65.52 300.87 65.52ZM300.87 67.94C300.417 67.94 300.01 68.1 299.65 68.42C299.303 68.74 299.03 69.2133 298.83 69.84C298.643 70.4533 298.55 71.22 298.55 72.14C298.55 73.0467 298.643 73.82 298.83 74.46C299.03 75.0867 299.303 75.56 299.65 75.88C300.01 76.2 300.417 76.36 300.87 76.36C301.323 76.36 301.723 76.2 302.07 75.88C302.417 75.56 302.683 75.0867 302.87 74.46C303.07 73.82 303.17 73.0467 303.17 72.14C303.17 71.22 303.07 70.4533 302.87 69.84C302.683 69.2133 302.417 68.74 302.07 68.42C301.723 68.1 301.323 67.94 300.87 67.94ZM309.69 68.56H312.95V70.74H309.69V68.56ZM309.69 73.98H312.95V76.16H309.69V73.98ZM307.73 64.26H310.41V82.78H307.73V64.26ZM318.768 67.18H320.888V69.26C320.888 70.3267 320.775 71.3733 320.548 72.4C320.335 73.4267 320.008 74.3933 319.568 75.3C319.142 76.1933 318.602 76.9867 317.948 77.68C317.295 78.36 316.535 78.9 315.668 79.3L314.148 77.2C314.922 76.84 315.595 76.3733 316.168 75.8C316.755 75.2267 317.235 74.5867 317.608 73.88C317.995 73.16 318.282 72.4067 318.468 71.62C318.668 70.82 318.768 70.0333 318.768 69.26V67.18ZM319.348 67.18H321.448V69.26C321.448 69.9933 321.542 70.74 321.728 71.5C321.928 72.2467 322.215 72.96 322.588 73.64C322.962 74.3067 323.435 74.9067 324.008 75.44C324.582 75.9733 325.262 76.4 326.048 76.72L324.588 78.84C323.708 78.4533 322.942 77.9333 322.288 77.28C321.635 76.6267 321.088 75.8733 320.648 75.02C320.208 74.1667 319.882 73.2533 319.668 72.28C319.455 71.2933 319.348 70.2867 319.348 69.26V67.18ZM314.888 66.02H325.288V68.22H314.888V66.02ZM327.008 64.26H329.668V82.78H327.008V64.26Z" fill="white"/>
</svg>
