<svg width="420" height="120" viewBox="0 0 420 120" fill="none" xmlns="http://www.w3.org/2000/svg">
<rect width="420" height="120" rx="10" fill="#C0D5FE"/>
<path d="M146.211 51.98C147.144 51.98 147.977 52.1533 148.711 52.5C149.444 52.8333 150.017 53.3 150.431 53.9C150.857 54.4867 151.071 55.1667 151.071 55.94C151.071 56.7133 150.857 57.4 150.431 58C150.017 58.5867 149.444 59.0533 148.711 59.4C147.977 59.7333 147.144 59.9 146.211 59.9C145.277 59.9 144.444 59.7333 143.711 59.4C142.977 59.0533 142.397 58.5867 141.971 58C141.557 57.4 141.351 56.7133 141.351 55.94C141.351 55.1667 141.557 54.4867 141.971 53.9C142.397 53.3 142.977 52.8333 143.711 52.5C144.444 52.1533 145.277 51.98 146.211 51.98ZM146.211 54.14C145.771 54.14 145.377 54.2133 145.031 54.36C144.684 54.4933 144.411 54.6933 144.211 54.96C144.011 55.2267 143.911 55.5533 143.911 55.94C143.911 56.3267 144.011 56.6533 144.211 56.92C144.411 57.1733 144.684 57.3733 145.031 57.52C145.377 57.6533 145.771 57.72 146.211 57.72C146.664 57.72 147.064 57.6533 147.411 57.52C147.757 57.3733 148.031 57.1733 148.231 56.92C148.431 56.6533 148.531 56.3267 148.531 55.94C148.531 55.5533 148.431 55.2267 148.231 54.96C148.031 54.6933 147.757 54.4933 147.411 54.36C147.064 54.2133 146.664 54.14 146.211 54.14ZM144.951 61.76H147.631V69.2H144.951V61.76ZM153.051 51.24H155.711V69.76H153.051V51.24ZM140.571 63.16L140.271 61C141.337 61 142.531 60.9933 143.851 60.98C145.184 60.9533 146.551 60.8933 147.951 60.8C149.351 60.7067 150.704 60.56 152.011 60.36L152.171 62.3C150.837 62.5667 149.484 62.76 148.111 62.88C146.737 63 145.404 63.0733 144.111 63.1C142.817 63.1267 141.637 63.1467 140.571 63.16ZM171.429 51.26H174.109V62.44H171.429V51.26ZM169.129 56.66H172.509V58.82H169.129V56.66ZM161.749 63.22H174.109V69.58H161.749V63.22ZM171.489 65.3H164.369V67.48H171.489V65.3ZM158.649 52.86H169.469V54.96H158.649V52.86ZM164.069 55.56C164.936 55.56 165.702 55.7 166.369 55.98C167.036 56.26 167.556 56.6533 167.929 57.16C168.316 57.6533 168.509 58.2333 168.509 58.9C168.509 59.5533 168.316 60.1333 167.929 60.64C167.556 61.1333 167.036 61.52 166.369 61.8C165.702 62.08 164.936 62.22 164.069 62.22C163.216 62.22 162.449 62.08 161.769 61.8C161.102 61.52 160.576 61.1333 160.189 60.64C159.816 60.1333 159.629 59.5533 159.629 58.9C159.629 58.2333 159.816 57.6533 160.189 57.16C160.576 56.6533 161.102 56.26 161.769 55.98C162.449 55.7 163.216 55.56 164.069 55.56ZM164.089 57.52C163.702 57.52 163.362 57.5733 163.069 57.68C162.789 57.7867 162.569 57.94 162.409 58.14C162.249 58.34 162.169 58.5867 162.169 58.88C162.169 59.1867 162.249 59.4467 162.409 59.66C162.569 59.86 162.796 60.0133 163.089 60.12C163.382 60.2267 163.709 60.28 164.069 60.28C164.456 60.28 164.789 60.2267 165.069 60.12C165.349 60.0133 165.569 59.86 165.729 59.66C165.889 59.4467 165.969 59.1867 165.969 58.88C165.969 58.5867 165.889 58.34 165.729 58.14C165.569 57.94 165.349 57.7867 165.069 57.68C164.789 57.5733 164.462 57.52 164.089 57.52ZM162.749 51.1H165.389V54.34H162.749V51.1ZM176.988 54.04H185.848V56.14H176.988V54.04ZM181.448 56.98C182.234 56.98 182.928 57.1667 183.528 57.54C184.141 57.9133 184.621 58.4333 184.968 59.1C185.328 59.7533 185.508 60.5133 185.508 61.38C185.508 62.2467 185.328 63.0133 184.968 63.68C184.621 64.3333 184.141 64.8467 183.528 65.22C182.928 65.5933 182.234 65.78 181.448 65.78C180.661 65.78 179.961 65.5933 179.348 65.22C178.734 64.8467 178.254 64.3333 177.908 63.68C177.561 63.0133 177.388 62.2467 177.388 61.38C177.388 60.5133 177.561 59.7533 177.908 59.1C178.254 58.4333 178.734 57.9133 179.348 57.54C179.974 57.1667 180.674 56.98 181.448 56.98ZM181.448 59.18C181.128 59.18 180.834 59.2667 180.568 59.44C180.301 59.6133 180.094 59.8667 179.948 60.2C179.801 60.52 179.728 60.9133 179.728 61.38C179.728 61.8467 179.801 62.2467 179.948 62.58C180.094 62.9133 180.301 63.1667 180.568 63.34C180.834 63.5 181.128 63.58 181.448 63.58C181.781 63.58 182.074 63.5 182.328 63.34C182.581 63.1667 182.781 62.9133 182.928 62.58C183.074 62.2467 183.148 61.8467 183.148 61.38C183.148 60.9133 183.074 60.52 182.928 60.2C182.781 59.8667 182.581 59.6133 182.328 59.44C182.074 59.2667 181.781 59.18 181.448 59.18ZM190.388 51.24H192.908V69.76H190.388V51.24ZM188.168 58.78H191.208V60.92H188.168V58.78ZM186.488 51.58H188.968V68.98H186.488V51.58ZM180.148 51.74H182.768V55.36H180.148V51.74ZM198.646 63.26H196.266L195.766 53.72H199.146L198.646 63.26ZM195.726 66.6C195.726 65.9867 195.893 65.56 196.226 65.32C196.559 65.0667 196.966 64.94 197.446 64.94C197.913 64.94 198.313 65.0667 198.646 65.32C198.979 65.56 199.146 65.9867 199.146 66.6C199.146 67.1867 198.979 67.6133 198.646 67.88C198.313 68.1333 197.913 68.26 197.446 68.26C196.966 68.26 196.559 68.1333 196.226 67.88C195.893 67.6133 195.726 67.1867 195.726 66.6ZM206.304 60.72H223.084V62.82H206.304V60.72ZM213.584 61.86H216.244V65.76H213.584V61.86ZM208.244 67.32H221.224V69.46H208.244V67.32ZM208.244 64.36H210.904V68.22H208.244V64.36ZM208.444 51.84H211.064V53.72H218.304V51.84H220.944V59.44H208.444V51.84ZM211.064 55.72V57.38H218.304V55.72H211.064ZM228.862 52.38H231.062V54.38C231.062 55.6067 230.869 56.76 230.482 57.84C230.109 58.9067 229.536 59.84 228.762 60.64C228.002 61.44 227.029 62.04 225.842 62.44L224.422 60.38C225.476 60.0333 226.329 59.5533 226.982 58.94C227.636 58.3133 228.109 57.6067 228.402 56.82C228.709 56.02 228.862 55.2067 228.862 54.38V52.38ZM229.402 52.38H231.562V54.4C231.562 54.9867 231.642 55.5667 231.802 56.14C231.962 56.7 232.216 57.2333 232.562 57.74C232.909 58.2333 233.349 58.68 233.882 59.08C234.416 59.4667 235.056 59.78 235.802 60.02L234.442 62.1C233.282 61.7133 232.329 61.14 231.582 60.38C230.849 59.6067 230.302 58.7067 229.942 57.68C229.582 56.6533 229.402 55.56 229.402 54.4V52.38ZM236.622 51.26H239.282V64.8H236.622V51.26ZM238.542 56.62H241.742V58.8H238.542V56.62ZM227.362 67.32H239.942V69.46H227.362V67.32ZM227.362 63.5H230.042V68.46H227.362V63.5ZM243.101 62.24H259.881V64.4H243.101V62.24ZM250.141 62.98H252.801V69.8H250.141V62.98ZM245.181 58.8H258.121V60.9H245.181V58.8ZM245.181 51.98H257.941V54.06H247.821V59.28H245.181V51.98ZM247.061 55.4H257.541V57.42H247.061V55.4ZM265.659 54.18H267.759V56.26C267.759 57.2867 267.646 58.3133 267.419 59.34C267.206 60.3667 266.886 61.3333 266.459 62.24C266.033 63.1333 265.493 63.9333 264.839 64.64C264.199 65.3467 263.453 65.9 262.599 66.3L261.099 64.2C261.873 63.84 262.539 63.3667 263.099 62.78C263.673 62.1933 264.146 61.54 264.519 60.82C264.906 60.1 265.193 59.3533 265.379 58.58C265.566 57.7933 265.659 57.02 265.659 56.26V54.18ZM266.219 54.18H268.319V56.26C268.319 56.9533 268.413 57.6667 268.599 58.4C268.786 59.1333 269.059 59.84 269.419 60.52C269.793 61.2 270.259 61.82 270.819 62.38C271.393 62.9267 272.059 63.3733 272.819 63.72L271.339 65.84C270.486 65.44 269.739 64.9067 269.099 64.24C268.473 63.56 267.939 62.7933 267.499 61.94C267.073 61.0733 266.753 60.16 266.539 59.2C266.326 58.2267 266.219 57.2467 266.219 56.26V54.18ZM261.819 53.02H271.999V55.22H261.819V53.02ZM273.339 51.26H276.019V69.78H273.339V51.26ZM275.439 58.32H278.699V60.5H275.439V58.32ZM291.738 51.22H294.418V69.74H291.738V51.22ZM293.738 58.32H296.998V60.5H293.738V58.32ZM286.878 53.14H289.498C289.498 54.9933 289.231 56.7467 288.698 58.4C288.178 60.0533 287.311 61.5733 286.098 62.96C284.898 64.3333 283.271 65.5333 281.218 66.56L279.718 64.54C281.344 63.7 282.684 62.7533 283.738 61.7C284.804 60.6467 285.591 59.4533 286.098 58.12C286.618 56.7733 286.878 55.2733 286.878 53.62V53.14ZM280.738 53.14H288.258V55.28H280.738V53.14ZM315.411 51.24H318.071V61.16H315.411V51.24ZM317.351 55.24H320.531V57.4H317.351V55.24ZM304.191 58.62H305.731C307.078 58.62 308.225 58.6067 309.171 58.58C310.131 58.54 310.985 58.48 311.731 58.4C312.491 58.32 313.238 58.2 313.971 58.04L314.231 60.14C313.485 60.3133 312.718 60.4467 311.931 60.54C311.158 60.62 310.278 60.68 309.291 60.72C308.305 60.7467 307.118 60.76 305.731 60.76H304.191V58.62ZM304.191 52.36H312.431V54.46H306.851V60.04H304.191V52.36ZM305.991 62.06H308.631V63.76H315.451V62.06H318.071V69.56H305.991V62.06ZM308.631 65.8V67.42H315.451V65.8H308.631ZM334.61 51.22H337.27V69.8H334.61V51.22ZM327.29 52.52C328.237 52.52 329.077 52.7933 329.81 53.34C330.543 53.8733 331.117 54.64 331.53 55.64C331.957 56.6267 332.17 57.7933 332.17 59.14C332.17 60.5 331.957 61.68 331.53 62.68C331.117 63.6667 330.543 64.4333 329.81 64.98C329.077 65.5133 328.237 65.78 327.29 65.78C326.357 65.78 325.523 65.5133 324.79 64.98C324.057 64.4333 323.477 63.6667 323.05 62.68C322.637 61.68 322.43 60.5 322.43 59.14C322.43 57.7933 322.637 56.6267 323.05 55.64C323.477 54.64 324.057 53.8733 324.79 53.34C325.523 52.7933 326.357 52.52 327.29 52.52ZM327.29 54.94C326.837 54.94 326.437 55.1 326.09 55.42C325.743 55.74 325.47 56.2133 325.27 56.84C325.083 57.4533 324.99 58.22 324.99 59.14C324.99 60.0467 325.083 60.82 325.27 61.46C325.47 62.0867 325.743 62.56 326.09 62.88C326.437 63.2 326.837 63.36 327.29 63.36C327.757 63.36 328.163 63.2 328.51 62.88C328.857 62.56 329.123 62.0867 329.31 61.46C329.51 60.82 329.61 60.0467 329.61 59.14C329.61 58.22 329.51 57.4533 329.31 56.84C329.123 56.2133 328.857 55.74 328.51 55.42C328.163 55.1 327.757 54.94 327.29 54.94ZM352.128 51.22H354.808V69.8H352.128V51.22ZM354.228 58.08H357.488V60.28H354.228V58.08ZM341.008 63.16H342.568C343.622 63.16 344.608 63.1467 345.528 63.12C346.448 63.08 347.342 63.02 348.208 62.94C349.075 62.8467 349.962 62.72 350.868 62.56L351.128 64.76C350.195 64.92 349.275 65.0467 348.368 65.14C347.475 65.2333 346.555 65.2933 345.608 65.32C344.662 65.3467 343.648 65.36 342.568 65.36H341.008V63.16ZM341.008 52.94H349.648V55.08H343.668V64.2H341.008V52.94ZM361.947 63.26H359.567L359.067 53.72H362.447L361.947 63.26ZM359.027 66.6C359.027 65.9867 359.193 65.56 359.527 65.32C359.86 65.0667 360.267 64.94 360.747 64.94C361.213 64.94 361.613 65.0667 361.947 65.32C362.28 65.56 362.447 65.9867 362.447 66.6C362.447 67.1867 362.28 67.6133 361.947 67.88C361.613 68.1333 361.213 68.26 360.747 68.26C360.267 68.26 359.86 68.1333 359.527 67.88C359.193 67.6133 359.027 67.1867 359.027 66.6Z" fill="white"/>
</svg>
