<svg width="420" height="120" viewBox="0 0 420 120" fill="none" xmlns="http://www.w3.org/2000/svg">
<rect width="420" height="120" rx="10" fill="#FFA163"/>
<path d="M155.127 56.78H157.787V59.34H155.127V56.78ZM154.667 52.56H156.967V53.04C156.967 53.5333 156.867 54.0067 156.667 54.46C156.467 54.9133 156.167 55.3333 155.767 55.72C155.38 56.0933 154.887 56.4267 154.287 56.72C153.7 57.0133 153.013 57.2533 152.227 57.44C151.453 57.6267 150.593 57.7533 149.647 57.82L148.827 55.82C149.64 55.78 150.36 55.7 150.987 55.58C151.627 55.4467 152.173 55.2867 152.627 55.1C153.093 54.9133 153.473 54.7133 153.767 54.5C154.073 54.2733 154.3 54.0333 154.447 53.78C154.593 53.5267 154.667 53.28 154.667 53.04V52.56ZM156.007 52.56H158.307V53.04C158.307 53.28 158.38 53.5267 158.527 53.78C158.673 54.0333 158.893 54.2733 159.187 54.5C159.493 54.7133 159.873 54.9133 160.327 55.1C160.793 55.2867 161.34 55.4467 161.967 55.58C162.607 55.7 163.34 55.78 164.167 55.82L163.347 57.82C162.387 57.7533 161.513 57.6267 160.727 57.44C159.953 57.2533 159.273 57.02 158.687 56.74C158.1 56.4467 157.607 56.1133 157.207 55.74C156.807 55.3533 156.507 54.9333 156.307 54.48C156.107 54.0267 156.007 53.5467 156.007 53.04V52.56ZM149.647 51.7H163.367V53.72H149.647V51.7ZM149.627 62.42H163.327V64.42H149.627V62.42ZM148.127 58.46H164.887V60.54H148.127V58.46ZM156.447 64.94C158.247 64.94 159.64 65.1533 160.627 65.58C161.613 65.9933 162.107 66.5933 162.107 67.38C162.107 68.18 161.613 68.7867 160.627 69.2C159.64 69.6133 158.247 69.82 156.447 69.82C154.66 69.82 153.273 69.6133 152.287 69.2C151.3 68.7867 150.807 68.18 150.807 67.38C150.807 66.5933 151.3 65.9933 152.287 65.58C153.273 65.1533 154.66 64.94 156.447 64.94ZM156.447 66.7C155.487 66.7 154.767 66.7533 154.287 66.86C153.807 66.9533 153.567 67.1267 153.567 67.38C153.567 67.6333 153.807 67.8133 154.287 67.92C154.767 68.0267 155.487 68.08 156.447 68.08C157.42 68.08 158.147 68.0267 158.627 67.92C159.12 67.8133 159.367 67.6333 159.367 67.38C159.367 67.1267 159.12 66.9533 158.627 66.86C158.147 66.7533 157.42 66.7 156.447 66.7ZM155.147 61.12H157.787V63.6H155.147V61.12ZM178.345 51.22H181.025V69.8H178.345V51.22ZM180.445 58.08H183.705V60.28H180.445V58.08ZM167.225 63.16H168.785C169.838 63.16 170.825 63.1467 171.745 63.12C172.665 63.08 173.558 63.02 174.425 62.94C175.292 62.8467 176.178 62.72 177.085 62.56L177.345 64.76C176.412 64.92 175.492 65.0467 174.585 65.14C173.692 65.2333 172.772 65.2933 171.825 65.32C170.878 65.3467 169.865 65.36 168.785 65.36H167.225V63.16ZM167.225 52.94H175.865V55.08H169.885V64.2H167.225V52.94ZM188.164 63.26H185.784L185.284 53.72H188.664L188.164 63.26ZM185.244 66.6C185.244 65.9867 185.41 65.56 185.744 65.32C186.077 65.0667 186.484 64.94 186.964 64.94C187.43 64.94 187.83 65.0667 188.164 65.32C188.497 65.56 188.664 65.9867 188.664 66.6C188.664 67.1867 188.497 67.6133 188.164 67.88C187.83 68.1333 187.43 68.26 186.964 68.26C186.484 68.26 186.077 68.1333 185.744 67.88C185.41 67.6133 185.244 67.1867 185.244 66.6ZM197.281 51.66H211.101V53.66H197.281V51.66ZM197.421 55.92H210.941V57.92H197.421V55.92ZM199.641 52.44H202.301V57.28H199.641V52.44ZM206.081 52.44H208.741V57.28H206.081V52.44ZM195.821 58.88H212.581V60.96H195.821V58.88ZM202.861 60.14H205.501V62.72H202.861V60.14ZM197.741 62.12H210.541V66.74H200.401V68.46H197.761V64.96H207.921V64.02H197.741V62.12ZM197.761 67.72H211.041V69.66H197.761V67.72ZM227.6 51.24H230.14V69.76H227.6V51.24ZM225.38 58.32H228.46V60.44H225.38V58.32ZM223.56 51.54H226.04V68.94H223.56V51.54ZM214.76 53.14H222.06V65.14H214.76V53.14ZM219.6 55.22H217.24V63.08H219.6V55.22ZM239.618 51.78H241.938V52.66C241.938 53.3667 241.825 54.0533 241.598 54.72C241.385 55.3733 241.065 55.9867 240.638 56.56C240.212 57.1333 239.692 57.6467 239.078 58.1C238.465 58.5533 237.752 58.94 236.938 59.26C236.138 59.5667 235.258 59.8 234.298 59.96L233.258 57.82C234.112 57.7133 234.872 57.5333 235.538 57.28C236.218 57.0267 236.812 56.7267 237.318 56.38C237.838 56.0333 238.265 55.6533 238.598 55.24C238.932 54.8267 239.185 54.4 239.358 53.96C239.532 53.52 239.618 53.0867 239.618 52.66V51.78ZM240.118 51.78H242.438V52.66C242.438 53.0867 242.525 53.52 242.698 53.96C242.872 54.4 243.125 54.8267 243.458 55.24C243.792 55.6533 244.212 56.0333 244.718 56.38C245.238 56.7267 245.832 57.0267 246.498 57.28C247.178 57.5333 247.945 57.7133 248.798 57.82L247.758 59.96C246.785 59.8 245.898 59.5667 245.098 59.26C244.298 58.94 243.592 58.5533 242.978 58.1C242.365 57.6333 241.845 57.1133 241.418 56.54C240.992 55.9667 240.665 55.3533 240.438 54.7C240.225 54.0467 240.118 53.3667 240.118 52.66V51.78ZM239.618 62.98H242.278V69.78H239.618V62.98ZM232.638 61.3H249.398V63.46H232.638V61.3ZM268.052 51.22H270.732V69.74H268.052V51.22ZM270.052 58.32H273.312V60.5H270.052V58.32ZM263.192 53.14H265.812C265.812 54.9933 265.545 56.7467 265.012 58.4C264.492 60.0533 263.625 61.5733 262.412 62.96C261.212 64.3333 259.585 65.5333 257.532 66.56L256.032 64.54C257.659 63.7 258.999 62.7533 260.052 61.7C261.119 60.6467 261.905 59.4533 262.412 58.12C262.932 56.7733 263.192 55.2733 263.192 53.62V53.14ZM257.052 53.14H264.572V55.28H257.052V53.14ZM274.631 65.4H291.411V67.56H274.631V65.4ZM281.591 53.82H283.851V54.86C283.851 55.6467 283.737 56.3933 283.511 57.1C283.297 57.8067 282.977 58.4667 282.551 59.08C282.137 59.68 281.624 60.2267 281.011 60.72C280.397 61.2 279.697 61.6133 278.911 61.96C278.124 62.3067 277.264 62.5667 276.331 62.74L275.271 60.6C276.097 60.4667 276.844 60.2667 277.511 60C278.191 59.7333 278.784 59.4133 279.291 59.04C279.797 58.6667 280.217 58.26 280.551 57.82C280.897 57.3667 281.157 56.8933 281.331 56.4C281.504 55.8933 281.591 55.38 281.591 54.86V53.82ZM282.151 53.82H284.391V54.86C284.391 55.38 284.477 55.8867 284.651 56.38C284.824 56.8733 285.084 57.3467 285.431 57.8C285.777 58.24 286.204 58.6467 286.711 59.02C287.231 59.38 287.831 59.6933 288.511 59.96C289.204 60.2133 289.971 60.4 290.811 60.52L289.771 62.64C288.811 62.4667 287.931 62.2133 287.131 61.88C286.344 61.5467 285.637 61.14 285.011 60.66C284.397 60.18 283.877 59.64 283.451 59.04C283.024 58.44 282.697 57.7933 282.471 57.1C282.257 56.3933 282.151 55.6467 282.151 54.86V53.82ZM276.011 52.8H289.971V54.92H276.011V52.8ZM297.989 52.52C298.936 52.52 299.769 52.7933 300.489 53.34C301.222 53.8733 301.796 54.64 302.209 55.64C302.636 56.6267 302.849 57.7933 302.849 59.14C302.849 60.5 302.636 61.68 302.209 62.68C301.796 63.6667 301.222 64.4333 300.489 64.98C299.769 65.5133 298.936 65.78 297.989 65.78C297.042 65.78 296.202 65.5133 295.469 64.98C294.736 64.4333 294.156 63.6667 293.729 62.68C293.316 61.68 293.109 60.5 293.109 59.14C293.109 57.7933 293.316 56.6267 293.729 55.64C294.156 54.64 294.736 53.8733 295.469 53.34C296.202 52.7933 297.042 52.52 297.989 52.52ZM297.989 54.94C297.536 54.94 297.129 55.1 296.769 55.42C296.422 55.74 296.149 56.2133 295.949 56.84C295.762 57.4533 295.669 58.22 295.669 59.14C295.669 60.0467 295.762 60.82 295.949 61.46C296.149 62.0867 296.422 62.56 296.769 62.88C297.129 63.2 297.536 63.36 297.989 63.36C298.442 63.36 298.842 63.2 299.189 62.88C299.536 62.56 299.802 62.0867 299.989 61.46C300.189 60.82 300.289 60.0467 300.289 59.14C300.289 58.22 300.189 57.4533 299.989 56.84C299.802 56.2133 299.536 55.74 299.189 55.42C298.842 55.1 298.442 54.94 297.989 54.94ZM304.849 51.26H307.529V69.78H304.849V51.26ZM306.949 58.24H310.209V60.42H306.949V58.24ZM321.163 61.98C320.669 61.7667 320.249 61.6267 319.903 61.56C319.569 61.48 319.249 61.44 318.943 61.44C318.569 61.44 318.176 61.5533 317.763 61.78C317.363 62.0067 316.996 62.2867 316.663 62.62V60.36C316.996 60.0133 317.369 59.7533 317.783 59.58C318.196 59.3933 318.656 59.3 319.163 59.3C319.549 59.3 319.936 59.34 320.323 59.42C320.723 59.4867 321.236 59.6533 321.863 59.92C322.356 60.1333 322.776 60.28 323.123 60.36C323.469 60.4267 323.789 60.46 324.083 60.46C324.469 60.46 324.863 60.3467 325.263 60.12C325.663 59.8933 326.029 59.6133 326.363 59.28V61.54C326.029 61.8867 325.656 62.1533 325.243 62.34C324.829 62.5133 324.369 62.6 323.863 62.6C323.476 62.6 323.083 62.56 322.683 62.48C322.296 62.4 321.789 62.2333 321.163 61.98ZM331.308 63.26H328.928L328.428 53.72H331.808L331.308 63.26ZM328.388 66.6C328.388 65.9867 328.555 65.56 328.888 65.32C329.221 65.0667 329.628 64.94 330.108 64.94C330.575 64.94 330.975 65.0667 331.308 65.32C331.641 65.56 331.808 65.9867 331.808 66.6C331.808 67.1867 331.641 67.6133 331.308 67.88C330.975 68.1333 330.575 68.26 330.108 68.26C329.628 68.26 329.221 68.1333 328.888 67.88C328.555 67.6133 328.388 67.1867 328.388 66.6ZM337.031 63.26H334.651L334.151 53.72H337.531L337.031 63.26ZM334.111 66.6C334.111 65.9867 334.277 65.56 334.611 65.32C334.944 65.0667 335.351 64.94 335.831 64.94C336.297 64.94 336.697 65.0667 337.031 65.32C337.364 65.56 337.531 65.9867 337.531 66.6C337.531 67.1867 337.364 67.6133 337.031 67.88C336.697 68.1333 336.297 68.26 335.831 68.26C335.351 68.26 334.944 68.1333 334.611 67.88C334.277 67.6133 334.111 67.1867 334.111 66.6Z" fill="white"/>
</svg>
