<svg width="420" height="120" viewBox="0 0 420 120" fill="none" xmlns="http://www.w3.org/2000/svg">
<rect width="420" height="120" rx="10" fill="#FFA163"/>
<path d="M147.877 50.22H150.537V68.8H147.877V50.22ZM140.557 51.52C141.504 51.52 142.344 51.7933 143.077 52.34C143.811 52.8733 144.384 53.64 144.797 54.64C145.224 55.6267 145.437 56.7933 145.437 58.14C145.437 59.5 145.224 60.68 144.797 61.68C144.384 62.6667 143.811 63.4333 143.077 63.98C142.344 64.5133 141.504 64.78 140.557 64.78C139.624 64.78 138.791 64.5133 138.057 63.98C137.324 63.4333 136.744 62.6667 136.317 61.68C135.904 60.68 135.697 59.5 135.697 58.14C135.697 56.7933 135.904 55.6267 136.317 54.64C136.744 53.64 137.324 52.8733 138.057 52.34C138.791 51.7933 139.624 51.52 140.557 51.52ZM140.557 53.94C140.104 53.94 139.704 54.1 139.357 54.42C139.011 54.74 138.737 55.2133 138.537 55.84C138.351 56.4533 138.257 57.22 138.257 58.14C138.257 59.0467 138.351 59.82 138.537 60.46C138.737 61.0867 139.011 61.56 139.357 61.88C139.704 62.2 140.104 62.36 140.557 62.36C141.024 62.36 141.431 62.2 141.777 61.88C142.124 61.56 142.391 61.0867 142.577 60.46C142.777 59.82 142.877 59.0467 142.877 58.14C142.877 57.22 142.777 56.4533 142.577 55.84C142.391 55.2133 142.124 54.74 141.777 54.42C141.431 54.1 141.024 53.94 140.557 53.94ZM154.276 57.44H155.776C156.936 57.44 157.969 57.4333 158.876 57.42C159.783 57.4067 160.636 57.3733 161.436 57.32C162.236 57.2533 163.049 57.1533 163.876 57.02L164.076 59.04C163.223 59.1733 162.383 59.2733 161.556 59.34C160.743 59.4067 159.869 59.4467 158.936 59.46C158.016 59.4733 156.963 59.48 155.776 59.48H154.276V57.44ZM154.236 51.08H162.596V56.18H156.916V58.42H154.276V54.3H159.976V53.08H154.236V51.08ZM156.676 60.6H169.076V65.52H159.356V67.5H156.716V63.66H166.436V62.58H156.676V60.6ZM156.716 66.62H169.616V68.66H156.716V66.62ZM166.396 50.26H169.076V59.9H166.396V50.26ZM163.496 53.58H166.976V55.7H163.496V53.58ZM187.05 50.52H189.49V67.92H187.05V50.52ZM188.51 57.4H191.77V59.54H188.51V57.4ZM177.47 62.12H178.29C178.743 62.12 179.216 62.1067 179.71 62.08C180.216 62.0533 180.776 61.9733 181.39 61.84L181.57 64C180.903 64.1467 180.31 64.2333 179.79 64.26C179.27 64.2867 178.77 64.3 178.29 64.3H177.47V62.12ZM177.47 52.44H181.37V54.58H179.87V63.3H177.47V52.44ZM182.05 62.12H182.91C183.443 62.12 183.976 62.1067 184.51 62.08C185.056 62.0533 185.663 61.9667 186.33 61.82L186.51 63.98C185.816 64.14 185.183 64.2333 184.61 64.26C184.05 64.2867 183.483 64.3 182.91 64.3H182.05V62.12ZM182.05 52.44H186.09V54.58H184.45V63.28H182.05V52.44ZM190.83 50.24H193.31V68.76H190.83V50.24ZM200.768 50.78C201.728 50.78 202.575 50.9667 203.308 51.34C204.055 51.7 204.641 52.2 205.068 52.84C205.508 53.4667 205.728 54.1933 205.728 55.02C205.728 55.8467 205.508 56.58 205.068 57.22C204.641 57.8467 204.055 58.34 203.308 58.7C202.575 59.06 201.728 59.24 200.768 59.24C199.835 59.24 198.995 59.06 198.248 58.7C197.501 58.34 196.908 57.8467 196.468 57.22C196.041 56.58 195.828 55.8467 195.828 55.02C195.828 54.1933 196.041 53.46 196.468 52.82C196.908 52.18 197.501 51.68 198.248 51.32C198.995 50.96 199.835 50.78 200.768 50.78ZM200.788 52.94C200.335 52.94 199.928 53.0267 199.568 53.2C199.208 53.36 198.921 53.5933 198.708 53.9C198.508 54.2067 198.408 54.58 198.408 55.02C198.408 55.46 198.508 55.84 198.708 56.16C198.921 56.4667 199.201 56.7 199.548 56.86C199.908 57.02 200.321 57.1 200.788 57.1C201.241 57.1 201.641 57.02 201.988 56.86C202.348 56.7 202.628 56.4667 202.828 56.16C203.041 55.84 203.148 55.46 203.148 55.02C203.148 54.58 203.041 54.2067 202.828 53.9C202.628 53.5933 202.348 53.36 201.988 53.2C201.628 53.0267 201.228 52.94 200.788 52.94ZM208.288 50.26H210.948V59.52H208.288V50.26ZM198.608 60.28H210.948V65.34H201.248V67.6H198.628V63.42H208.308V62.32H198.608V60.28ZM198.628 66.5H211.408V68.58H198.628V66.5ZM220.946 50.78H223.266V51.66C223.266 52.3667 223.153 53.0533 222.926 53.72C222.713 54.3733 222.393 54.9867 221.966 55.56C221.54 56.1333 221.02 56.6467 220.406 57.1C219.793 57.5533 219.08 57.94 218.266 58.26C217.466 58.5667 216.586 58.8 215.626 58.96L214.586 56.82C215.44 56.7133 216.2 56.5333 216.866 56.28C217.546 56.0267 218.14 55.7267 218.646 55.38C219.166 55.0333 219.593 54.6533 219.926 54.24C220.26 53.8267 220.513 53.4 220.686 52.96C220.86 52.52 220.946 52.0867 220.946 51.66V50.78ZM221.446 50.78H223.766V51.66C223.766 52.0867 223.853 52.52 224.026 52.96C224.2 53.4 224.453 53.8267 224.786 54.24C225.12 54.6533 225.54 55.0333 226.046 55.38C226.566 55.7267 227.16 56.0267 227.826 56.28C228.506 56.5333 229.273 56.7133 230.126 56.82L229.086 58.96C228.113 58.8 227.226 58.5667 226.426 58.26C225.626 57.94 224.92 57.5533 224.306 57.1C223.693 56.6333 223.173 56.1133 222.746 55.54C222.32 54.9667 221.993 54.3533 221.766 53.7C221.553 53.0467 221.446 52.3667 221.446 51.66V50.78ZM220.946 61.98H223.606V68.78H220.946V61.98ZM213.966 60.3H230.726V62.46H213.966V60.3ZM232.365 60.18H249.125V62.28H232.365V60.18ZM234.405 50.6H247.085V55.62H237.065V57.62H234.445V53.74H244.465V52.62H234.405V50.6ZM234.445 56.84H247.445V58.86H234.445V56.84ZM239.425 57.82H242.065V61.32H239.425V57.82ZM234.205 63.32H247.205V68.72H244.545V65.44H234.205V63.32ZM262.979 62.1H265.639V68.8H262.979V62.1ZM255.959 61.34H272.719V63.5H255.959V61.34ZM262.959 53.58H265.299V54.02C265.299 54.6333 265.192 55.2333 264.979 55.82C264.779 56.3933 264.472 56.9333 264.059 57.44C263.645 57.9333 263.132 58.3867 262.519 58.8C261.905 59.2 261.199 59.54 260.399 59.82C259.599 60.0867 258.712 60.28 257.739 60.4L256.799 58.3C257.639 58.2067 258.385 58.0533 259.039 57.84C259.705 57.6267 260.285 57.3733 260.779 57.08C261.272 56.7867 261.679 56.4733 261.999 56.14C262.332 55.7933 262.572 55.44 262.719 55.08C262.879 54.7067 262.959 54.3533 262.959 54.02V53.58ZM263.319 53.58H265.639V54.02C265.639 54.34 265.719 54.6867 265.879 55.06C266.052 55.42 266.299 55.7733 266.619 56.12C266.939 56.4533 267.345 56.7733 267.839 57.08C268.332 57.3733 268.905 57.6267 269.559 57.84C270.225 58.0533 270.972 58.2067 271.799 58.3L270.879 60.4C269.892 60.2933 268.999 60.1 268.199 59.82C267.412 59.5267 266.712 59.18 266.099 58.78C265.485 58.38 264.972 57.9267 264.559 57.42C264.145 56.9 263.832 56.3533 263.619 55.78C263.419 55.2067 263.319 54.62 263.319 54.02V53.58ZM257.459 52.36H271.179V54.46H257.459V52.36ZM262.979 50.3H265.639V53.08H262.979V50.3ZM286.177 50.22H288.857V68.74H286.177V50.22ZM288.177 57.32H291.437V59.5H288.177V57.32ZM281.317 52.14H283.937C283.937 53.9933 283.67 55.7467 283.137 57.4C282.617 59.0533 281.75 60.5733 280.537 61.96C279.337 63.3333 277.71 64.5333 275.657 65.56L274.157 63.54C275.784 62.7 277.124 61.7533 278.177 60.7C279.244 59.6467 280.03 58.4533 280.537 57.12C281.057 55.7733 281.317 54.2733 281.317 52.62V52.14ZM275.177 52.14H282.697V54.28H275.177V52.14ZM311.311 50.24H313.851V68.76H311.311V50.24ZM309.091 57.32H312.171V59.44H309.091V57.32ZM307.271 50.54H309.751V67.94H307.271V50.54ZM298.471 52.14H305.771V64.14H298.471V52.14ZM303.311 54.22H300.951V62.08H303.311V54.22ZM323.329 50.78H325.649V51.66C325.649 52.3667 325.536 53.0533 325.309 53.72C325.096 54.3733 324.776 54.9867 324.349 55.56C323.923 56.1333 323.403 56.6467 322.789 57.1C322.176 57.5533 321.463 57.94 320.649 58.26C319.849 58.5667 318.969 58.8 318.009 58.96L316.969 56.82C317.823 56.7133 318.583 56.5333 319.249 56.28C319.929 56.0267 320.523 55.7267 321.029 55.38C321.549 55.0333 321.976 54.6533 322.309 54.24C322.643 53.8267 322.896 53.4 323.069 52.96C323.243 52.52 323.329 52.0867 323.329 51.66V50.78ZM323.829 50.78H326.149V51.66C326.149 52.0867 326.236 52.52 326.409 52.96C326.583 53.4 326.836 53.8267 327.169 54.24C327.503 54.6533 327.923 55.0333 328.429 55.38C328.949 55.7267 329.543 56.0267 330.209 56.28C330.889 56.5333 331.656 56.7133 332.509 56.82L331.469 58.96C330.496 58.8 329.609 58.5667 328.809 58.26C328.009 57.94 327.303 57.5533 326.689 57.1C326.076 56.6333 325.556 56.1133 325.129 55.54C324.703 54.9667 324.376 54.3533 324.149 53.7C323.936 53.0467 323.829 52.3667 323.829 51.66V50.78ZM323.329 61.98H325.989V68.78H323.329V61.98ZM316.349 60.3H333.109V62.46H316.349V60.3ZM344.083 53.76H346.263V54.46C346.263 55.58 346.076 56.6467 345.703 57.66C345.33 58.66 344.763 59.5333 344.003 60.28C343.243 61.0267 342.276 61.5867 341.103 61.96L339.803 59.86C340.803 59.5533 341.616 59.12 342.243 58.56C342.883 57.9867 343.35 57.3467 343.643 56.64C343.936 55.9333 344.083 55.2067 344.083 54.46V53.76ZM344.583 53.76H346.743V54.46C346.743 55.1533 346.89 55.8333 347.183 56.5C347.476 57.1667 347.936 57.7667 348.563 58.3C349.203 58.8333 350.016 59.2533 351.003 59.56L349.743 61.64C348.57 61.2933 347.603 60.7667 346.843 60.06C346.083 59.34 345.516 58.5 345.143 57.54C344.77 56.5667 344.583 55.54 344.583 54.46V53.76ZM340.443 52.44H350.403V54.52H340.443V52.44ZM344.083 50.38H346.743V53.28H344.083V50.38ZM351.843 50.26H354.503V63.98H351.843V50.26ZM353.763 55.72H356.963V57.9H353.763V55.72ZM342.563 66.32H355.163V68.46H342.563V66.32ZM342.563 62.76H345.243V67.7H342.563V62.76ZM365.221 51.32H367.521V52.66C367.521 53.46 367.408 54.24 367.181 55C366.968 55.7467 366.648 56.4533 366.221 57.12C365.795 57.7867 365.268 58.3933 364.641 58.94C364.028 59.4733 363.321 59.9333 362.521 60.32C361.721 60.7067 360.841 60.9933 359.881 61.18L358.741 58.96C359.568 58.8133 360.321 58.5933 361.001 58.3C361.695 57.9933 362.301 57.6267 362.821 57.2C363.341 56.7733 363.781 56.3133 364.141 55.82C364.501 55.3133 364.768 54.7933 364.941 54.26C365.128 53.7133 365.221 53.18 365.221 52.66V51.32ZM365.741 51.32H368.061V52.66C368.061 53.1933 368.148 53.7333 368.321 54.28C368.508 54.8267 368.775 55.3533 369.121 55.86C369.481 56.3533 369.921 56.8067 370.441 57.22C370.961 57.6333 371.561 57.9933 372.241 58.3C372.921 58.5933 373.688 58.8133 374.541 58.96L373.401 61.18C372.441 60.9933 371.561 60.7067 370.761 60.32C369.961 59.9333 369.248 59.4733 368.621 58.94C368.008 58.4067 367.481 57.8067 367.041 57.14C366.615 56.4733 366.288 55.76 366.061 55C365.848 54.24 365.741 53.46 365.741 52.66V51.32ZM358.341 64.34H375.121V66.52H358.341V64.34ZM379.98 62.26H377.6L377.1 52.72H380.48L379.98 62.26ZM377.06 65.6C377.06 64.9867 377.227 64.56 377.56 64.32C377.893 64.0667 378.3 63.94 378.78 63.94C379.247 63.94 379.647 64.0667 379.98 64.32C380.313 64.56 380.48 64.9867 380.48 65.6C380.48 66.1867 380.313 66.6133 379.98 66.88C379.647 67.1333 379.247 67.26 378.78 67.26C378.3 67.26 377.893 67.1333 377.56 66.88C377.227 66.6133 377.06 66.1867 377.06 65.6Z" fill="white"/>
</svg>
