<svg width="420" height="120" viewBox="0 0 420 120" fill="none" xmlns="http://www.w3.org/2000/svg">
<rect width="420" height="120" rx="10" fill="#FFA163"/>
<path d="M203.426 35.24H206.086V53.76H203.426V35.24ZM197.966 37.16H200.586C200.586 38.5733 200.446 39.9267 200.166 41.22C199.899 42.5 199.446 43.7067 198.806 44.84C198.179 45.9733 197.312 47.0267 196.206 48C195.112 48.96 193.746 49.84 192.106 50.64L190.706 48.54C192.492 47.6733 193.912 46.72 194.966 45.68C196.032 44.6267 196.799 43.44 197.266 42.12C197.732 40.7867 197.966 39.2933 197.966 37.64V37.16ZM191.706 37.16H199.206V39.28H191.706V37.16ZM213.744 46.52H216.404V49.52H213.744V46.52ZM221.844 35.26H224.504V53.78H221.844V35.26ZM209.464 50.7L209.144 48.54C210.264 48.54 211.484 48.5333 212.804 48.52C214.124 48.5067 215.477 48.46 216.864 48.38C218.264 48.3 219.611 48.1733 220.904 48L221.084 49.92C219.737 50.16 218.377 50.34 217.004 50.46C215.644 50.5667 214.324 50.6333 213.044 50.66C211.764 50.6867 210.571 50.7 209.464 50.7ZM209.504 37.3H220.664V39.38H209.504V37.3ZM215.084 40.1C215.991 40.1 216.791 40.2467 217.484 40.54C218.177 40.8333 218.717 41.24 219.104 41.76C219.504 42.28 219.704 42.8867 219.704 43.58C219.704 44.26 219.504 44.8667 219.104 45.4C218.717 45.92 218.177 46.3267 217.484 46.62C216.791 46.9133 215.991 47.06 215.084 47.06C214.177 47.06 213.377 46.9133 212.684 46.62C211.991 46.3267 211.444 45.92 211.044 45.4C210.657 44.8667 210.464 44.26 210.464 43.58C210.464 42.8867 210.657 42.28 211.044 41.76C211.444 41.24 211.991 40.8333 212.684 40.54C213.377 40.2467 214.177 40.1 215.084 40.1ZM215.084 42.1C214.471 42.1 213.971 42.2333 213.584 42.5C213.197 42.7533 213.004 43.1133 213.004 43.58C213.004 44.06 213.197 44.4267 213.584 44.68C213.971 44.9333 214.471 45.06 215.084 45.06C215.697 45.06 216.197 44.9333 216.584 44.68C216.971 44.4267 217.164 44.06 217.164 43.58C217.164 43.1133 216.971 42.7533 216.584 42.5C216.197 42.2333 215.697 42.1 215.084 42.1ZM213.744 35.32H216.424V38.5H213.744V35.32ZM229.523 40.24H242.363V42.36H229.523V40.24ZM227.463 44.28H244.223V46.4H227.463V44.28ZM229.523 35.9H232.183V41.3H229.523V35.9ZM229.363 51.24H242.463V53.38H229.363V51.24ZM229.363 47.86H232.023V51.82H229.363V47.86ZM255.516 38.18H257.636V40.26C257.636 41.3267 257.523 42.3733 257.296 43.4C257.083 44.4267 256.756 45.3933 256.316 46.3C255.89 47.1933 255.35 47.9867 254.696 48.68C254.043 49.36 253.283 49.9 252.416 50.3L250.896 48.2C251.67 47.84 252.343 47.3733 252.916 46.8C253.503 46.2267 253.983 45.5867 254.356 44.88C254.743 44.16 255.03 43.4067 255.216 42.62C255.416 41.82 255.516 41.0333 255.516 40.26V38.18ZM256.096 38.18H258.196V40.26C258.196 40.9933 258.29 41.74 258.476 42.5C258.676 43.2467 258.963 43.96 259.336 44.64C259.71 45.3067 260.183 45.9067 260.756 46.44C261.33 46.9733 262.01 47.4 262.796 47.72L261.336 49.84C260.456 49.4533 259.69 48.9333 259.036 48.28C258.383 47.6267 257.836 46.8733 257.396 46.02C256.956 45.1667 256.63 44.2533 256.416 43.28C256.203 42.2933 256.096 41.2867 256.096 40.26V38.18ZM251.636 37.02H262.036V39.22H251.636V37.02ZM263.756 35.26H266.416V53.78H263.756V35.26ZM271.515 36.08H283.235V38.18H271.515V36.08ZM269.455 42.74H286.235V44.84H269.455V42.74ZM281.635 36.08H284.255V37.56C284.255 38.3467 284.235 39.1933 284.195 40.1C284.155 41.0067 283.995 42.06 283.715 43.26L281.055 43.24C281.348 42.0267 281.515 40.9733 281.555 40.08C281.608 39.1867 281.635 38.3467 281.635 37.56V36.08ZM271.415 46.78H284.175V53.58H271.415V46.78ZM281.575 48.86H274.035V51.48H281.575V48.86ZM289.113 35.84H291.633V37.64H293.213V35.84H295.713V43.44H289.113V35.84ZM291.633 39.7V41.34H293.213V39.7H291.633ZM296.733 35.84H299.233V37.64H300.793V35.84H303.293V43.44H296.733V35.84ZM299.233 39.7V41.34H300.793V39.7H299.233ZM287.833 44.78H304.613V46.86H287.833V44.78ZM295.113 45.94H297.773V49.86H295.113V45.94ZM289.773 51.36H302.753V53.5H289.773V51.36ZM289.773 48.46H292.433V52.34H289.773V48.46ZM309.492 47.26H307.112L306.612 37.72H309.992L309.492 47.26ZM306.572 50.6C306.572 49.9867 306.738 49.56 307.072 49.32C307.405 49.0667 307.812 48.94 308.292 48.94C308.758 48.94 309.158 49.0667 309.492 49.32C309.825 49.56 309.992 49.9867 309.992 50.6C309.992 51.1867 309.825 51.6133 309.492 51.88C309.158 52.1333 308.758 52.26 308.292 52.26C307.812 52.26 307.405 52.1333 307.072 51.88C306.738 51.6133 306.572 51.1867 306.572 50.6ZM152.991 63.82H164.711V65.94H152.991V63.82ZM151.271 76.38H168.031V78.54H151.271V76.38ZM157.191 70.02H159.871V77.46H157.191V70.02ZM163.751 63.82H166.431V65.58C166.431 66.3533 166.418 67.1733 166.391 68.04C166.378 68.9067 166.318 69.8667 166.211 70.92C166.118 71.9733 165.945 73.1533 165.691 74.46L163.031 74.18C163.405 72.3267 163.618 70.7133 163.671 69.34C163.725 67.9533 163.751 66.7 163.751 65.58V63.82ZM170.59 63.7H179.57V72.68H170.59V63.7ZM176.97 65.82H173.21V70.56H176.97V65.82ZM182.39 62.26H185.05V75.42H182.39V62.26ZM172.71 78.26H185.53V80.38H172.71V78.26ZM172.71 74.24H175.37V79.2H172.71V74.24ZM199.968 62.24H202.628V72.24H199.968V62.24ZM201.588 66.18H205.088V68.34H201.588V66.18ZM190.408 72.98H202.628V77.68H193.068V79.34H190.428V75.86H200.008V74.9H190.408V72.98ZM190.428 78.7H203.168V80.66H190.428V78.7ZM188.068 63.62H198.948V65.6H188.068V63.62ZM193.508 66.04C194.895 66.04 196.001 66.3133 196.828 66.86C197.655 67.4067 198.068 68.1467 198.068 69.08C198.068 70.0133 197.655 70.7533 196.828 71.3C196.001 71.8333 194.895 72.1 193.508 72.1C192.135 72.1 191.028 71.8333 190.188 71.3C189.361 70.7533 188.948 70.0133 188.948 69.08C188.948 68.1467 189.361 67.4067 190.188 66.86C191.028 66.3133 192.135 66.04 193.508 66.04ZM193.508 67.92C192.895 67.92 192.408 68.02 192.048 68.22C191.688 68.4067 191.508 68.6933 191.508 69.08C191.508 69.4667 191.688 69.7533 192.048 69.94C192.408 70.1267 192.895 70.22 193.508 70.22C194.135 70.22 194.621 70.1267 194.968 69.94C195.328 69.7533 195.508 69.4667 195.508 69.08C195.508 68.6933 195.328 68.4067 194.968 68.22C194.621 68.02 194.135 67.92 193.508 67.92ZM192.188 62.12H194.828V65.02H192.188V62.12ZM216.162 63.68H218.342V66.36C218.342 67.56 218.235 68.7133 218.022 69.82C217.808 70.9133 217.482 71.94 217.042 72.9C216.615 73.8467 216.062 74.6867 215.382 75.42C214.715 76.14 213.922 76.7133 213.002 77.14L211.422 74.94C212.235 74.58 212.935 74.1067 213.522 73.52C214.122 72.92 214.615 72.24 215.002 71.48C215.388 70.7067 215.675 69.8867 215.862 69.02C216.062 68.1533 216.162 67.2667 216.162 66.36V63.68ZM216.682 63.68H218.842V66.36C218.842 67.2267 218.935 68.0733 219.122 68.9C219.308 69.7267 219.588 70.5067 219.962 71.24C220.348 71.9733 220.828 72.6267 221.402 73.2C221.988 73.76 222.675 74.2067 223.462 74.54L221.922 76.7C221.028 76.2867 220.248 75.7333 219.582 75.04C218.928 74.3467 218.388 73.5467 217.962 72.64C217.535 71.72 217.215 70.7333 217.002 69.68C216.788 68.6133 216.682 67.5067 216.682 66.36V63.68ZM224.362 62.22H227.022V80.8H224.362V62.22ZM241.94 62.26H244.62V75.5H241.94V62.26ZM243.88 67.42H247.08V69.6H243.88V67.42ZM236.8 63.64H239.62C239.62 65.32 239.287 66.82 238.62 68.14C237.954 69.46 236.98 70.5867 235.7 71.52C234.434 72.4533 232.874 73.1867 231.02 73.72L229.92 71.62C231.427 71.1933 232.687 70.6467 233.7 69.98C234.727 69.3133 235.5 68.5533 236.02 67.7C236.54 66.8467 236.8 65.9267 236.8 64.94V63.64ZM230.72 63.64H238.22V65.76H230.72V63.64ZM232.66 78.32H245.26V80.46H232.66V78.32ZM232.66 74.16H235.32V79.28H232.66V74.16ZM255.859 69.06H258.899V71.2H255.859V69.06ZM261.819 62.24H264.359V80.76H261.819V62.24ZM258.059 62.54H260.539V79.94H258.059V62.54ZM252.619 63.54C253.432 63.54 254.139 63.8133 254.739 64.36C255.352 64.8933 255.819 65.6667 256.139 66.68C256.472 67.68 256.639 68.88 256.639 70.28C256.639 71.6667 256.472 72.8667 256.139 73.88C255.819 74.8933 255.352 75.6733 254.739 76.22C254.139 76.7533 253.425 77.02 252.599 77.02C251.799 77.02 251.092 76.7533 250.479 76.22C249.879 75.6733 249.412 74.8933 249.079 73.88C248.759 72.8667 248.599 71.6667 248.599 70.28C248.599 68.88 248.759 67.68 249.079 66.68C249.412 65.6667 249.879 64.8933 250.479 64.36C251.092 63.8133 251.805 63.54 252.619 63.54ZM252.619 66.06C252.285 66.06 251.999 66.2133 251.759 66.52C251.519 66.8267 251.332 67.2933 251.199 67.92C251.079 68.5333 251.019 69.32 251.019 70.28C251.019 71.2133 251.079 71.9933 251.199 72.62C251.332 73.2467 251.519 73.72 251.759 74.04C251.999 74.3467 252.285 74.5 252.619 74.5C252.952 74.5 253.239 74.3467 253.479 74.04C253.732 73.72 253.919 73.2467 254.039 72.62C254.159 71.9933 254.219 71.2133 254.219 70.28C254.219 69.32 254.159 68.5333 254.039 67.92C253.919 67.2933 253.732 66.8267 253.479 66.52C253.239 66.2133 252.952 66.06 252.619 66.06ZM285.412 62.24H287.952V80.76H285.412V62.24ZM283.192 69.32H286.272V71.44H283.192V69.32ZM281.372 62.54H283.852V79.94H281.372V62.54ZM272.572 64.14H279.872V76.14H272.572V64.14ZM277.412 66.22H275.052V74.08H277.412V66.22ZM297.431 62.78H299.751V63.66C299.751 64.3667 299.638 65.0533 299.411 65.72C299.198 66.3733 298.878 66.9867 298.451 67.56C298.024 68.1333 297.504 68.6467 296.891 69.1C296.278 69.5533 295.564 69.94 294.751 70.26C293.951 70.5667 293.071 70.8 292.111 70.96L291.071 68.82C291.924 68.7133 292.684 68.5333 293.351 68.28C294.031 68.0267 294.624 67.7267 295.131 67.38C295.651 67.0333 296.078 66.6533 296.411 66.24C296.744 65.8267 296.998 65.4 297.171 64.96C297.344 64.52 297.431 64.0867 297.431 63.66V62.78ZM297.931 62.78H300.251V63.66C300.251 64.0867 300.338 64.52 300.511 64.96C300.684 65.4 300.938 65.8267 301.271 66.24C301.604 66.6533 302.024 67.0333 302.531 67.38C303.051 67.7267 303.644 68.0267 304.311 68.28C304.991 68.5333 305.758 68.7133 306.611 68.82L305.571 70.96C304.598 70.8 303.711 70.5667 302.911 70.26C302.111 69.94 301.404 69.5533 300.791 69.1C300.178 68.6333 299.658 68.1133 299.231 67.54C298.804 66.9667 298.478 66.3533 298.251 65.7C298.038 65.0467 297.931 64.3667 297.931 63.66V62.78ZM297.431 73.98H300.091V80.78H297.431V73.98ZM290.451 72.3H307.211V74.46H290.451V72.3ZM308.849 72.9H325.609V75H308.849V72.9ZM315.829 73.96H318.489V80.78H315.829V73.96ZM310.749 62.96H313.389V65.06H321.009V62.96H323.629V71.14H310.749V62.96ZM313.389 67.14V69.04H321.009V67.14H313.389ZM340.128 62.22H342.788V80.8H340.128V62.22ZM336.948 68.76H340.448V70.92H336.948V68.76ZM328.068 74.48H329.568C330.594 74.48 331.541 74.4667 332.408 74.44C333.288 74.4133 334.141 74.3667 334.968 74.3C335.794 74.2333 336.641 74.14 337.508 74.02L337.768 76.12C336.874 76.2667 335.994 76.3733 335.128 76.44C334.274 76.5067 333.394 76.5533 332.488 76.58C331.581 76.6067 330.608 76.62 329.568 76.62H328.068V74.48ZM328.068 63.78H336.648V65.94H330.728V75.14H328.068V63.78ZM330.108 68.94H336.028V71.02H330.108V68.94ZM348.886 74.26H346.506L346.006 64.72H349.386L348.886 74.26ZM345.966 77.6C345.966 76.9867 346.133 76.56 346.466 76.32C346.8 76.0667 347.206 75.94 347.686 75.94C348.153 75.94 348.553 76.0667 348.886 76.32C349.22 76.56 349.386 76.9867 349.386 77.6C349.386 78.1867 349.22 78.6133 348.886 78.88C348.553 79.1333 348.153 79.26 347.686 79.26C347.206 79.26 346.8 79.1333 346.466 78.88C346.133 78.6133 345.966 78.1867 345.966 77.6Z" fill="white"/>
</svg>
