<svg width="420" height="120" viewBox="0 0 420 120" fill="none" xmlns="http://www.w3.org/2000/svg">
<rect width="420" height="120" rx="10" fill="#C0D5FE"/>
<path d="M195.865 46.6H212.625V48.74H195.865V46.6ZM202.845 47.96H205.505V54.78H202.845V47.96ZM197.785 37.16H210.625V44.62H197.785V37.16ZM208.025 39.24H200.405V42.54H208.025V39.24ZM214.263 50.48H231.043V52.64H214.263V50.48ZM221.323 46.38H223.963V51.08H221.323V46.38ZM221.223 38.66H223.483V39.34C223.483 40.1133 223.37 40.8533 223.143 41.56C222.93 42.2667 222.61 42.9267 222.183 43.54C221.77 44.1533 221.257 44.7 220.643 45.18C220.03 45.66 219.33 46.0733 218.543 46.42C217.757 46.7667 216.897 47.0267 215.963 47.2L214.903 45.08C215.73 44.9467 216.477 44.7467 217.143 44.48C217.823 44.2133 218.417 43.8933 218.923 43.52C219.43 43.1467 219.85 42.7333 220.183 42.28C220.53 41.8267 220.79 41.3533 220.963 40.86C221.137 40.3667 221.223 39.86 221.223 39.34V38.66ZM221.783 38.66H224.023V39.34C224.023 39.86 224.11 40.3667 224.283 40.86C224.457 41.34 224.717 41.8067 225.063 42.26C225.41 42.7 225.837 43.1067 226.343 43.48C226.863 43.84 227.463 44.1533 228.143 44.42C228.837 44.6867 229.603 44.88 230.443 45L229.403 47.1C228.443 46.9267 227.563 46.6733 226.763 46.34C225.977 46.0067 225.27 45.6 224.643 45.12C224.03 44.64 223.51 44.1067 223.083 43.52C222.657 42.92 222.33 42.2667 222.103 41.56C221.89 40.8533 221.783 40.1133 221.783 39.34V38.66ZM215.643 37.66H229.603V39.78H215.643V37.66ZM245.482 36.24H248.162V49.78H245.482V36.24ZM242.302 41.64H245.862V43.8H242.302V41.64ZM239.662 37.64H242.442C242.442 39.3067 242.108 40.8133 241.442 42.16C240.775 43.5067 239.808 44.6733 238.542 45.66C237.288 46.6467 235.762 47.4267 233.962 48L232.862 45.88C234.288 45.4267 235.508 44.8533 236.522 44.16C237.535 43.4533 238.308 42.6533 238.842 41.76C239.388 40.8533 239.662 39.88 239.662 38.84V37.64ZM233.822 37.64H241.342V39.76H233.822V37.64ZM236.022 52.32H248.622V54.46H236.022V52.32ZM236.022 48.44H238.682V53.56H236.022V48.44ZM258.276 52.32H271.116V54.46H258.276V52.32ZM258.276 49.1H260.936V53.06H258.276V49.1ZM256.236 45.86H273.016V47.96H256.236V45.86ZM263.256 43.26H265.916V46.66H263.256V43.26ZM263.236 36.78H265.516V37.34C265.516 38.0467 265.409 38.72 265.196 39.36C264.982 39.9867 264.669 40.5733 264.256 41.12C263.856 41.6667 263.356 42.16 262.756 42.6C262.156 43.0267 261.469 43.3933 260.696 43.7C259.936 44.0067 259.082 44.2333 258.136 44.38L257.116 42.3C257.942 42.1933 258.682 42.02 259.336 41.78C259.989 41.54 260.556 41.26 261.036 40.94C261.529 40.6067 261.936 40.2467 262.256 39.86C262.589 39.46 262.836 39.0467 262.996 38.62C263.156 38.1933 263.236 37.7667 263.236 37.34V36.78ZM263.676 36.78H265.936V37.34C265.936 37.78 266.016 38.22 266.176 38.66C266.336 39.0867 266.576 39.5 266.896 39.9C267.216 40.2867 267.616 40.64 268.096 40.96C268.589 41.28 269.162 41.56 269.816 41.8C270.482 42.0267 271.229 42.1933 272.056 42.3L271.056 44.38C270.109 44.2333 269.249 44.0133 268.476 43.72C267.702 43.4133 267.016 43.0467 266.416 42.62C265.816 42.18 265.309 41.6933 264.896 41.16C264.496 40.6133 264.189 40.02 263.976 39.38C263.776 38.74 263.676 38.06 263.676 37.34V36.78ZM284.654 40.02H289.234V42.14H284.654V40.02ZM278.834 37.8H280.994V38.84C280.994 39.8667 280.801 40.8733 280.414 41.86C280.041 42.8333 279.461 43.6933 278.674 44.44C277.901 45.1733 276.921 45.7133 275.734 46.06L274.494 44C275.241 43.76 275.881 43.4533 276.414 43.08C276.961 42.6933 277.414 42.2667 277.774 41.8C278.134 41.3333 278.401 40.8467 278.574 40.34C278.747 39.8333 278.834 39.3333 278.834 38.84V37.8ZM279.374 37.8H281.534V38.84C281.534 39.48 281.681 40.1133 281.974 40.74C282.267 41.3667 282.721 41.9333 283.334 42.44C283.947 42.9333 284.734 43.32 285.694 43.6L284.454 45.68C283.307 45.3467 282.354 44.84 281.594 44.16C280.847 43.4667 280.287 42.66 279.914 41.74C279.554 40.82 279.374 39.8533 279.374 38.84V37.8ZM275.194 36.94H285.154V39.06H275.194V36.94ZM287.474 36.26H290.134V45.66H287.474V36.26ZM277.894 46.4H290.134V51.4H280.554V53.74H277.934V49.48H287.514V48.44H277.894V46.4ZM277.934 52.52H290.674V54.58H277.934V52.52ZM296.292 48.26H293.912L293.412 38.72H296.792L296.292 48.26ZM293.372 51.6C293.372 50.9867 293.539 50.56 293.872 50.32C294.206 50.0667 294.612 49.94 295.092 49.94C295.559 49.94 295.959 50.0667 296.292 50.32C296.626 50.56 296.792 50.9867 296.792 51.6C296.792 52.1867 296.626 52.6133 296.292 52.88C295.959 53.1333 295.559 53.26 295.092 53.26C294.612 53.26 294.206 53.1333 293.872 52.88C293.539 52.6133 293.372 52.1867 293.372 51.6ZM163.095 63.22H165.775V81.8H163.095V63.22ZM165.195 70.08H168.455V72.28H165.195V70.08ZM151.975 75.16H153.535C154.588 75.16 155.575 75.1467 156.495 75.12C157.415 75.08 158.308 75.02 159.175 74.94C160.042 74.8467 160.928 74.72 161.835 74.56L162.095 76.76C161.162 76.92 160.242 77.0467 159.335 77.14C158.442 77.2333 157.522 77.2933 156.575 77.32C155.628 77.3467 154.615 77.36 153.535 77.36H151.975V75.16ZM151.975 64.94H160.615V67.08H154.635V76.2H151.975V64.94ZM174.174 64.68H176.354V67.36C176.354 68.56 176.247 69.7133 176.034 70.82C175.82 71.9133 175.494 72.94 175.054 73.9C174.627 74.8467 174.074 75.6867 173.394 76.42C172.727 77.14 171.934 77.7133 171.014 78.14L169.434 75.94C170.247 75.58 170.947 75.1067 171.534 74.52C172.134 73.92 172.627 73.24 173.014 72.48C173.4 71.7067 173.687 70.8867 173.874 70.02C174.074 69.1533 174.174 68.2667 174.174 67.36V64.68ZM174.694 64.68H176.854V67.36C176.854 68.2267 176.947 69.0733 177.134 69.9C177.32 70.7267 177.6 71.5067 177.974 72.24C178.36 72.9733 178.84 73.6267 179.414 74.2C180 74.76 180.687 75.2067 181.474 75.54L179.934 77.7C179.04 77.2867 178.26 76.7333 177.594 76.04C176.94 75.3467 176.4 74.5467 175.974 73.64C175.547 72.72 175.227 71.7333 175.014 70.68C174.8 69.6133 174.694 68.5067 174.694 67.36V64.68ZM182.374 63.22H185.034V81.8H182.374V63.22ZM190.132 68.24H202.972V70.36H190.132V68.24ZM188.072 72.28H204.832V74.4H188.072V72.28ZM190.132 63.9H192.792V69.3H190.132V63.9ZM189.972 79.24H203.072V81.38H189.972V79.24ZM189.972 75.86H192.632V79.82H189.972V75.86ZM224.366 63.22H227.026V81.8H224.366V63.22ZM217.046 64.52C217.992 64.52 218.832 64.7933 219.566 65.34C220.299 65.8733 220.872 66.64 221.286 67.64C221.712 68.6267 221.926 69.7933 221.926 71.14C221.926 72.5 221.712 73.68 221.286 74.68C220.872 75.6667 220.299 76.4333 219.566 76.98C218.832 77.5133 217.992 77.78 217.046 77.78C216.112 77.78 215.279 77.5133 214.546 76.98C213.812 76.4333 213.232 75.6667 212.806 74.68C212.392 73.68 212.186 72.5 212.186 71.14C212.186 69.7933 212.392 68.6267 212.806 67.64C213.232 66.64 213.812 65.8733 214.546 65.34C215.279 64.7933 216.112 64.52 217.046 64.52ZM217.046 66.94C216.592 66.94 216.192 67.1 215.846 67.42C215.499 67.74 215.226 68.2133 215.026 68.84C214.839 69.4533 214.746 70.22 214.746 71.14C214.746 72.0467 214.839 72.82 215.026 73.46C215.226 74.0867 215.499 74.56 215.846 74.88C216.192 75.2 216.592 75.36 217.046 75.36C217.512 75.36 217.919 75.2 218.266 74.88C218.612 74.56 218.879 74.0867 219.066 73.46C219.266 72.82 219.366 72.0467 219.366 71.14C219.366 70.22 219.266 69.4533 219.066 68.84C218.879 68.2133 218.612 67.74 218.266 67.42C217.919 67.1 217.512 66.94 217.046 66.94ZM230.764 72.38H232.264C233.424 72.38 234.457 72.3733 235.364 72.36C236.271 72.3333 237.124 72.2867 237.924 72.22C238.724 72.1533 239.531 72.06 240.344 71.94L240.564 74.04C239.711 74.1867 238.871 74.2933 238.044 74.36C237.231 74.4133 236.357 74.4533 235.424 74.48C234.504 74.5067 233.451 74.52 232.264 74.52H230.764V72.38ZM230.724 64.46H239.084V70.4H233.404V73.78H230.764V68.42H236.464V66.58H230.724V64.46ZM242.884 63.26H245.564V76.88H242.884V63.26ZM233.224 79.32H246.004V81.46H233.224V79.32ZM233.224 75.82H235.904V80.02H233.224V75.82ZM239.984 67.7H243.424V69.94H239.984V67.7ZM266.378 63.26H269.038V72.6H266.378V63.26ZM256.698 73.42H269.038V78.44H259.338V80.3H256.718V76.54H266.398V75.46H256.698V73.42ZM256.718 79.58H269.498V81.66H256.718V79.58ZM257.998 63.68H260.198V65.06C260.198 66.1933 260.005 67.2733 259.618 68.3C259.231 69.3267 258.638 70.22 257.838 70.98C257.051 71.74 256.051 72.3067 254.838 72.68L253.558 70.58C254.331 70.34 254.998 70.0267 255.558 69.64C256.118 69.2533 256.578 68.8133 256.938 68.32C257.298 67.8267 257.565 67.3067 257.738 66.76C257.911 66.2 257.998 65.6333 257.998 65.06V63.68ZM258.538 63.68H260.698V65.06C260.698 65.62 260.785 66.1667 260.958 66.7C261.131 67.22 261.391 67.7133 261.738 68.18C262.085 68.6467 262.531 69.06 263.078 69.42C263.625 69.78 264.271 70.0667 265.018 70.28L263.738 72.36C262.858 72.0933 262.091 71.7267 261.438 71.26C260.785 70.78 260.238 70.22 259.798 69.58C259.371 68.9267 259.051 68.22 258.838 67.46C258.638 66.7 258.538 65.9 258.538 65.06V63.68ZM279.036 63.78H281.356V64.66C281.356 65.3667 281.243 66.0533 281.016 66.72C280.803 67.3733 280.483 67.9867 280.056 68.56C279.63 69.1333 279.11 69.6467 278.496 70.1C277.883 70.5533 277.17 70.94 276.356 71.26C275.556 71.5667 274.676 71.8 273.716 71.96L272.676 69.82C273.53 69.7133 274.29 69.5333 274.956 69.28C275.636 69.0267 276.23 68.7267 276.736 68.38C277.256 68.0333 277.683 67.6533 278.016 67.24C278.35 66.8267 278.603 66.4 278.776 65.96C278.95 65.52 279.036 65.0867 279.036 64.66V63.78ZM279.536 63.78H281.856V64.66C281.856 65.0867 281.943 65.52 282.116 65.96C282.29 66.4 282.543 66.8267 282.876 67.24C283.21 67.6533 283.63 68.0333 284.136 68.38C284.656 68.7267 285.25 69.0267 285.916 69.28C286.596 69.5333 287.363 69.7133 288.216 69.82L287.176 71.96C286.203 71.8 285.316 71.5667 284.516 71.26C283.716 70.94 283.01 70.5533 282.396 70.1C281.783 69.6333 281.263 69.1133 280.836 68.54C280.41 67.9667 280.083 67.3533 279.856 66.7C279.643 66.0467 279.536 65.3667 279.536 64.66V63.78ZM279.036 74.98H281.696V81.78H279.036V74.98ZM272.056 73.3H288.816V75.46H272.056V73.3ZM307.55 63.26H310.21V76.72H307.55V63.26ZM309.47 68.54H312.67V70.74H309.47V68.54ZM298.27 79.32H310.87V81.46H298.27V79.32ZM298.27 75.32H300.95V80.28H298.27V75.32ZM300.79 64.44C301.737 64.44 302.59 64.64 303.35 65.04C304.11 65.44 304.71 65.9933 305.15 66.7C305.603 67.4067 305.83 68.22 305.83 69.14C305.83 70.0467 305.603 70.86 305.15 71.58C304.71 72.2867 304.11 72.8467 303.35 73.26C302.59 73.66 301.737 73.86 300.79 73.86C299.843 73.86 298.99 73.66 298.23 73.26C297.47 72.8467 296.87 72.2867 296.43 71.58C295.99 70.86 295.77 70.0467 295.77 69.14C295.77 68.22 295.99 67.4067 296.43 66.7C296.87 65.9933 297.47 65.44 298.23 65.04C298.99 64.64 299.843 64.44 300.79 64.44ZM300.79 66.74C300.337 66.74 299.923 66.84 299.55 67.04C299.19 67.2267 298.903 67.5 298.69 67.86C298.477 68.2067 298.37 68.6333 298.37 69.14C298.37 69.6467 298.477 70.08 298.69 70.44C298.903 70.7867 299.19 71.06 299.55 71.26C299.923 71.4467 300.337 71.54 300.79 71.54C301.257 71.54 301.67 71.4467 302.03 71.26C302.403 71.06 302.697 70.7867 302.91 70.44C303.123 70.08 303.23 69.6467 303.23 69.14C303.23 68.6333 303.123 68.2067 302.91 67.86C302.697 67.5 302.403 67.2267 302.03 67.04C301.67 66.84 301.257 66.74 300.79 66.74ZM319.224 66.04H328.084V68.14H319.224V66.04ZM323.684 68.98C324.47 68.98 325.164 69.1667 325.764 69.54C326.377 69.9133 326.857 70.4333 327.204 71.1C327.564 71.7533 327.744 72.5133 327.744 73.38C327.744 74.2467 327.564 75.0133 327.204 75.68C326.857 76.3333 326.377 76.8467 325.764 77.22C325.164 77.5933 324.47 77.78 323.684 77.78C322.897 77.78 322.197 77.5933 321.584 77.22C320.97 76.8467 320.49 76.3333 320.144 75.68C319.797 75.0133 319.624 74.2467 319.624 73.38C319.624 72.5133 319.797 71.7533 320.144 71.1C320.49 70.4333 320.97 69.9133 321.584 69.54C322.21 69.1667 322.91 68.98 323.684 68.98ZM323.684 71.18C323.364 71.18 323.07 71.2667 322.804 71.44C322.537 71.6133 322.33 71.8667 322.184 72.2C322.037 72.52 321.964 72.9133 321.964 73.38C321.964 73.8467 322.037 74.2467 322.184 74.58C322.33 74.9133 322.537 75.1667 322.804 75.34C323.07 75.5 323.364 75.58 323.684 75.58C324.017 75.58 324.31 75.5 324.564 75.34C324.817 75.1667 325.017 74.9133 325.164 74.58C325.31 74.2467 325.384 73.8467 325.384 73.38C325.384 72.9133 325.31 72.52 325.164 72.2C325.017 71.8667 324.817 71.6133 324.564 71.44C324.31 71.2667 324.017 71.18 323.684 71.18ZM332.624 63.24H335.144V81.76H332.624V63.24ZM330.404 70.78H333.444V72.92H330.404V70.78ZM328.724 63.58H331.204V80.98H328.724V63.58ZM322.384 63.74H325.004V67.36H322.384V63.74ZM340.882 75.26H338.502L338.002 65.72H341.382L340.882 75.26ZM337.962 78.6C337.962 77.9867 338.129 77.56 338.462 77.32C338.796 77.0667 339.202 76.94 339.682 76.94C340.149 76.94 340.549 77.0667 340.882 77.32C341.216 77.56 341.382 77.9867 341.382 78.6C341.382 79.1867 341.216 79.6133 340.882 79.88C340.549 80.1333 340.149 80.26 339.682 80.26C339.202 80.26 338.796 80.1333 338.462 79.88C338.129 79.6133 337.962 79.1867 337.962 78.6Z" fill="white"/>
</svg>
