<svg width="335" height="92" viewBox="0 0 335 92" fill="none" xmlns="http://www.w3.org/2000/svg">
<rect x="0.5" y="0.5" width="334" height="90.7808" rx="45.3904" stroke="#67D3EC"/>
<path d="M139.224 34.864H142.416V57.16H139.224V34.864ZM130.44 36.424C131.576 36.424 132.584 36.752 133.464 37.408C134.344 38.048 135.032 38.968 135.528 40.168C136.04 41.352 136.296 42.752 136.296 44.368C136.296 46 136.04 47.416 135.528 48.616C135.032 49.8 134.344 50.72 133.464 51.376C132.584 52.016 131.576 52.336 130.44 52.336C129.32 52.336 128.32 52.016 127.44 51.376C126.56 50.72 125.864 49.8 125.352 48.616C124.856 47.416 124.608 46 124.608 44.368C124.608 42.752 124.856 41.352 125.352 40.168C125.864 38.968 126.56 38.048 127.44 37.408C128.32 36.752 129.32 36.424 130.44 36.424ZM130.44 39.328C129.896 39.328 129.416 39.52 129 39.904C128.584 40.288 128.256 40.856 128.016 41.608C127.792 42.344 127.68 43.264 127.68 44.368C127.68 45.456 127.792 46.384 128.016 47.152C128.256 47.904 128.584 48.472 129 48.856C129.416 49.24 129.896 49.432 130.44 49.432C131 49.432 131.488 49.24 131.904 48.856C132.32 48.472 132.64 47.904 132.864 47.152C133.104 46.384 133.224 45.456 133.224 44.368C133.224 43.264 133.104 42.344 132.864 41.608C132.64 40.856 132.32 40.288 131.904 39.904C131.488 39.52 131 39.328 130.44 39.328ZM157.966 40.648H163.126V43.216H157.966V40.648ZM161.446 34.912H164.662V51.112H161.446V34.912ZM149.974 54.184H165.166V56.752H149.974V54.184ZM149.974 49.744H153.166V55.696H149.974V49.744ZM151.198 37.816H153.79V39.208C153.79 40.616 153.566 41.952 153.118 43.216C152.67 44.48 151.982 45.592 151.054 46.552C150.142 47.496 148.966 48.208 147.526 48.688L145.942 46.144C146.854 45.84 147.638 45.448 148.294 44.968C148.966 44.472 149.51 43.912 149.926 43.288C150.358 42.664 150.678 42.008 150.886 41.32C151.094 40.632 151.198 39.928 151.198 39.208V37.816ZM151.87 37.816H154.414V39.208C154.414 40.072 154.59 40.936 154.942 41.8C155.294 42.648 155.838 43.424 156.574 44.128C157.326 44.816 158.286 45.36 159.454 45.76L157.894 48.232C156.518 47.768 155.382 47.088 154.486 46.192C153.606 45.28 152.95 44.224 152.518 43.024C152.086 41.808 151.87 40.536 151.87 39.208V37.816ZM146.806 36.4H158.758V38.944H146.806V36.4ZM178.172 36.016C179.74 36.016 181.148 36.28 182.396 36.808C183.66 37.336 184.652 38.08 185.372 39.04C186.108 40 186.476 41.128 186.476 42.424C186.476 43.72 186.108 44.856 185.372 45.832C184.652 46.792 183.66 47.536 182.396 48.064C181.148 48.592 179.74 48.856 178.172 48.856C176.62 48.856 175.212 48.592 173.948 48.064C172.7 47.536 171.708 46.792 170.972 45.832C170.236 44.856 169.868 43.72 169.868 42.424C169.868 41.128 170.236 40 170.972 39.04C171.708 38.08 172.7 37.336 173.948 36.808C175.212 36.28 176.62 36.016 178.172 36.016ZM178.172 38.608C177.18 38.608 176.292 38.76 175.508 39.064C174.724 39.368 174.108 39.808 173.66 40.384C173.228 40.944 173.012 41.624 173.012 42.424C173.012 43.224 173.228 43.912 173.66 44.488C174.108 45.048 174.724 45.48 175.508 45.784C176.292 46.088 177.18 46.24 178.172 46.24C179.196 46.24 180.092 46.088 180.86 45.784C181.644 45.48 182.252 45.048 182.684 44.488C183.132 43.912 183.356 43.224 183.356 42.424C183.356 41.624 183.132 40.944 182.684 40.384C182.252 39.808 181.644 39.368 180.86 39.064C180.092 38.76 179.196 38.608 178.172 38.608ZM168.14 51.832H188.276V54.448H168.14V51.832ZM190.218 52.096H210.354V54.688H190.218V52.096ZM198.666 47.872H201.834V53.128H198.666V47.872ZM192.498 36.328H208.074V43.744H195.69V47.464H192.522V41.248H204.906V38.872H192.498V36.328ZM192.522 46.216H208.578V48.76H192.522V46.216Z" fill="#67D3EC"/>
</svg>
