<svg width="20" height="20" viewBox="0 0 20 20" fill="none" xmlns="http://www.w3.org/2000/svg">
<rect width="20" height="20" fill="white"/>
<path d="M14.8417 18.3834C14.3167 18.3834 13.7917 18.2584 13.2917 17.9917L3.63333 12.9084C2.55 12.3417 1.875 11.225 1.875 10C1.875 8.77502 2.55 7.65835 3.63333 7.09169L13.2917 2.00835C14.5833 1.33335 16.0833 1.55002 17.125 2.56669C18.1667 3.58335 18.4167 5.08335 17.7667 6.38335L16.4167 9.08335C16.1333 9.65002 16.1333 10.3334 16.4167 10.9084L17.7667 13.6084C18.4167 14.9084 18.1667 16.4084 17.125 17.425C16.4833 18.0584 15.675 18.3834 14.8417 18.3834ZM14.8333 2.86669C14.5333 2.86669 14.2083 2.94169 13.875 3.11669L4.21667 8.20002C3.53333 8.55835 3.125 9.23335 3.125 10C3.125 10.7667 3.53333 11.4417 4.21667 11.8L13.875 16.8834C14.8417 17.3917 15.7417 17.0417 16.25 16.5334C16.7667 16.0334 17.1333 15.1417 16.65 14.1667L15.3 11.4667C14.8417 10.5417 14.8417 9.45002 15.3 8.52502L16.65 5.82502C17.1417 4.85002 16.7667 3.95835 16.25 3.45835C15.9167 3.13335 15.4167 2.86669 14.8333 2.86669Z" fill="#564B4B"/>
</svg>
