<svg width="335" height="92" viewBox="0 0 335 92" fill="none" xmlns="http://www.w3.org/2000/svg">
<rect x="0.5" y="0.5" width="334" height="90.7808" rx="45.3904" stroke="#67D3EC"/>
<path d="M151.568 43.288H155.48V45.928H151.568V43.288ZM149.168 34.864H152.384V57.088H149.168V34.864ZM135.656 37H138.824V50.824H135.656V37ZM135.656 49.024H137.552C139.136 49.024 140.784 48.96 142.496 48.832C144.208 48.704 145.96 48.464 147.752 48.112L148.088 50.704C146.232 51.088 144.424 51.352 142.664 51.496C140.904 51.624 139.2 51.688 137.552 51.688H135.656V49.024ZM171.246 34.864H174.462V57.088H171.246V34.864ZM173.646 43.384H177.558V46H173.646V43.384ZM165.414 37.168H168.558C168.558 39.392 168.238 41.496 167.598 43.48C166.974 45.464 165.934 47.288 164.478 48.952C163.038 50.6 161.086 52.04 158.622 53.272L156.822 50.848C158.774 49.84 160.382 48.704 161.646 47.44C162.926 46.176 163.87 44.744 164.478 43.144C165.102 41.528 165.414 39.728 165.414 37.744V37.168ZM158.046 37.168H167.07V39.736H158.046V37.168ZM194.452 34.888H197.644V57.112H194.452V34.888ZM187.9 37.192H191.044C191.044 38.888 190.876 40.512 190.54 42.064C190.22 43.6 189.676 45.048 188.908 46.408C188.156 47.768 187.116 49.032 185.788 50.2C184.476 51.352 182.836 52.408 180.868 53.368L179.188 50.848C181.332 49.808 183.036 48.664 184.3 47.416C185.58 46.152 186.5 44.728 187.06 43.144C187.62 41.544 187.9 39.752 187.9 37.768V37.192ZM180.388 37.192H189.388V39.736H180.388V37.192Z" fill="#67D3EC"/>
</svg>
