<svg width="26" height="19" viewBox="0 0 26 19" fill="none" xmlns="http://www.w3.org/2000/svg">
<rect width="26" height="19" fill="black"/>
<path d="M5.682 14.182C5.15 14.182 4.67867 14.1167 4.268 13.986C3.86667 13.8553 3.512 13.6827 3.204 13.468C2.896 13.2533 2.63 13.02 2.406 12.768L3.064 11.942C3.36267 12.25 3.71267 12.5253 4.114 12.768C4.52467 13.0013 5.01933 13.118 5.598 13.118C6.00867 13.118 6.368 13.0433 6.676 12.894C6.99333 12.7353 7.24067 12.516 7.418 12.236C7.59533 11.9467 7.684 11.606 7.684 11.214C7.684 10.8033 7.58133 10.444 7.376 10.136C7.18 9.828 6.84867 9.59 6.382 9.422C5.91533 9.24467 5.28533 9.156 4.492 9.156V8.176C5.20133 8.176 5.76133 8.092 6.172 7.924C6.58267 7.74667 6.87667 7.50867 7.054 7.21C7.24067 6.91133 7.334 6.58 7.334 6.216C7.334 5.72133 7.18 5.32933 6.872 5.04C6.564 4.74133 6.13933 4.592 5.598 4.592C5.18733 4.592 4.8 4.68533 4.436 4.872C4.08133 5.05867 3.75933 5.29667 3.47 5.586L2.784 4.774C3.176 4.41933 3.60067 4.13 4.058 3.906C4.52467 3.67267 5.052 3.556 5.64 3.556C6.21867 3.556 6.732 3.65867 7.18 3.864C7.63733 4.06 7.992 4.34933 8.244 4.732C8.50533 5.11467 8.636 5.57667 8.636 6.118C8.636 6.74333 8.468 7.26133 8.132 7.672C7.796 8.08267 7.35733 8.386 6.816 8.582V8.652C7.21733 8.74533 7.58133 8.90867 7.908 9.142C8.23467 9.37533 8.496 9.66933 8.692 10.024C8.888 10.3787 8.986 10.7893 8.986 11.256C8.986 11.8627 8.83667 12.3853 8.538 12.824C8.23933 13.2627 7.84267 13.5987 7.348 13.832C6.85333 14.0653 6.298 14.182 5.682 14.182ZM9.91963 16.506L14.1196 2.884H15.0436L10.8576 16.506H9.91963ZM18.916 14.182C18.384 14.182 17.9127 14.1167 17.502 13.986C17.1007 13.8553 16.746 13.6873 16.438 13.482C16.1394 13.2767 15.8687 13.0573 15.626 12.824L16.27 11.984C16.466 12.18 16.6807 12.3667 16.914 12.544C17.1567 12.712 17.432 12.852 17.74 12.964C18.048 13.0667 18.398 13.118 18.79 13.118C19.1914 13.118 19.5554 13.02 19.882 12.824C20.218 12.628 20.484 12.348 20.68 11.984C20.876 11.62 20.974 11.1907 20.974 10.696C20.974 9.968 20.778 9.39867 20.386 8.988C20.0034 8.568 19.49 8.358 18.846 8.358C18.51 8.358 18.216 8.40933 17.964 8.512C17.712 8.61467 17.4367 8.764 17.138 8.96L16.452 8.526L16.788 3.738H21.772V4.83H17.908L17.642 7.798C17.866 7.66733 18.0994 7.56933 18.342 7.504C18.594 7.42933 18.874 7.392 19.182 7.392C19.7514 7.392 20.2694 7.50867 20.736 7.742C21.2027 7.966 21.576 8.32067 21.856 8.806C22.136 9.29133 22.276 9.912 22.276 10.668C22.276 11.4147 22.1127 12.0493 21.786 12.572C21.4687 13.0947 21.0534 13.496 20.54 13.776C20.0267 14.0467 19.4854 14.182 18.916 14.182Z" fill="white"/>
</svg>
