<svg width="26" height="19" viewBox="0 0 26 19" fill="none" xmlns="http://www.w3.org/2000/svg">
<rect width="26" height="19" fill="black"/>
<path d="M3.232 14V12.936H5.528V5.278H3.694V4.466C4.15133 4.382 4.548 4.27933 4.884 4.158C5.22933 4.03667 5.542 3.89667 5.822 3.738H6.802V12.936H8.86V14H3.232ZM9.91963 16.506L14.1196 2.884H15.0436L10.8576 16.506H9.91963ZM18.916 14.182C18.384 14.182 17.9127 14.1167 17.502 13.986C17.1007 13.8553 16.746 13.6873 16.438 13.482C16.1394 13.2767 15.8687 13.0573 15.626 12.824L16.27 11.984C16.466 12.18 16.6807 12.3667 16.914 12.544C17.1567 12.712 17.432 12.852 17.74 12.964C18.048 13.0667 18.398 13.118 18.79 13.118C19.1914 13.118 19.5554 13.02 19.882 12.824C20.218 12.628 20.484 12.348 20.68 11.984C20.876 11.62 20.974 11.1907 20.974 10.696C20.974 9.968 20.778 9.39867 20.386 8.988C20.0034 8.568 19.49 8.358 18.846 8.358C18.51 8.358 18.216 8.40933 17.964 8.512C17.712 8.61467 17.4367 8.764 17.138 8.96L16.452 8.526L16.788 3.738H21.772V4.83H17.908L17.642 7.798C17.866 7.66733 18.0994 7.56933 18.342 7.504C18.594 7.42933 18.874 7.392 19.182 7.392C19.7514 7.392 20.2694 7.50867 20.736 7.742C21.2027 7.966 21.576 8.32067 21.856 8.806C22.136 9.29133 22.276 9.912 22.276 10.668C22.276 11.4147 22.1127 12.0493 21.786 12.572C21.4687 13.0947 21.0534 13.496 20.54 13.776C20.0267 14.0467 19.4854 14.182 18.916 14.182Z" fill="white"/>
</svg>
