<svg width="20" height="20" viewBox="0 0 20 20" fill="none" xmlns="http://www.w3.org/2000/svg">
<path d="M5.15736 18.3833C4.32403 18.3833 3.51569 18.0583 2.87403 17.4333C1.83236 16.4167 1.58236 14.9167 2.23236 13.6167L3.58236 10.9167C3.86569 10.35 3.86569 9.66666 3.58236 9.09166L2.23236 6.38333C1.58236 5.08333 1.83236 3.58333 2.87403 2.56666C3.91569 1.55 5.41569 1.325 6.70736 2.00833L16.3657 7.09166C17.449 7.65833 18.124 8.775 18.124 10C18.124 11.225 17.449 12.3417 16.3657 12.9083L6.70736 17.9917C6.20736 18.2583 5.68236 18.3833 5.15736 18.3833ZM5.16569 2.86666C4.59069 2.86666 4.09069 3.13333 3.74903 3.46666C3.23236 3.96666 2.86569 4.85833 3.34903 5.83333L4.69903 8.53333C5.15736 9.45833 5.15736 10.55 4.69903 11.475L3.34903 14.175C2.85736 15.15 3.23236 16.0417 3.74903 16.5417C4.26569 17.0417 5.15736 17.4 6.12403 16.8917L15.7824 11.8083C16.4657 11.45 16.874 10.775 16.874 10.0083C16.874 9.24166 16.4657 8.56666 15.7824 8.20833L6.12403 3.10833C5.79069 2.93333 5.46569 2.86666 5.16569 2.86666Z" fill="#564B4B"/>
</svg>
