<svg width="143" height="47" viewBox="0 0 143 47" fill="none" xmlns="http://www.w3.org/2000/svg">
<path d="M21.8267 20.2316H26.5475V23.4131H21.8267V20.2316ZM18.9305 10.0796H22.8114V36.8624H18.9305V10.0796ZM2.625 12.6537H6.44799V29.3134H2.625V12.6537ZM2.625 27.1442H4.913C6.82449 27.1442 8.81323 27.067 10.8792 26.9128C12.9451 26.7586 15.0594 26.4694 17.2219 26.0451L17.6273 29.1688C15.3876 29.6316 13.2058 29.9497 11.0819 30.1233C8.95804 30.2775 6.90173 30.3547 4.913 30.3547H2.625V27.1442ZM31.0055 17.3393H49.5991V20.4051H31.0055V17.3393ZM28.0224 23.1817H52.2926V26.2476H28.0224V23.1817ZM31.0055 11.063H34.8575V18.8722H31.0055V11.063ZM30.7738 33.247H49.744V36.3417H30.7738V33.247ZM30.7738 28.359H34.6258V34.0857H30.7738V28.359ZM116.918 30.8464H141.217V33.9701H116.918V30.8464ZM127.112 25.7559H130.935V32.0901H127.112V25.7559ZM119.669 11.8439H138.465V20.7811H123.521V25.2642H119.698V17.7731H134.643V14.9097H119.669V11.8439ZM119.698 23.7602H139.074V26.8261H119.698V23.7602Z" fill="#263FBD"/>
<path d="M70.358 22.0081C70.0867 21.2209 69.5945 20.676 68.8813 20.3732C68.1683 20.0706 67.2913 20.0424 66.2507 20.2888C65.5435 20.4562 64.97 20.6974 64.5303 21.0126C64.0892 21.3212 63.7797 21.6793 63.6017 22.0875C63.4303 22.4938 63.397 22.917 63.5013 23.3568C63.575 23.7263 63.7275 24.028 63.9592 24.2618C64.1975 24.4939 64.4905 24.6743 64.8381 24.8032C65.1842 24.9252 65.5715 25.013 66 25.0664C66.4268 25.1132 66.8755 25.1336 67.3462 25.1278L69.2921 25.1316C70.2335 25.1199 71.1174 25.1922 71.9435 25.3484C72.7699 25.5047 73.5144 25.7612 74.1769 26.1181C74.8394 26.4751 75.3991 26.9478 75.8558 27.5362C76.3191 28.1232 76.6555 28.8425 76.8645 29.6937C77.1552 30.9479 77.0926 32.1097 76.6772 33.1791C76.2667 34.2404 75.5278 35.1647 74.4603 35.9521C73.398 36.7314 72.0329 37.3184 70.3649 37.7132C68.7105 38.1049 67.2091 38.1927 65.8615 37.9769C64.5204 37.7596 63.3883 37.2359 62.4655 36.4058C61.5478 35.5674 60.8976 34.4159 60.5148 32.9515L64.7079 31.9589C64.9175 32.6341 65.2504 33.1605 65.7064 33.5381C66.1674 33.9074 66.7193 34.1394 67.3617 34.2335C68.0092 34.3196 68.7067 34.274 69.4539 34.0972C70.1877 33.9235 70.7997 33.6661 71.2893 33.325C71.7859 32.9823 72.1392 32.5855 72.3494 32.1346C72.5593 31.6838 72.6059 31.2118 72.4889 30.7188C72.3798 30.2591 72.1513 29.905 71.8034 29.6566C71.4622 29.4066 71.0053 29.2333 70.4328 29.1366C69.867 29.0384 69.1889 28.9876 68.3991 28.9847L66.0346 28.9533C64.2069 28.9424 62.6867 28.6091 61.4741 27.9532C60.2615 27.2972 59.479 26.2123 59.1267 24.6983C58.8259 23.4606 58.8992 22.2997 59.3465 21.2158C59.8007 20.1301 60.5531 19.1885 61.6039 18.3909C62.6549 17.5932 63.9276 17.0175 65.422 16.6638C66.9431 16.3037 68.3325 16.2493 69.59 16.5005C70.8542 16.7502 71.9131 17.2631 72.7668 18.0392C73.6202 18.8152 74.2018 19.8105 74.5112 21.0251L70.358 22.0081ZM97.1494 20.2583C97.6792 22.4902 97.7062 24.4893 97.2304 26.2556C96.7614 28.0205 95.8978 29.488 94.6394 30.6585C93.3863 31.8206 91.8556 32.6158 90.0475 33.0437C88.2262 33.4748 86.4935 33.4486 84.8497 32.9653C83.206 32.4817 81.7778 31.5565 80.5655 30.1897C79.3533 28.8231 78.4832 27.027 77.955 24.8017C77.4251 22.5696 77.3949 20.5712 77.8639 18.8065C78.3329 17.0418 79.194 15.5784 80.4473 14.4161C81.699 13.2473 83.2355 12.4473 85.0568 12.0162C86.8649 11.5882 88.5909 11.616 90.2347 12.0994C91.8835 12.5747 93.3142 13.4957 94.5265 14.8625C95.7454 16.2276 96.6197 18.0262 97.1494 20.2583ZM92.7562 21.2982C92.413 19.8524 91.9067 18.6843 91.2375 17.7943C90.5748 16.9026 89.7925 16.2927 88.8901 15.9644C87.9878 15.6361 87.0128 15.596 85.9653 15.8439C84.9178 16.0918 84.0647 16.5647 83.406 17.2625C82.7471 17.9603 82.3186 18.8569 82.1206 19.9522C81.9293 21.0461 82.0051 22.316 82.3483 23.7618C82.6913 25.2075 83.1944 26.3762 83.8569 27.268C84.5263 28.1581 85.312 28.7673 86.2144 29.0955C87.1167 29.4238 88.0917 29.4639 89.139 29.2159C90.1865 28.9681 91.0396 28.4952 91.6985 27.7974C92.3572 27.0997 92.7824 26.2038 92.9738 25.1099C93.1718 24.0147 93.0992 22.744 92.7562 21.2982ZM102.366 29.8325L97.5078 9.36457L101.841 8.33887L105.852 25.2388L114.639 23.1591L115.485 26.7269L102.366 29.8325Z" fill="#67D3EC"/>
</svg>
