<svg width="150" height="50" viewBox="0 0 150 50" fill="none" xmlns="http://www.w3.org/2000/svg">
<rect width="150" height="49.4681" rx="24.734" fill="#FFBBB6"/>
<path d="M40.6466 18.744H42.3906V20.888C42.3906 21.848 42.3053 22.7707 42.1346 23.656C41.964 24.5307 41.7026 25.352 41.3506 26.12C41.0093 26.8773 40.5666 27.5493 40.0226 28.136C39.4893 28.712 38.8546 29.1707 38.1186 29.512L36.8546 27.752C37.5053 27.464 38.0653 27.0853 38.5346 26.616C39.0146 26.136 39.4093 25.592 39.7186 24.984C40.028 24.3653 40.2573 23.7093 40.4066 23.016C40.5666 22.3227 40.6466 21.6133 40.6466 20.888V18.744ZM41.0626 18.744H42.7906V20.888C42.7906 21.5813 42.8653 22.2587 43.0146 22.92C43.164 23.5813 43.388 24.2053 43.6866 24.792C43.996 25.3787 44.38 25.9013 44.8386 26.36C45.308 26.808 45.8573 27.1653 46.4866 27.432L45.2546 29.16C44.54 28.8293 43.916 28.3867 43.3826 27.832C42.86 27.2773 42.428 26.6373 42.0866 25.912C41.7453 25.176 41.4893 24.3867 41.3186 23.544C41.148 22.6907 41.0626 21.8053 41.0626 20.888V18.744ZM47.2066 17.576H49.3346V32.44H47.2066V17.576ZM55.0614 19.112H56.8054V20.04C56.8054 20.9787 56.6507 21.864 56.3414 22.696C56.0427 23.528 55.584 24.2587 54.9654 24.888C54.3574 25.5067 53.584 25.9707 52.6454 26.28L51.5414 24.632C52.3627 24.3547 53.0294 23.976 53.5414 23.496C54.064 23.016 54.448 22.4773 54.6934 21.88C54.9387 21.272 55.0614 20.6587 55.0614 20.04V19.112ZM55.4774 19.112H57.2054V20.04C57.2054 20.616 57.3227 21.192 57.5574 21.768C57.792 22.3333 58.16 22.8453 58.6614 23.304C59.1734 23.752 59.824 24.104 60.6134 24.36L59.5414 26.024C58.6134 25.7253 57.8507 25.272 57.2534 24.664C56.656 24.056 56.208 23.3573 55.9094 22.568C55.6214 21.768 55.4774 20.9253 55.4774 20.04V19.112ZM52.1014 18.472H60.1174V20.168H52.1014V18.472ZM61.2854 17.608H63.4134V26.52H61.2854V17.608ZM62.8374 21.176H65.3814V22.936H62.8374V21.176ZM53.5254 27.176H63.4134V32.424H61.2854V28.872H53.5254V27.176ZM79.6291 17.592H81.7571V25.592H79.6291V17.592ZM80.9251 20.744H83.7251V22.472H80.9251V20.744ZM71.9811 26.184H81.7571V29.944H74.1091V31.272H71.9971V28.488H79.6611V27.72H71.9811V26.184ZM71.9971 30.76H82.1891V32.328H71.9971V30.76ZM70.1091 18.696H78.8131V20.28H70.1091V18.696ZM74.4611 20.632C75.5705 20.632 76.4558 20.8507 77.1171 21.288C77.7785 21.7253 78.1091 22.3173 78.1091 23.064C78.1091 23.8107 77.7785 24.4027 77.1171 24.84C76.4558 25.2667 75.5705 25.48 74.4611 25.48C73.3625 25.48 72.4771 25.2667 71.8051 24.84C71.1438 24.4027 70.8131 23.8107 70.8131 23.064C70.8131 22.3173 71.1438 21.7253 71.8051 21.288C72.4771 20.8507 73.3625 20.632 74.4611 20.632ZM74.4611 22.136C73.9705 22.136 73.5811 22.216 73.2931 22.376C73.0051 22.5253 72.8611 22.7547 72.8611 23.064C72.8611 23.3733 73.0051 23.6027 73.2931 23.752C73.5811 23.9013 73.9705 23.976 74.4611 23.976C74.9625 23.976 75.3518 23.9013 75.6291 23.752C75.9171 23.6027 76.0611 23.3733 76.0611 23.064C76.0611 22.7547 75.9171 22.5253 75.6291 22.376C75.3518 22.216 74.9625 22.136 74.4611 22.136ZM73.4051 17.496H75.5171V19.816H73.4051V17.496ZM95.5479 17.592H97.5799V32.408H95.5479V17.592ZM89.6919 23.272H92.8439V24.968H89.6919V23.272ZM92.4279 17.912H94.4119V31.752H92.4279V17.912ZM89.2119 19.336H91.2599C91.2599 20.744 91.0945 22.056 90.7639 23.272C90.4332 24.488 89.8732 25.6027 89.0839 26.616C88.3052 27.6293 87.2225 28.536 85.8359 29.336L84.6359 27.848C85.7559 27.176 86.6465 26.4453 87.3079 25.656C87.9799 24.856 88.4652 23.976 88.7639 23.016C89.0625 22.0453 89.2119 20.9627 89.2119 19.768V19.336ZM85.4519 19.336H89.8679V21.048H85.4519V19.336ZM102.491 25.128H104.619V29.272H102.491V25.128ZM107.867 25.128H109.995V29.272H107.867V25.128ZM99.5466 28.968H112.971V30.696H99.5466V28.968ZM106.235 18.328C107.301 18.328 108.251 18.4933 109.083 18.824C109.925 19.1547 110.581 19.6187 111.051 20.216C111.531 20.8027 111.771 21.5013 111.771 22.312C111.771 23.112 111.531 23.8107 111.051 24.408C110.581 24.9947 109.925 25.4533 109.083 25.784C108.251 26.1147 107.301 26.28 106.235 26.28C105.179 26.28 104.229 26.1147 103.387 25.784C102.555 25.4533 101.899 24.9947 101.419 24.408C100.939 23.8107 100.699 23.112 100.699 22.312C100.699 21.5013 100.939 20.8027 101.419 20.216C101.899 19.6187 102.555 19.1547 103.387 18.824C104.229 18.4933 105.179 18.328 106.235 18.328ZM106.235 19.976C105.552 19.976 104.949 20.072 104.427 20.264C103.915 20.4453 103.515 20.7067 103.227 21.048C102.939 21.3893 102.795 21.8107 102.795 22.312C102.795 22.792 102.939 23.208 103.227 23.56C103.515 23.9013 103.915 24.168 104.427 24.36C104.949 24.5413 105.552 24.632 106.235 24.632C106.928 24.632 107.531 24.5413 108.043 24.36C108.565 24.168 108.965 23.9013 109.243 23.56C109.531 23.208 109.675 22.792 109.675 22.312C109.675 21.8107 109.531 21.3893 109.243 21.048C108.965 20.7067 108.565 20.4453 108.043 20.264C107.531 20.072 106.928 19.976 106.235 19.976Z" fill="white"/>
</svg>
