<svg width="154" height="43" viewBox="0 0 154 43" fill="none" xmlns="http://www.w3.org/2000/svg">
<rect width="154" height="42.5957" rx="21.2979" fill="#564B4B"/>
<path d="M24.296 16.248H25.864V16.472C25.864 17.1547 25.7467 17.8213 25.512 18.472C25.2773 19.1227 24.9147 19.704 24.424 20.216C23.9333 20.728 23.3093 21.1173 22.552 21.384L21.624 19.816C22.232 19.5813 22.728 19.288 23.112 18.936C23.5067 18.5733 23.8 18.1787 23.992 17.752C24.1947 17.3147 24.296 16.888 24.296 16.472V16.248ZM24.744 16.248H26.312V16.472C26.312 16.888 26.408 17.2987 26.6 17.704C26.8027 18.0987 27.1013 18.4613 27.496 18.792C27.9013 19.112 28.3973 19.3733 28.984 19.576L28.088 21.144C27.32 20.8987 26.6853 20.536 26.184 20.056C25.6933 19.576 25.3307 19.0267 25.096 18.408C24.8613 17.7893 24.744 17.144 24.744 16.472V16.248ZM22.04 15H28.536V16.648H22.04V15ZM24.296 13.672H26.312V16.088H24.296V13.672ZM32.248 13.608H34.28V21.368H32.248V13.608ZM30.456 16.664H32.824V18.328H30.456V16.664ZM29.176 13.88H31.16V21.272H29.176V13.88ZM24.2 21.912H34.28V25.784H26.344V27.672H24.232V24.312H32.184V23.496H24.2V21.912ZM24.232 26.68H34.76V28.28H24.232V26.68ZM46.5508 13.608H48.6788V24.52H46.5508V13.608ZM38.7588 26.456H49.0468V28.168H38.7588V26.456ZM38.7588 23.624H40.8868V27.336H38.7588V23.624ZM37.1428 20.936H38.4228C39.4574 20.936 40.3694 20.9253 41.1588 20.904C41.9481 20.8827 42.6734 20.84 43.3348 20.776C44.0068 20.712 44.6788 20.616 45.3508 20.488L45.5588 22.168C44.8761 22.296 44.1881 22.3973 43.4948 22.472C42.8014 22.536 42.0494 22.584 41.2388 22.616C40.4281 22.6373 39.4894 22.648 38.4228 22.648H37.1428V20.936ZM37.1108 14.568H43.9427V19.32H39.2228V21.416H37.1428V17.736H41.8308V16.264H37.1108V14.568ZM54.6615 15.944H56.3575V17.608C56.3575 18.4613 56.2668 19.2987 56.0855 20.12C55.9148 20.9413 55.6535 21.7147 55.3015 22.44C54.9602 23.1547 54.5282 23.7893 54.0055 24.344C53.4828 24.888 52.8748 25.32 52.1815 25.64L50.9655 23.96C51.5842 23.672 52.1228 23.2987 52.5815 22.84C53.0508 22.3813 53.4348 21.8693 53.7335 21.304C54.0428 20.728 54.2722 20.1253 54.4215 19.496C54.5815 18.856 54.6615 18.2267 54.6615 17.608V15.944ZM55.1255 15.944H56.8055V17.608C56.8055 18.1947 56.8802 18.792 57.0295 19.4C57.1895 19.9973 57.4188 20.568 57.7175 21.112C58.0162 21.6453 58.3948 22.1253 58.8535 22.552C59.3122 22.9787 59.8562 23.32 60.4855 23.576L59.3175 25.272C58.6135 24.9627 58.0002 24.5467 57.4775 24.024C56.9548 23.5013 56.5175 22.8987 56.1655 22.216C55.8135 21.5333 55.5522 20.8027 55.3815 20.024C55.2108 19.2347 55.1255 18.4293 55.1255 17.608V15.944ZM51.5575 15.016H59.8775V16.776H51.5575V15.016ZM61.2535 13.608H63.3815V28.424H61.2535V13.608ZM73.5685 14.744H75.3125V16.888C75.3125 17.848 75.2272 18.7707 75.0565 19.656C74.8858 20.5307 74.6245 21.352 74.2725 22.12C73.9312 22.8773 73.4885 23.5493 72.9445 24.136C72.4112 24.712 71.7765 25.1707 71.0405 25.512L69.7765 23.752C70.4272 23.464 70.9872 23.0853 71.4565 22.616C71.9365 22.136 72.3312 21.592 72.6405 20.984C72.9498 20.3653 73.1792 19.7093 73.3285 19.016C73.4885 18.3227 73.5685 17.6133 73.5685 16.888V14.744ZM73.9845 14.744H75.7125V16.888C75.7125 17.5813 75.7872 18.2587 75.9365 18.92C76.0858 19.5813 76.3098 20.2053 76.6085 20.792C76.9178 21.3787 77.3018 21.9013 77.7605 22.36C78.2298 22.808 78.7792 23.1653 79.4085 23.432L78.1765 25.16C77.4618 24.8293 76.8378 24.3867 76.3045 23.832C75.7818 23.2773 75.3498 22.6373 75.0085 21.912C74.6672 21.176 74.4112 20.3867 74.2405 19.544C74.0698 18.6907 73.9845 17.8053 73.9845 16.888V14.744ZM80.1285 13.576H82.2565V28.44H80.1285V13.576ZM87.9833 15.112H89.7273V16.04C89.7273 16.9787 89.5726 17.864 89.2633 18.696C88.9646 19.528 88.5059 20.2587 87.8873 20.888C87.2793 21.5067 86.5059 21.9707 85.5673 22.28L84.4633 20.632C85.2846 20.3547 85.9513 19.976 86.4633 19.496C86.9859 19.016 87.3699 18.4773 87.6153 17.88C87.8606 17.272 87.9833 16.6587 87.9833 16.04V15.112ZM88.3993 15.112H90.1273V16.04C90.1273 16.616 90.2446 17.192 90.4793 17.768C90.7139 18.3333 91.0819 18.8453 91.5833 19.304C92.0953 19.752 92.7459 20.104 93.5353 20.36L92.4633 22.024C91.5353 21.7253 90.7726 21.272 90.1753 20.664C89.5779 20.056 89.1299 19.3573 88.8313 18.568C88.5433 17.768 88.3993 16.9253 88.3993 16.04V15.112ZM85.0233 14.472H93.0393V16.168H85.0233V14.472ZM94.2073 13.608H96.3353V22.52H94.2073V13.608ZM95.7593 17.176H98.3033V18.936H95.7593V17.176ZM86.4473 23.176H96.3353V28.424H94.2073V24.872H86.4473V23.176ZM113.05 13.608H115.178V28.424H113.05V13.608ZM114.698 19.384H117.306V21.144H114.698V19.384ZM103.482 15.784H112.122V17.48H103.482V15.784ZM107.834 18.328C108.549 18.328 109.189 18.4827 109.754 18.792C110.32 19.0907 110.762 19.5013 111.082 20.024C111.413 20.5467 111.578 21.1547 111.578 21.848C111.578 22.5413 111.413 23.1547 111.082 23.688C110.762 24.2107 110.32 24.6267 109.754 24.936C109.2 25.2347 108.56 25.384 107.834 25.384C107.12 25.384 106.474 25.2347 105.898 24.936C105.333 24.6267 104.885 24.2107 104.554 23.688C104.234 23.1547 104.074 22.5413 104.074 21.848C104.074 21.1547 104.234 20.5467 104.554 20.024C104.885 19.5013 105.333 19.0907 105.898 18.792C106.474 18.4827 107.12 18.328 107.834 18.328ZM107.834 20.056C107.493 20.056 107.194 20.1253 106.938 20.264C106.682 20.4027 106.48 20.6053 106.33 20.872C106.181 21.1387 106.106 21.464 106.106 21.848C106.106 22.2213 106.181 22.5467 106.33 22.824C106.48 23.0907 106.682 23.2987 106.938 23.448C107.194 23.5867 107.493 23.656 107.834 23.656C108.165 23.656 108.458 23.5867 108.714 23.448C108.97 23.2987 109.173 23.0907 109.322 22.824C109.472 22.5467 109.546 22.2213 109.546 21.848C109.546 21.464 109.472 21.1387 109.322 20.872C109.173 20.6053 108.97 20.4027 108.714 20.264C108.458 20.1253 108.165 20.056 107.834 20.056ZM106.746 13.848H108.89V16.44H106.746V13.848ZM128.489 13.592H130.617V28.408H128.489V13.592ZM124.121 15.128H126.217C126.217 16.2587 126.105 17.3413 125.881 18.376C125.668 19.4 125.305 20.3653 124.793 21.272C124.292 22.1787 123.598 23.0213 122.713 23.8C121.838 24.568 120.745 25.272 119.433 25.912L118.313 24.232C119.742 23.5387 120.878 22.776 121.721 21.944C122.574 21.1013 123.188 20.152 123.561 19.096C123.934 18.0293 124.121 16.8347 124.121 15.512V15.128ZM119.113 15.128H125.113V16.824H119.113V15.128Z" fill="white"/>
</svg>
