<svg width="154" height="43" viewBox="0 0 154 43" fill="none" xmlns="http://www.w3.org/2000/svg">
<rect width="154" height="42.5957" rx="21.2979" fill="#564B4B"/>
<path d="M27.288 21.928H29.4V25.304H27.288V21.928ZM28.344 14.36C29.4 14.36 30.344 14.5307 31.176 14.872C32.0187 15.2027 32.68 15.672 33.16 16.28C33.64 16.888 33.88 17.608 33.88 18.44C33.88 19.2613 33.64 19.9813 33.16 20.6C32.68 21.2187 32.0187 21.6987 31.176 22.04C30.344 22.3707 29.4 22.536 28.344 22.536C27.2987 22.536 26.3547 22.3707 25.512 22.04C24.68 21.6987 24.0187 21.2187 23.528 20.6C23.048 19.9813 22.808 19.2613 22.808 18.44C22.808 17.608 23.048 16.888 23.528 16.28C24.0187 15.672 24.68 15.2027 25.512 14.872C26.3547 14.5307 27.2987 14.36 28.344 14.36ZM28.344 16.04C27.672 16.04 27.0747 16.136 26.552 16.328C26.04 16.52 25.6347 16.792 25.336 17.144C25.048 17.496 24.904 17.928 24.904 18.44C24.904 18.9413 25.048 19.3733 25.336 19.736C25.6347 20.088 26.04 20.36 26.552 20.552C27.0747 20.744 27.672 20.84 28.344 20.84C29.0267 20.84 29.624 20.744 30.136 20.552C30.6587 20.36 31.064 20.088 31.352 19.736C31.64 19.3733 31.784 18.9413 31.784 18.44C31.784 17.928 31.64 17.496 31.352 17.144C31.064 16.792 30.6587 16.52 30.136 16.328C29.624 16.136 29.0267 16.04 28.344 16.04ZM21.656 24.968H35.08V26.696H21.656V24.968ZM38.0228 16.552H48.2468V18.232H38.0228V16.552ZM36.3748 19.208H49.7828V20.888H36.3748V19.208ZM38.0228 13.752H40.1348V17.448H38.0228V13.752ZM37.8788 21.784H48.1988V25.72H40.0388V27.016H37.8948V24.216H46.0708V23.384H37.8788V21.784ZM37.8948 26.648H48.6308V28.264H37.8948V26.648ZM60.7538 14.456H62.5938V15.528C62.5938 16.168 62.5031 16.792 62.3218 17.4C62.1511 17.9973 61.8951 18.5627 61.5538 19.096C61.2124 19.6293 60.7911 20.1147 60.2898 20.552C59.7991 20.9787 59.2338 21.3467 58.5938 21.656C57.9538 21.9653 57.2498 22.1947 56.4818 22.344L55.5698 20.568C56.2311 20.4507 56.8338 20.2747 57.3778 20.04C57.9324 19.7947 58.4178 19.5013 58.8338 19.16C59.2498 18.8187 59.6018 18.4507 59.8898 18.056C60.1778 17.6507 60.3911 17.2347 60.5298 16.808C60.6791 16.3707 60.7538 15.944 60.7538 15.528V14.456ZM61.1698 14.456H63.0258V15.528C63.0258 15.9547 63.0951 16.3867 63.2338 16.824C63.3831 17.2613 63.5964 17.6827 63.8738 18.088C64.1618 18.4827 64.5138 18.8453 64.9298 19.176C65.3458 19.5067 65.8258 19.7947 66.3698 20.04C66.9138 20.2747 67.5271 20.4507 68.2098 20.568L67.2978 22.344C66.5298 22.1947 65.8258 21.9653 65.1858 21.656C64.5458 21.3467 63.9751 20.9787 63.4738 20.552C62.9831 20.1253 62.5618 19.6453 62.2098 19.112C61.8684 18.5787 61.6071 18.008 61.4258 17.4C61.2551 16.792 61.1698 16.168 61.1698 15.528V14.456ZM55.2498 24.872H68.6738V26.616H55.2498V24.872ZM70.4645 20.072H71.4885C72.2032 20.072 72.8432 20.0667 73.4085 20.056C73.9845 20.0453 74.5285 20.0187 75.0405 19.976C75.5525 19.9227 76.0805 19.848 76.6245 19.752L76.8165 21.448C76.2512 21.5333 75.7018 21.6027 75.1685 21.656C74.6352 21.7093 74.0698 21.7467 73.4725 21.768C72.8858 21.7787 72.2245 21.784 71.4885 21.784H70.4645V20.072ZM70.4645 14.472H76.2885V16.152H72.5125V21.176H70.4645V14.472ZM71.9045 17.288H76.1445V18.904H71.9045V17.288ZM80.5605 13.608H82.5925V22.328H80.5605V13.608ZM78.8165 17.112H81.1685V18.84H78.8165V17.112ZM77.4085 13.88H79.3925V22.216H77.4085V13.88ZM72.5445 22.92H82.5925V28.264H72.5445V22.92ZM80.5125 24.584H74.6405V26.584H80.5125V24.584ZM84.6873 24.968H98.1113V26.712H84.6873V24.968ZM85.7113 14.872H97.0073V16.584H85.7113V14.872ZM85.7913 21.016H96.9593V22.712H85.7913V21.016ZM87.7273 16.456H89.8553V21.176H87.7273V16.456ZM92.8633 16.456H94.9913V21.176H92.8633V16.456ZM105.658 23.08H116.202V28.424H114.058V24.744H105.658V23.08ZM114.058 13.608H116.202V22.408H114.058V13.608ZM105.418 15.384H106.922V16.216C106.922 16.8133 106.88 17.4053 106.794 17.992C106.72 18.5787 106.586 19.1387 106.394 19.672C106.213 20.1947 105.952 20.664 105.61 21.08C105.28 21.496 104.864 21.8373 104.362 22.104L103.258 20.6C103.674 20.376 104.021 20.104 104.298 19.784C104.576 19.4533 104.794 19.096 104.954 18.712C105.125 18.328 105.242 17.9227 105.306 17.496C105.381 17.0693 105.418 16.6427 105.418 16.216V15.384ZM105.962 15.384H107.402V16.216C107.402 16.6 107.429 17.0053 107.482 17.432C107.546 17.848 107.653 18.2587 107.802 18.664C107.952 19.0587 108.154 19.4373 108.41 19.8C108.677 20.152 109.013 20.4613 109.418 20.728L108.506 22.264C107.984 21.9653 107.552 21.592 107.21 21.144C106.88 20.6853 106.624 20.1787 106.442 19.624C106.261 19.0693 106.133 18.504 106.058 17.928C105.994 17.3413 105.962 16.7707 105.962 16.216V15.384ZM109.594 15.384H111.05V16.216C111.05 16.7707 111.013 17.3467 110.938 17.944C110.874 18.5307 110.746 19.096 110.554 19.64C110.373 20.184 110.117 20.6853 109.786 21.144C109.456 21.592 109.029 21.9653 108.506 22.264L107.594 20.728C108 20.4613 108.33 20.152 108.586 19.8C108.842 19.448 109.045 19.0747 109.194 18.68C109.344 18.2747 109.445 17.864 109.498 17.448C109.562 17.0213 109.594 16.6107 109.594 16.216V15.384ZM110.09 15.384H111.61V16.216C111.61 16.7813 111.674 17.3467 111.802 17.912C111.93 18.4667 112.149 18.9787 112.458 19.448C112.778 19.9067 113.21 20.2907 113.754 20.6L112.666 22.104C112.005 21.752 111.482 21.2667 111.098 20.648C110.725 20.0293 110.464 19.3413 110.314 18.584C110.165 17.816 110.09 17.0267 110.09 16.216V15.384ZM103.834 14.568H108.218V16.264H103.834V14.568ZM108.794 14.568H113.05V16.264H108.794V14.568ZM128.489 13.592H130.617V28.408H128.489V13.592ZM124.121 15.128H126.217C126.217 16.2587 126.105 17.3413 125.881 18.376C125.668 19.4 125.305 20.3653 124.793 21.272C124.292 22.1787 123.598 23.0213 122.713 23.8C121.838 24.568 120.745 25.272 119.433 25.912L118.313 24.232C119.742 23.5387 120.878 22.776 121.721 21.944C122.574 21.1013 123.188 20.152 123.561 19.096C123.934 18.0293 124.121 16.8347 124.121 15.512V15.128ZM119.113 15.128H125.113V16.824H119.113V15.128Z" fill="white"/>
</svg>
