<svg width="150" height="50" viewBox="0 0 150 50" fill="none" xmlns="http://www.w3.org/2000/svg">
<rect width="150" height="49.4681" rx="24.734" fill="#E29144"/>
<path d="M48.8145 27.08H59.3585V32.424H57.2145V28.744H48.8145V27.08ZM57.2145 17.608H59.3585V26.408H57.2145V17.608ZM48.5745 19.384H50.0785V20.216C50.0785 20.8133 50.0358 21.4053 49.9505 21.992C49.8758 22.5787 49.7425 23.1387 49.5505 23.672C49.3692 24.1947 49.1078 24.664 48.7665 25.08C48.4358 25.496 48.0198 25.8373 47.5185 26.104L46.4145 24.6C46.8305 24.376 47.1772 24.104 47.4545 23.784C47.7318 23.4533 47.9505 23.096 48.1105 22.712C48.2812 22.328 48.3985 21.9227 48.4625 21.496C48.5372 21.0693 48.5745 20.6427 48.5745 20.216V19.384ZM49.1185 19.384H50.5585V20.216C50.5585 20.6 50.5852 21.0053 50.6385 21.432C50.7025 21.848 50.8092 22.2587 50.9585 22.664C51.1078 23.0587 51.3105 23.4373 51.5665 23.8C51.8332 24.152 52.1692 24.4613 52.5745 24.728L51.6625 26.264C51.1398 25.9653 50.7078 25.592 50.3665 25.144C50.0358 24.6853 49.7798 24.1787 49.5985 23.624C49.4172 23.0693 49.2892 22.504 49.2145 21.928C49.1505 21.3413 49.1185 20.7707 49.1185 20.216V19.384ZM52.7505 19.384H54.2065V20.216C54.2065 20.7707 54.1692 21.3467 54.0945 21.944C54.0305 22.5307 53.9025 23.096 53.7105 23.64C53.5292 24.184 53.2732 24.6853 52.9425 25.144C52.6118 25.592 52.1852 25.9653 51.6625 26.264L50.7505 24.728C51.1558 24.4613 51.4865 24.152 51.7425 23.8C51.9985 23.448 52.2012 23.0747 52.3505 22.68C52.4998 22.2747 52.6012 21.864 52.6545 21.448C52.7185 21.0213 52.7505 20.6107 52.7505 20.216V19.384ZM53.2465 19.384H54.7665V20.216C54.7665 20.7813 54.8305 21.3467 54.9585 21.912C55.0865 22.4667 55.3052 22.9787 55.6145 23.448C55.9345 23.9067 56.3665 24.2907 56.9105 24.6L55.8225 26.104C55.1612 25.752 54.6385 25.2667 54.2545 24.648C53.8812 24.0293 53.6198 23.3413 53.4705 22.584C53.3212 21.816 53.2465 21.0267 53.2465 20.216V19.384ZM46.9905 18.568H51.3745V20.264H46.9905V18.568ZM51.9505 18.568H56.2065V20.264H51.9505V18.568ZM68.1413 17.8C69.8266 17.8 71.1386 18.0187 72.0773 18.456C73.0266 18.8933 73.5013 19.5227 73.5013 20.344C73.5013 21.1547 73.0266 21.7787 72.0773 22.216C71.1386 22.6533 69.8266 22.872 68.1413 22.872C66.4453 22.872 65.1226 22.6533 64.1733 22.216C63.2346 21.7787 62.7653 21.1547 62.7653 20.344C62.7653 19.5227 63.2346 18.8933 64.1733 18.456C65.1226 18.0187 66.4453 17.8 68.1413 17.8ZM68.1253 19.368C67.4213 19.368 66.8346 19.4053 66.3653 19.48C65.8959 19.544 65.5439 19.6507 65.3093 19.8C65.0853 19.9387 64.9733 20.12 64.9733 20.344C64.9733 20.568 65.0853 20.7547 65.3093 20.904C65.5439 21.0427 65.8959 21.144 66.3653 21.208C66.8346 21.272 67.4213 21.304 68.1253 21.304C68.8399 21.304 69.4319 21.272 69.9013 21.208C70.3706 21.144 70.7173 21.0427 70.9413 20.904C71.1653 20.7547 71.2773 20.568 71.2773 20.344C71.2773 20.12 71.1653 19.9387 70.9413 19.8C70.7173 19.6507 70.3706 19.544 69.9013 19.48C69.4319 19.4053 68.8399 19.368 68.1253 19.368ZM61.4213 23.56H74.8293V25.24H61.4213V23.56ZM62.9573 26.072H73.1973V29.864H65.0853V31.176H62.9733V28.392H71.1013V27.64H62.9573V26.072ZM62.9733 30.712H73.5973V32.328H62.9733V30.712ZM76.556 27.4H77.596C78.4813 27.4 79.3293 27.384 80.14 27.352C80.9507 27.3093 81.8147 27.2133 82.732 27.064L82.892 28.792C81.9427 28.952 81.0467 29.0533 80.204 29.096C79.372 29.128 78.5027 29.144 77.596 29.144H76.556V27.4ZM76.524 19.048H82.14V24.776H78.62V28.024H76.556V23.096H80.092V20.728H76.524V19.048ZM86.844 17.592H88.876V32.408H86.844V17.592ZM84.876 23.192H87.34V24.904H84.876V23.192ZM83.532 17.848H85.5V31.72H83.532V17.848ZM93.8188 25.128H95.9468V29.272H93.8188V25.128ZM99.1948 25.128H101.323V29.272H99.1948V25.128ZM90.8748 28.968H104.299V30.696H90.8748V28.968ZM97.5628 18.328C98.6294 18.328 99.5788 18.4933 100.411 18.824C101.253 19.1547 101.909 19.6187 102.379 20.216C102.859 20.8027 103.099 21.5013 103.099 22.312C103.099 23.112 102.859 23.8107 102.379 24.408C101.909 24.9947 101.253 25.4533 100.411 25.784C99.5788 26.1147 98.6294 26.28 97.5628 26.28C96.5068 26.28 95.5574 26.1147 94.7148 25.784C93.8828 25.4533 93.2268 24.9947 92.7468 24.408C92.2668 23.8107 92.0268 23.112 92.0268 22.312C92.0268 21.5013 92.2668 20.8027 92.7468 20.216C93.2268 19.6187 93.8828 19.1547 94.7148 18.824C95.5574 18.4933 96.5068 18.328 97.5628 18.328ZM97.5628 19.976C96.8801 19.976 96.2774 20.072 95.7548 20.264C95.2428 20.4453 94.8428 20.7067 94.5548 21.048C94.2668 21.3893 94.1228 21.8107 94.1228 22.312C94.1228 22.792 94.2668 23.208 94.5548 23.56C94.8428 23.9013 95.2428 24.168 95.7548 24.36C96.2774 24.5413 96.8801 24.632 97.5628 24.632C98.2561 24.632 98.8588 24.5413 99.3708 24.36C99.8934 24.168 100.293 23.9013 100.571 23.56C100.859 23.208 101.003 22.792 101.003 22.312C101.003 21.8107 100.859 21.3893 100.571 21.048C100.293 20.7067 99.8934 20.4453 99.3708 20.264C98.8588 20.072 98.2561 19.976 97.5628 19.976Z" fill="white"/>
</svg>
