<svg width="150" height="50" viewBox="0 0 150 50" fill="none" xmlns="http://www.w3.org/2000/svg">
<rect x="1.5" y="1.5" width="147" height="46.4681" rx="23.234" fill="white" stroke="#FFBBB6" stroke-width="3"/>
<path d="M39.1433 17.576H41.2873V32.44H39.1433V17.576ZM40.8233 23.064H43.4313V24.824H40.8233V23.064ZM30.2473 27.128H31.4953C32.3379 27.128 33.1273 27.1173 33.8633 27.096C34.5993 27.064 35.3139 27.016 36.0073 26.952C36.7006 26.8773 37.4099 26.776 38.1353 26.648L38.3433 28.408C37.5966 28.536 36.8606 28.6373 36.1353 28.712C35.4206 28.7867 34.6846 28.8347 33.9273 28.856C33.1699 28.8773 32.3593 28.888 31.4953 28.888H30.2473V27.128ZM30.2473 18.952H37.1593V20.664H32.3753V27.96H30.2473V18.952ZM51.094 17.88C52.1927 17.88 53.142 17.9973 53.942 18.232C54.742 18.456 55.3607 18.7867 55.798 19.224C56.246 19.6507 56.47 20.1627 56.47 20.76C56.47 21.3573 56.246 21.8747 55.798 22.312C55.3607 22.7387 54.742 23.0693 53.942 23.304C53.142 23.5387 52.1927 23.656 51.094 23.656C50.0167 23.656 49.0727 23.5387 48.262 23.304C47.4513 23.0693 46.8273 22.7387 46.39 22.312C45.9527 21.8747 45.734 21.3573 45.734 20.76C45.734 20.1627 45.9527 19.6507 46.39 19.224C46.8273 18.7867 47.4513 18.456 48.262 18.232C49.0727 17.9973 50.0167 17.88 51.094 17.88ZM51.094 19.512C50.4327 19.512 49.862 19.56 49.382 19.656C48.902 19.7413 48.5393 19.8747 48.294 20.056C48.0593 20.2373 47.942 20.472 47.942 20.76C47.942 21.0373 48.0593 21.272 48.294 21.464C48.5393 21.6453 48.902 21.784 49.382 21.88C49.862 21.9653 50.4327 22.008 51.094 22.008C51.7767 22.008 52.3527 21.9653 52.822 21.88C53.2913 21.784 53.6487 21.6453 53.894 21.464C54.1393 21.272 54.262 21.0373 54.262 20.76C54.262 20.472 54.1393 20.2373 53.894 20.056C53.6487 19.8747 53.2913 19.7413 52.822 19.656C52.3527 19.56 51.7767 19.512 51.094 19.512ZM45.958 27.208H56.198V32.264H45.958V27.208ZM54.118 28.888H48.038V30.584H54.118V28.888ZM44.39 24.504H57.798V26.168H44.39V24.504ZM65.0448 23.048H67.4768V24.76H65.0448V23.048ZM69.8128 17.592H71.8448V32.408H69.8128V17.592ZM66.8048 17.832H68.7888V31.752H66.8048V17.832ZM62.4528 18.632C63.1034 18.632 63.6688 18.8507 64.1488 19.288C64.6394 19.7147 65.0128 20.3333 65.2688 21.144C65.5354 21.944 65.6688 22.904 65.6688 24.024C65.6688 25.1333 65.5354 26.0933 65.2688 26.904C65.0128 27.7147 64.6394 28.3387 64.1488 28.776C63.6688 29.2027 63.0981 29.416 62.4368 29.416C61.7968 29.416 61.2314 29.2027 60.7408 28.776C60.2608 28.3387 59.8874 27.7147 59.6208 26.904C59.3648 26.0933 59.2368 25.1333 59.2368 24.024C59.2368 22.904 59.3648 21.944 59.6208 21.144C59.8874 20.3333 60.2608 19.7147 60.7408 19.288C61.2314 18.8507 61.8021 18.632 62.4528 18.632ZM62.4528 20.648C62.1861 20.648 61.9568 20.7707 61.7648 21.016C61.5728 21.2613 61.4234 21.6347 61.3168 22.136C61.2208 22.6267 61.1728 23.256 61.1728 24.024C61.1728 24.7707 61.2208 25.3947 61.3168 25.896C61.4234 26.3973 61.5728 26.776 61.7648 27.032C61.9568 27.2773 62.1861 27.4 62.4528 27.4C62.7194 27.4 62.9488 27.2773 63.1408 27.032C63.3434 26.776 63.4928 26.3973 63.5888 25.896C63.6848 25.3947 63.7328 24.7707 63.7328 24.024C63.7328 23.256 63.6848 22.6267 63.5888 22.136C63.4928 21.6347 63.3434 21.2613 63.1408 21.016C62.9488 20.7707 62.7194 20.648 62.4528 20.648ZM86.9885 17.592H89.1165V25.592H86.9885V17.592ZM88.2845 20.744H91.0845V22.472H88.2845V20.744ZM79.3405 26.184H89.1165V29.944H81.4685V31.272H79.3565V28.488H87.0205V27.72H79.3405V26.184ZM79.3565 30.76H89.5485V32.328H79.3565V30.76ZM77.4685 18.696H86.1725V20.28H77.4685V18.696ZM81.8205 20.632C82.9298 20.632 83.8152 20.8507 84.4765 21.288C85.1378 21.7253 85.4685 22.3173 85.4685 23.064C85.4685 23.8107 85.1378 24.4027 84.4765 24.84C83.8152 25.2667 82.9298 25.48 81.8205 25.48C80.7218 25.48 79.8365 25.2667 79.1645 24.84C78.5032 24.4027 78.1725 23.8107 78.1725 23.064C78.1725 22.3173 78.5032 21.7253 79.1645 21.288C79.8365 20.8507 80.7218 20.632 81.8205 20.632ZM81.8205 22.136C81.3298 22.136 80.9405 22.216 80.6525 22.376C80.3645 22.5253 80.2205 22.7547 80.2205 23.064C80.2205 23.3733 80.3645 23.6027 80.6525 23.752C80.9405 23.9013 81.3298 23.976 81.8205 23.976C82.3218 23.976 82.7112 23.9013 82.9885 23.752C83.2765 23.6027 83.4205 23.3733 83.4205 23.064C83.4205 22.7547 83.2765 22.5253 82.9885 22.376C82.7112 22.216 82.3218 22.136 81.8205 22.136ZM80.7645 17.496H82.8765V19.816H80.7645V17.496ZM102.907 17.592H104.939V32.408H102.907V17.592ZM97.0513 23.272H100.203V24.968H97.0513V23.272ZM99.7873 17.912H101.771V31.752H99.7873V17.912ZM96.5713 19.336H98.6193C98.6193 20.744 98.4539 22.056 98.1233 23.272C97.7926 24.488 97.2326 25.6027 96.4433 26.616C95.6646 27.6293 94.5819 28.536 93.1953 29.336L91.9953 27.848C93.1153 27.176 94.0059 26.4453 94.6673 25.656C95.3393 24.856 95.8246 23.976 96.1233 23.016C96.4219 22.0453 96.5713 20.9627 96.5713 19.768V19.336ZM92.8113 19.336H97.2273V21.048H92.8113V19.336ZM109.85 25.128H111.978V29.272H109.85V25.128ZM115.226 25.128H117.354V29.272H115.226V25.128ZM106.906 28.968H120.33V30.696H106.906V28.968ZM113.594 18.328C114.661 18.328 115.61 18.4933 116.442 18.824C117.285 19.1547 117.941 19.6187 118.41 20.216C118.89 20.8027 119.13 21.5013 119.13 22.312C119.13 23.112 118.89 23.8107 118.41 24.408C117.941 24.9947 117.285 25.4533 116.442 25.784C115.61 26.1147 114.661 26.28 113.594 26.28C112.538 26.28 111.589 26.1147 110.746 25.784C109.914 25.4533 109.258 24.9947 108.778 24.408C108.298 23.8107 108.058 23.112 108.058 22.312C108.058 21.5013 108.298 20.8027 108.778 20.216C109.258 19.6187 109.914 19.1547 110.746 18.824C111.589 18.4933 112.538 18.328 113.594 18.328ZM113.594 19.976C112.911 19.976 112.309 20.072 111.786 20.264C111.274 20.4453 110.874 20.7067 110.586 21.048C110.298 21.3893 110.154 21.8107 110.154 22.312C110.154 22.792 110.298 23.208 110.586 23.56C110.874 23.9013 111.274 24.168 111.786 24.36C112.309 24.5413 112.911 24.632 113.594 24.632C114.287 24.632 114.89 24.5413 115.402 24.36C115.925 24.168 116.325 23.9013 116.602 23.56C116.89 23.208 117.034 22.792 117.034 22.312C117.034 21.8107 116.89 21.3893 116.602 21.048C116.325 20.7067 115.925 20.4453 115.402 20.264C114.89 20.072 114.287 19.976 113.594 19.976Z" fill="#FFBBB6"/>
</svg>
