<svg width="335" height="92" viewBox="0 0 335 92" fill="none" xmlns="http://www.w3.org/2000/svg">
<rect width="335" height="91.7808" rx="45.8904" fill="#67D3EC"/>
<path d="M129.384 36.616H132V39.832C132 41.272 131.872 42.656 131.616 43.984C131.36 45.296 130.968 46.528 130.44 47.68C129.928 48.816 129.264 49.824 128.448 50.704C127.648 51.568 126.696 52.256 125.592 52.768L123.696 50.128C124.672 49.696 125.512 49.128 126.216 48.424C126.936 47.704 127.528 46.888 127.992 45.976C128.456 45.048 128.8 44.064 129.024 43.024C129.264 41.984 129.384 40.92 129.384 39.832V36.616ZM130.008 36.616H132.6V39.832C132.6 40.872 132.712 41.888 132.936 42.88C133.16 43.872 133.496 44.808 133.944 45.688C134.408 46.568 134.984 47.352 135.672 48.04C136.376 48.712 137.2 49.248 138.144 49.648L136.296 52.24C135.224 51.744 134.288 51.08 133.488 50.248C132.704 49.416 132.056 48.456 131.544 47.368C131.032 46.264 130.648 45.08 130.392 43.816C130.136 42.536 130.008 41.208 130.008 39.832V36.616ZM139.224 34.864H142.416V57.16H139.224V34.864ZM151.006 37.168H153.622V38.56C153.622 39.968 153.39 41.296 152.926 42.544C152.478 43.792 151.79 44.888 150.862 45.832C149.95 46.76 148.79 47.456 147.382 47.92L145.726 45.448C146.958 45.032 147.958 44.464 148.726 43.744C149.51 43.024 150.086 42.216 150.454 41.32C150.822 40.408 151.006 39.488 151.006 38.56V37.168ZM151.63 37.168H154.222V38.56C154.222 39.424 154.398 40.288 154.75 41.152C155.102 42 155.654 42.768 156.406 43.456C157.174 44.128 158.15 44.656 159.334 45.04L157.726 47.536C156.334 47.088 155.19 46.408 154.294 45.496C153.398 44.584 152.726 43.536 152.278 42.352C151.846 41.152 151.63 39.888 151.63 38.56V37.168ZM146.566 36.208H158.59V38.752H146.566V36.208ZM160.342 34.912H163.534V48.28H160.342V34.912ZM162.67 40.264H166.486V42.904H162.67V40.264ZM148.702 49.264H163.534V57.136H160.342V51.808H148.702V49.264ZM182.372 34.912H185.564V57.136H182.372V34.912ZM184.844 43.576H188.756V46.216H184.844V43.576ZM168.02 38.176H180.98V40.72H168.02V38.176ZM174.548 41.992C175.62 41.992 176.58 42.224 177.428 42.688C178.276 43.136 178.94 43.752 179.42 44.536C179.916 45.32 180.164 46.232 180.164 47.272C180.164 48.312 179.916 49.232 179.42 50.032C178.94 50.816 178.276 51.44 177.428 51.904C176.596 52.352 175.636 52.576 174.548 52.576C173.476 52.576 172.508 52.352 171.644 51.904C170.796 51.44 170.124 50.816 169.628 50.032C169.148 49.232 168.908 48.312 168.908 47.272C168.908 46.232 169.148 45.32 169.628 44.536C170.124 43.752 170.796 43.136 171.644 42.688C172.508 42.224 173.476 41.992 174.548 41.992ZM174.548 44.584C174.036 44.584 173.588 44.688 173.204 44.896C172.82 45.104 172.516 45.408 172.292 45.808C172.068 46.208 171.956 46.696 171.956 47.272C171.956 47.832 172.068 48.32 172.292 48.736C172.516 49.136 172.82 49.448 173.204 49.672C173.588 49.88 174.036 49.984 174.548 49.984C175.044 49.984 175.484 49.88 175.868 49.672C176.252 49.448 176.556 49.136 176.78 48.736C177.004 48.32 177.116 47.832 177.116 47.272C177.116 46.696 177.004 46.208 176.78 45.808C176.556 45.408 176.252 45.104 175.868 44.896C175.484 44.688 175.044 44.584 174.548 44.584ZM172.916 35.272H176.132V39.16H172.916V35.272ZM205.53 34.888H208.722V57.112H205.53V34.888ZM198.978 37.192H202.122C202.122 38.888 201.954 40.512 201.618 42.064C201.298 43.6 200.754 45.048 199.986 46.408C199.234 47.768 198.194 49.032 196.866 50.2C195.554 51.352 193.914 52.408 191.946 53.368L190.266 50.848C192.41 49.808 194.114 48.664 195.378 47.416C196.658 46.152 197.578 44.728 198.138 43.144C198.698 41.544 198.978 39.752 198.978 37.768V37.192ZM191.466 37.192H200.466V39.736H191.466V37.192Z" fill="white"/>
</svg>
